M48
; DRILL file {KiCad 5.1.5-5.1.5} date Sun 06 Sep 2020 13:46:46 AEST
; FORMAT={3:3/ absolute / metric / suppress trailing zeros}
; #@! TF.CreationDate,2020-09-06T13:46:46+10:00
; #@! TF.GenerationSoftware,Kicad,Pcbnew,5.1.5-5.1.5
; #@! TF.FileFunction,Plated,1,2,PTH
FMAT,2
METRIC,LZ
T1C0.750
T2C0.800
T3C1.000
T4C1.016
T5C1.100
T6C1.520
%
G90
G05
T1
X06604Y-0381
X068685Y-03302
X066145Y-02794
X067415Y-02667
X068685Y-02794
X07112Y-05842
X07239Y-05969
X07366Y-05842
X066145Y-01778
X067415Y-01651
X068685Y-01778
X066145Y-02286
X067415Y-02159
X068685Y-02286
X06731Y-03683
X06858Y-0381
X066145Y-03302
X067415Y-03175
X06604Y-04318
X06731Y-04191
X06858Y-04318
X066145Y-00762
X067415Y-00635
X068685Y-00762
X066145Y-0127
X067415Y-01143
X068685Y-0127
T2
X03048Y-01016
X03048Y-02032
X02286Y-0127
X02286Y-02286
X06096Y-07366
X06096Y-07616
X0381Y-01524
X0381Y-01778
X0381Y-02032
X0381Y-02286
X0381Y-0254
X0381Y-02794
X0381Y-03048
X0381Y-03302
X0381Y-03556
X0381Y-0381
X0381Y-04064
X0381Y-04318
X0381Y-04572
X0381Y-04826
X0381Y-0508
X0381Y-05334
X0381Y-05588
X0381Y-05842
X0381Y-06096
X0381Y-0635
X05334Y-01524
X05334Y-01778
X05334Y-02032
X05334Y-02286
X05334Y-0254
X05334Y-02794
X05334Y-03048
X05334Y-03302
X05334Y-03556
X05334Y-0381
X05334Y-04064
X05334Y-04318
X05334Y-04572
X05334Y-04826
X05334Y-0508
X05334Y-05334
X05334Y-05588
X05334Y-05842
X05334Y-06096
X05334Y-0635
X03048Y-05608
X03048Y-06096
X06096Y-05084
X06096Y-05334
X01524Y-04064
X01524Y-04314
X04576Y-01016
X04826Y-01016
X01524Y-0254
X01524Y-03556
X03048Y-08128
X03302Y-08128
X03556Y-08128
X0381Y-08128
X04064Y-08128
X04318Y-08128
X04572Y-08128
X04826Y-08128
X0508Y-08128
X02286Y-0254
X02286Y-0279
X02286Y-03302
X02286Y-04318
X07112Y-05084
X07112Y-05334
X0381Y-00508
X04826Y-00508
X0229Y-06096
X0254Y-06096
X0229Y-05588
X0254Y-05588
T3
X08382Y-00762
X08382Y-01016
X08382Y-0127
X08382Y-01524
X08382Y-01778
X08382Y-02032
X0Y-03556
X0Y-0381
X0Y-04064
X09144Y-00762
X09144Y-01016
X09144Y-0127
X09144Y-01524
X09144Y-01778
X09144Y-02032
X03048Y-0889
X03302Y-0889
X03556Y-0889
X0381Y-0889
X04064Y-0889
X04318Y-0889
X04572Y-0889
X04826Y-0889
X0508Y-0889
X05334Y-0889
X05588Y-0889
X05842Y-0889
X0Y-01524
X0Y-01778
X0Y-02032
X0Y-02286
X0Y-0254
X0Y-02794
X0Y-03048
X06096Y-06096
X06096Y-0635
X06096Y-06604
T4
X03048Y-04572
X03048Y-04826
X03048Y-0254
X03048Y-02794
X03048Y-03048
X03048Y-03302
X09144Y-04064
X09144Y-04318
T5
X08636Y-06604
X08636Y-0762
X0Y-04572
X0Y-05022
X0065Y-04572
X0065Y-05022
X0Y-06604
X0Y-07054
X0065Y-06604
X0065Y-07054
X07112Y-06604
X07366Y-06604
X0762Y-06604
X0Y-0762
X0Y-0807
X0065Y-0762
X0065Y-0807
X0Y-05588
X0Y-06038
X0065Y-05588
X0065Y-06038
T6
X07112Y-0762
X0762Y-0762
T0
M30
