G04 #@! TF.GenerationSoftware,KiCad,Pcbnew,5.1.5-5.1.5*
G04 #@! TF.CreationDate,2020-09-06T13:46:36+10:00*
G04 #@! TF.ProjectId,89c52board,38396335-3262-46f6-9172-642e6b696361,rev?*
G04 #@! TF.SameCoordinates,PX48ab840PY18392c0*
G04 #@! TF.FileFunction,Legend,Top*
G04 #@! TF.FilePolarity,Positive*
%FSLAX46Y46*%
G04 Gerber Fmt 4.6, Leading zero omitted, Abs format (unit mm)*
G04 Created by KiCad (PCBNEW 5.1.5-5.1.5) date 2020-09-06 13:46:37*
%MOMM*%
%LPD*%
G04 APERTURE LIST*
%ADD10C,0.200000*%
%ADD11C,0.120000*%
%ADD12C,0.150000*%
G04 APERTURE END LIST*
D10*
X64541428Y-60302857D02*
X63970000Y-60302857D01*
X63912857Y-60874285D01*
X63970000Y-60817142D01*
X64084285Y-60760000D01*
X64370000Y-60760000D01*
X64484285Y-60817142D01*
X64541428Y-60874285D01*
X64598571Y-60988571D01*
X64598571Y-61274285D01*
X64541428Y-61388571D01*
X64484285Y-61445714D01*
X64370000Y-61502857D01*
X64084285Y-61502857D01*
X63970000Y-61445714D01*
X63912857Y-61388571D01*
X64941428Y-60302857D02*
X65341428Y-61502857D01*
X65741428Y-60302857D01*
D11*
X61755000Y-50070000D02*
X62380000Y-50070000D01*
X59540000Y-50070000D02*
X60165000Y-50070000D01*
X61755000Y-54110000D02*
X62380000Y-54110000D01*
X59540000Y-54110000D02*
X60165000Y-54110000D01*
X62380000Y-54110000D02*
X62380000Y-50070000D01*
X59540000Y-54110000D02*
X59540000Y-50070000D01*
X60165000Y-76930000D02*
X59540000Y-76930000D01*
X62380000Y-76930000D02*
X61755000Y-76930000D01*
X60165000Y-72890000D02*
X59540000Y-72890000D01*
X62380000Y-72890000D02*
X61755000Y-72890000D01*
X59540000Y-72890000D02*
X59540000Y-76930000D01*
X62380000Y-72890000D02*
X62380000Y-76930000D01*
X69395000Y-54644775D02*
X69895000Y-54644775D01*
X69645000Y-54894775D02*
X69645000Y-54394775D01*
X70836000Y-49489000D02*
X71404000Y-49489000D01*
X70602000Y-49529000D02*
X71638000Y-49529000D01*
X70443000Y-49569000D02*
X71797000Y-49569000D01*
X70315000Y-49609000D02*
X71925000Y-49609000D01*
X70205000Y-49649000D02*
X72035000Y-49649000D01*
X70109000Y-49689000D02*
X72131000Y-49689000D01*
X70022000Y-49729000D02*
X72218000Y-49729000D01*
X69942000Y-49769000D02*
X72298000Y-49769000D01*
X72160000Y-49809000D02*
X72371000Y-49809000D01*
X69869000Y-49809000D02*
X70080000Y-49809000D01*
X72160000Y-49849000D02*
X72439000Y-49849000D01*
X69801000Y-49849000D02*
X70080000Y-49849000D01*
X72160000Y-49889000D02*
X72503000Y-49889000D01*
X69737000Y-49889000D02*
X70080000Y-49889000D01*
X72160000Y-49929000D02*
X72563000Y-49929000D01*
X69677000Y-49929000D02*
X70080000Y-49929000D01*
X72160000Y-49969000D02*
X72620000Y-49969000D01*
X69620000Y-49969000D02*
X70080000Y-49969000D01*
X72160000Y-50009000D02*
X72674000Y-50009000D01*
X69566000Y-50009000D02*
X70080000Y-50009000D01*
X72160000Y-50049000D02*
X72725000Y-50049000D01*
X69515000Y-50049000D02*
X70080000Y-50049000D01*
X72160000Y-50089000D02*
X72773000Y-50089000D01*
X69467000Y-50089000D02*
X70080000Y-50089000D01*
X72160000Y-50129000D02*
X72819000Y-50129000D01*
X69421000Y-50129000D02*
X70080000Y-50129000D01*
X72160000Y-50169000D02*
X72863000Y-50169000D01*
X69377000Y-50169000D02*
X70080000Y-50169000D01*
X72160000Y-50209000D02*
X72905000Y-50209000D01*
X69335000Y-50209000D02*
X70080000Y-50209000D01*
X72160000Y-50249000D02*
X72946000Y-50249000D01*
X69294000Y-50249000D02*
X70080000Y-50249000D01*
X72160000Y-50289000D02*
X72984000Y-50289000D01*
X69256000Y-50289000D02*
X70080000Y-50289000D01*
X72160000Y-50329000D02*
X73021000Y-50329000D01*
X69219000Y-50329000D02*
X70080000Y-50329000D01*
X72160000Y-50369000D02*
X73057000Y-50369000D01*
X69183000Y-50369000D02*
X70080000Y-50369000D01*
X72160000Y-50409000D02*
X73091000Y-50409000D01*
X69149000Y-50409000D02*
X70080000Y-50409000D01*
X72160000Y-50449000D02*
X73124000Y-50449000D01*
X69116000Y-50449000D02*
X70080000Y-50449000D01*
X72160000Y-50489000D02*
X73155000Y-50489000D01*
X69085000Y-50489000D02*
X70080000Y-50489000D01*
X72160000Y-50529000D02*
X73185000Y-50529000D01*
X69055000Y-50529000D02*
X70080000Y-50529000D01*
X72160000Y-50569000D02*
X73215000Y-50569000D01*
X69025000Y-50569000D02*
X70080000Y-50569000D01*
X72160000Y-50609000D02*
X73242000Y-50609000D01*
X68998000Y-50609000D02*
X70080000Y-50609000D01*
X72160000Y-50649000D02*
X73269000Y-50649000D01*
X68971000Y-50649000D02*
X70080000Y-50649000D01*
X72160000Y-50689000D02*
X73295000Y-50689000D01*
X68945000Y-50689000D02*
X70080000Y-50689000D01*
X72160000Y-50729000D02*
X73320000Y-50729000D01*
X68920000Y-50729000D02*
X70080000Y-50729000D01*
X72160000Y-50769000D02*
X73344000Y-50769000D01*
X68896000Y-50769000D02*
X70080000Y-50769000D01*
X72160000Y-50809000D02*
X73367000Y-50809000D01*
X68873000Y-50809000D02*
X70080000Y-50809000D01*
X72160000Y-50849000D02*
X73388000Y-50849000D01*
X68852000Y-50849000D02*
X70080000Y-50849000D01*
X72160000Y-50889000D02*
X73410000Y-50889000D01*
X68830000Y-50889000D02*
X70080000Y-50889000D01*
X72160000Y-50929000D02*
X73430000Y-50929000D01*
X68810000Y-50929000D02*
X70080000Y-50929000D01*
X72160000Y-50969000D02*
X73449000Y-50969000D01*
X68791000Y-50969000D02*
X70080000Y-50969000D01*
X72160000Y-51009000D02*
X73468000Y-51009000D01*
X68772000Y-51009000D02*
X70080000Y-51009000D01*
X72160000Y-51049000D02*
X73485000Y-51049000D01*
X68755000Y-51049000D02*
X70080000Y-51049000D01*
X72160000Y-51089000D02*
X73502000Y-51089000D01*
X68738000Y-51089000D02*
X70080000Y-51089000D01*
X72160000Y-51129000D02*
X73518000Y-51129000D01*
X68722000Y-51129000D02*
X70080000Y-51129000D01*
X72160000Y-51169000D02*
X73534000Y-51169000D01*
X68706000Y-51169000D02*
X70080000Y-51169000D01*
X72160000Y-51209000D02*
X73548000Y-51209000D01*
X68692000Y-51209000D02*
X70080000Y-51209000D01*
X72160000Y-51249000D02*
X73562000Y-51249000D01*
X68678000Y-51249000D02*
X70080000Y-51249000D01*
X72160000Y-51289000D02*
X73575000Y-51289000D01*
X68665000Y-51289000D02*
X70080000Y-51289000D01*
X72160000Y-51329000D02*
X73588000Y-51329000D01*
X68652000Y-51329000D02*
X70080000Y-51329000D01*
X72160000Y-51369000D02*
X73600000Y-51369000D01*
X68640000Y-51369000D02*
X70080000Y-51369000D01*
X72160000Y-51410000D02*
X73611000Y-51410000D01*
X68629000Y-51410000D02*
X70080000Y-51410000D01*
X72160000Y-51450000D02*
X73621000Y-51450000D01*
X68619000Y-51450000D02*
X70080000Y-51450000D01*
X72160000Y-51490000D02*
X73631000Y-51490000D01*
X68609000Y-51490000D02*
X70080000Y-51490000D01*
X72160000Y-51530000D02*
X73640000Y-51530000D01*
X68600000Y-51530000D02*
X70080000Y-51530000D01*
X72160000Y-51570000D02*
X73648000Y-51570000D01*
X68592000Y-51570000D02*
X70080000Y-51570000D01*
X72160000Y-51610000D02*
X73656000Y-51610000D01*
X68584000Y-51610000D02*
X70080000Y-51610000D01*
X72160000Y-51650000D02*
X73663000Y-51650000D01*
X68577000Y-51650000D02*
X70080000Y-51650000D01*
X72160000Y-51690000D02*
X73670000Y-51690000D01*
X68570000Y-51690000D02*
X70080000Y-51690000D01*
X72160000Y-51730000D02*
X73676000Y-51730000D01*
X68564000Y-51730000D02*
X70080000Y-51730000D01*
X72160000Y-51770000D02*
X73681000Y-51770000D01*
X68559000Y-51770000D02*
X70080000Y-51770000D01*
X72160000Y-51810000D02*
X73685000Y-51810000D01*
X68555000Y-51810000D02*
X70080000Y-51810000D01*
X72160000Y-51850000D02*
X73689000Y-51850000D01*
X68551000Y-51850000D02*
X70080000Y-51850000D01*
X68547000Y-51890000D02*
X73693000Y-51890000D01*
X68544000Y-51930000D02*
X73696000Y-51930000D01*
X68542000Y-51970000D02*
X73698000Y-51970000D01*
X68541000Y-52010000D02*
X73699000Y-52010000D01*
X68540000Y-52050000D02*
X73700000Y-52050000D01*
X68540000Y-52090000D02*
X73700000Y-52090000D01*
X73740000Y-52090000D02*
G75*
G03X73740000Y-52090000I-2620000J0D01*
G01*
X44990000Y-9365000D02*
X44990000Y-8740000D01*
X44990000Y-11580000D02*
X44990000Y-10955000D01*
X49030000Y-9365000D02*
X49030000Y-8740000D01*
X49030000Y-11580000D02*
X49030000Y-10955000D01*
X49030000Y-8740000D02*
X44990000Y-8740000D01*
X49030000Y-11580000D02*
X44990000Y-11580000D01*
X87830000Y-69180000D02*
X84890000Y-69180000D01*
X87830000Y-69420000D02*
X84890000Y-69420000D01*
X87830000Y-69300000D02*
X84890000Y-69300000D01*
X86360000Y-74860000D02*
X86360000Y-73840000D01*
X86360000Y-67380000D02*
X86360000Y-68400000D01*
X87830000Y-73840000D02*
X87830000Y-68400000D01*
X84890000Y-73840000D02*
X87830000Y-73840000D01*
X84890000Y-68400000D02*
X84890000Y-73840000D01*
X87830000Y-68400000D02*
X84890000Y-68400000D01*
X69148478Y-45018478D02*
G75*
G03X67310000Y-40580000I-1838478J1838478D01*
G01*
X65471522Y-45018478D02*
G75*
G02X67310000Y-40580000I1838478J1838478D01*
G01*
X65510000Y-45030000D02*
X69110000Y-45030000D01*
X69148478Y-39938478D02*
G75*
G03X67310000Y-35500000I-1838478J1838478D01*
G01*
X65471522Y-39938478D02*
G75*
G02X67310000Y-35500000I1838478J1838478D01*
G01*
X65510000Y-39950000D02*
X69110000Y-39950000D01*
X68580000Y-80010000D02*
X78740000Y-80010000D01*
X68580000Y-72390000D02*
X68580000Y-80010000D01*
X78740000Y-72390000D02*
X68580000Y-72390000D01*
X78740000Y-80010000D02*
X78740000Y-72390000D01*
X78740000Y-78740000D02*
X68580000Y-78740000D01*
X62290000Y-67370000D02*
X60960000Y-67370000D01*
X62290000Y-66040000D02*
X62290000Y-67370000D01*
X62290000Y-64770000D02*
X59630000Y-64770000D01*
X59630000Y-64770000D02*
X59630000Y-59630000D01*
X62290000Y-64770000D02*
X62290000Y-59630000D01*
X62290000Y-59630000D02*
X59630000Y-59630000D01*
X-1330000Y-13910000D02*
X0Y-13910000D01*
X-1330000Y-15240000D02*
X-1330000Y-13910000D01*
X-1330000Y-16510000D02*
X1330000Y-16510000D01*
X1330000Y-16510000D02*
X1330000Y-31810000D01*
X-1330000Y-16510000D02*
X-1330000Y-31810000D01*
X-1330000Y-31810000D02*
X1330000Y-31810000D01*
X6750000Y-58880000D02*
X6750000Y-57380000D01*
X5500000Y-54880000D02*
X1000000Y-54880000D01*
X-250000Y-57380000D02*
X-250000Y-58880000D01*
X1000000Y-61380000D02*
X5500000Y-61380000D01*
X6750000Y-48720000D02*
X6750000Y-47220000D01*
X5500000Y-44720000D02*
X1000000Y-44720000D01*
X-250000Y-47220000D02*
X-250000Y-48720000D01*
X1000000Y-51220000D02*
X5500000Y-51220000D01*
X33005000Y-55320000D02*
G75*
G03X27955000Y-55320000I-2525000J0D01*
G01*
X33005000Y-61720000D02*
G75*
G02X27955000Y-61720000I-2525000J0D01*
G01*
X33005000Y-61720000D02*
X33005000Y-55320000D01*
X27955000Y-61720000D02*
X27955000Y-55320000D01*
X70551522Y-56581522D02*
G75*
G03X72390000Y-61020000I1838478J-1838478D01*
G01*
X74228478Y-56581522D02*
G75*
G02X72390000Y-61020000I-1838478J-1838478D01*
G01*
X74190000Y-56570000D02*
X70590000Y-56570000D01*
X71809000Y-69310000D02*
X71809000Y-67800000D01*
X75510000Y-69310000D02*
X75510000Y-67800000D01*
X78780000Y-67800000D02*
X68540000Y-67800000D01*
X68540000Y-69310000D02*
X68540000Y-64669000D01*
X78780000Y-69310000D02*
X78780000Y-64669000D01*
X78780000Y-64669000D02*
X68540000Y-64669000D01*
X78780000Y-69310000D02*
X68540000Y-69310000D01*
X52180000Y-13910000D02*
X46720000Y-13910000D01*
X52180000Y-64830000D02*
X52180000Y-13910000D01*
X39260000Y-64830000D02*
X52180000Y-64830000D01*
X39260000Y-13910000D02*
X39260000Y-64830000D01*
X44720000Y-13910000D02*
X39260000Y-13910000D01*
X46720000Y-13910000D02*
G75*
G02X44720000Y-13910000I-1000000J0D01*
G01*
X6750000Y-79200000D02*
X6750000Y-77700000D01*
X5500000Y-75200000D02*
X1000000Y-75200000D01*
X-250000Y-77700000D02*
X-250000Y-79200000D01*
X1000000Y-81700000D02*
X5500000Y-81700000D01*
X6750000Y-69040000D02*
X6750000Y-67540000D01*
X5500000Y-65040000D02*
X1000000Y-65040000D01*
X-250000Y-67540000D02*
X-250000Y-69040000D01*
X1000000Y-71540000D02*
X5500000Y-71540000D01*
X22860000Y-21820000D02*
X22860000Y-21050000D01*
X22860000Y-13740000D02*
X22860000Y-14510000D01*
X24230000Y-21050000D02*
X24230000Y-14510000D01*
X21490000Y-21050000D02*
X24230000Y-21050000D01*
X21490000Y-14510000D02*
X21490000Y-21050000D01*
X24230000Y-14510000D02*
X21490000Y-14510000D01*
X30480000Y-19280000D02*
X30480000Y-18510000D01*
X30480000Y-11200000D02*
X30480000Y-11970000D01*
X31850000Y-18510000D02*
X31850000Y-11970000D01*
X29110000Y-18510000D02*
X31850000Y-18510000D01*
X29110000Y-11970000D02*
X29110000Y-18510000D01*
X31850000Y-11970000D02*
X29110000Y-11970000D01*
X15240000Y-34520000D02*
X15240000Y-33750000D01*
X15240000Y-26440000D02*
X15240000Y-27210000D01*
X16610000Y-33750000D02*
X16610000Y-27210000D01*
X13870000Y-33750000D02*
X16610000Y-33750000D01*
X13870000Y-27210000D02*
X13870000Y-33750000D01*
X16610000Y-27210000D02*
X13870000Y-27210000D01*
X22860000Y-42140000D02*
X22860000Y-41370000D01*
X22860000Y-34060000D02*
X22860000Y-34830000D01*
X24230000Y-41370000D02*
X24230000Y-34830000D01*
X21490000Y-41370000D02*
X24230000Y-41370000D01*
X21490000Y-34830000D02*
X21490000Y-41370000D01*
X24230000Y-34830000D02*
X21490000Y-34830000D01*
X47220000Y-5080000D02*
X46450000Y-5080000D01*
X39140000Y-5080000D02*
X39910000Y-5080000D01*
X46450000Y-3710000D02*
X39910000Y-3710000D01*
X46450000Y-6450000D02*
X46450000Y-3710000D01*
X39910000Y-6450000D02*
X46450000Y-6450000D01*
X39910000Y-3710000D02*
X39910000Y-6450000D01*
X69253478Y-34858478D02*
G75*
G03X67415000Y-30420000I-1838478J1838478D01*
G01*
X65576522Y-34858478D02*
G75*
G02X67415000Y-30420000I1838478J1838478D01*
G01*
X65615000Y-34870000D02*
X69215000Y-34870000D01*
X69253478Y-29778478D02*
G75*
G03X67415000Y-25340000I-1838478J1838478D01*
G01*
X65576522Y-29778478D02*
G75*
G02X67415000Y-25340000I1838478J1838478D01*
G01*
X65615000Y-29790000D02*
X69215000Y-29790000D01*
X69253478Y-24698478D02*
G75*
G03X67415000Y-20260000I-1838478J1838478D01*
G01*
X65576522Y-24698478D02*
G75*
G02X67415000Y-20260000I1838478J1838478D01*
G01*
X65615000Y-24710000D02*
X69215000Y-24710000D01*
X69253478Y-19618478D02*
G75*
G03X67415000Y-15180000I-1838478J1838478D01*
G01*
X65576522Y-19618478D02*
G75*
G02X67415000Y-15180000I1838478J1838478D01*
G01*
X65615000Y-19630000D02*
X69215000Y-19630000D01*
X69253478Y-14538478D02*
G75*
G03X67415000Y-10100000I-1838478J1838478D01*
G01*
X65576522Y-14538478D02*
G75*
G02X67415000Y-10100000I1838478J1838478D01*
G01*
X65615000Y-14550000D02*
X69215000Y-14550000D01*
X69253478Y-9458478D02*
G75*
G03X67415000Y-5020000I-1838478J1838478D01*
G01*
X65576522Y-9458478D02*
G75*
G02X67415000Y-5020000I1838478J1838478D01*
G01*
X65615000Y-9470000D02*
X69215000Y-9470000D01*
X1330000Y-41970000D02*
X0Y-41970000D01*
X1330000Y-40640000D02*
X1330000Y-41970000D01*
X1330000Y-39370000D02*
X-1330000Y-39370000D01*
X-1330000Y-39370000D02*
X-1330000Y-34230000D01*
X1330000Y-39370000D02*
X1330000Y-34230000D01*
X1330000Y-34230000D02*
X-1330000Y-34230000D01*
X24779000Y-60040000D02*
X23521000Y-60040000D01*
X24779000Y-61880000D02*
X23521000Y-61880000D01*
X24779000Y-54960000D02*
X23521000Y-54960000D01*
X24779000Y-56800000D02*
X23521000Y-56800000D01*
X16965000Y-39335225D02*
X16465000Y-39335225D01*
X16715000Y-39085225D02*
X16715000Y-39585225D01*
X15524000Y-44491000D02*
X14956000Y-44491000D01*
X15758000Y-44451000D02*
X14722000Y-44451000D01*
X15917000Y-44411000D02*
X14563000Y-44411000D01*
X16045000Y-44371000D02*
X14435000Y-44371000D01*
X16155000Y-44331000D02*
X14325000Y-44331000D01*
X16251000Y-44291000D02*
X14229000Y-44291000D01*
X16338000Y-44251000D02*
X14142000Y-44251000D01*
X16418000Y-44211000D02*
X14062000Y-44211000D01*
X14200000Y-44171000D02*
X13989000Y-44171000D01*
X16491000Y-44171000D02*
X16280000Y-44171000D01*
X14200000Y-44131000D02*
X13921000Y-44131000D01*
X16559000Y-44131000D02*
X16280000Y-44131000D01*
X14200000Y-44091000D02*
X13857000Y-44091000D01*
X16623000Y-44091000D02*
X16280000Y-44091000D01*
X14200000Y-44051000D02*
X13797000Y-44051000D01*
X16683000Y-44051000D02*
X16280000Y-44051000D01*
X14200000Y-44011000D02*
X13740000Y-44011000D01*
X16740000Y-44011000D02*
X16280000Y-44011000D01*
X14200000Y-43971000D02*
X13686000Y-43971000D01*
X16794000Y-43971000D02*
X16280000Y-43971000D01*
X14200000Y-43931000D02*
X13635000Y-43931000D01*
X16845000Y-43931000D02*
X16280000Y-43931000D01*
X14200000Y-43891000D02*
X13587000Y-43891000D01*
X16893000Y-43891000D02*
X16280000Y-43891000D01*
X14200000Y-43851000D02*
X13541000Y-43851000D01*
X16939000Y-43851000D02*
X16280000Y-43851000D01*
X14200000Y-43811000D02*
X13497000Y-43811000D01*
X16983000Y-43811000D02*
X16280000Y-43811000D01*
X14200000Y-43771000D02*
X13455000Y-43771000D01*
X17025000Y-43771000D02*
X16280000Y-43771000D01*
X14200000Y-43731000D02*
X13414000Y-43731000D01*
X17066000Y-43731000D02*
X16280000Y-43731000D01*
X14200000Y-43691000D02*
X13376000Y-43691000D01*
X17104000Y-43691000D02*
X16280000Y-43691000D01*
X14200000Y-43651000D02*
X13339000Y-43651000D01*
X17141000Y-43651000D02*
X16280000Y-43651000D01*
X14200000Y-43611000D02*
X13303000Y-43611000D01*
X17177000Y-43611000D02*
X16280000Y-43611000D01*
X14200000Y-43571000D02*
X13269000Y-43571000D01*
X17211000Y-43571000D02*
X16280000Y-43571000D01*
X14200000Y-43531000D02*
X13236000Y-43531000D01*
X17244000Y-43531000D02*
X16280000Y-43531000D01*
X14200000Y-43491000D02*
X13205000Y-43491000D01*
X17275000Y-43491000D02*
X16280000Y-43491000D01*
X14200000Y-43451000D02*
X13175000Y-43451000D01*
X17305000Y-43451000D02*
X16280000Y-43451000D01*
X14200000Y-43411000D02*
X13145000Y-43411000D01*
X17335000Y-43411000D02*
X16280000Y-43411000D01*
X14200000Y-43371000D02*
X13118000Y-43371000D01*
X17362000Y-43371000D02*
X16280000Y-43371000D01*
X14200000Y-43331000D02*
X13091000Y-43331000D01*
X17389000Y-43331000D02*
X16280000Y-43331000D01*
X14200000Y-43291000D02*
X13065000Y-43291000D01*
X17415000Y-43291000D02*
X16280000Y-43291000D01*
X14200000Y-43251000D02*
X13040000Y-43251000D01*
X17440000Y-43251000D02*
X16280000Y-43251000D01*
X14200000Y-43211000D02*
X13016000Y-43211000D01*
X17464000Y-43211000D02*
X16280000Y-43211000D01*
X14200000Y-43171000D02*
X12993000Y-43171000D01*
X17487000Y-43171000D02*
X16280000Y-43171000D01*
X14200000Y-43131000D02*
X12972000Y-43131000D01*
X17508000Y-43131000D02*
X16280000Y-43131000D01*
X14200000Y-43091000D02*
X12950000Y-43091000D01*
X17530000Y-43091000D02*
X16280000Y-43091000D01*
X14200000Y-43051000D02*
X12930000Y-43051000D01*
X17550000Y-43051000D02*
X16280000Y-43051000D01*
X14200000Y-43011000D02*
X12911000Y-43011000D01*
X17569000Y-43011000D02*
X16280000Y-43011000D01*
X14200000Y-42971000D02*
X12892000Y-42971000D01*
X17588000Y-42971000D02*
X16280000Y-42971000D01*
X14200000Y-42931000D02*
X12875000Y-42931000D01*
X17605000Y-42931000D02*
X16280000Y-42931000D01*
X14200000Y-42891000D02*
X12858000Y-42891000D01*
X17622000Y-42891000D02*
X16280000Y-42891000D01*
X14200000Y-42851000D02*
X12842000Y-42851000D01*
X17638000Y-42851000D02*
X16280000Y-42851000D01*
X14200000Y-42811000D02*
X12826000Y-42811000D01*
X17654000Y-42811000D02*
X16280000Y-42811000D01*
X14200000Y-42771000D02*
X12812000Y-42771000D01*
X17668000Y-42771000D02*
X16280000Y-42771000D01*
X14200000Y-42731000D02*
X12798000Y-42731000D01*
X17682000Y-42731000D02*
X16280000Y-42731000D01*
X14200000Y-42691000D02*
X12785000Y-42691000D01*
X17695000Y-42691000D02*
X16280000Y-42691000D01*
X14200000Y-42651000D02*
X12772000Y-42651000D01*
X17708000Y-42651000D02*
X16280000Y-42651000D01*
X14200000Y-42611000D02*
X12760000Y-42611000D01*
X17720000Y-42611000D02*
X16280000Y-42611000D01*
X14200000Y-42570000D02*
X12749000Y-42570000D01*
X17731000Y-42570000D02*
X16280000Y-42570000D01*
X14200000Y-42530000D02*
X12739000Y-42530000D01*
X17741000Y-42530000D02*
X16280000Y-42530000D01*
X14200000Y-42490000D02*
X12729000Y-42490000D01*
X17751000Y-42490000D02*
X16280000Y-42490000D01*
X14200000Y-42450000D02*
X12720000Y-42450000D01*
X17760000Y-42450000D02*
X16280000Y-42450000D01*
X14200000Y-42410000D02*
X12712000Y-42410000D01*
X17768000Y-42410000D02*
X16280000Y-42410000D01*
X14200000Y-42370000D02*
X12704000Y-42370000D01*
X17776000Y-42370000D02*
X16280000Y-42370000D01*
X14200000Y-42330000D02*
X12697000Y-42330000D01*
X17783000Y-42330000D02*
X16280000Y-42330000D01*
X14200000Y-42290000D02*
X12690000Y-42290000D01*
X17790000Y-42290000D02*
X16280000Y-42290000D01*
X14200000Y-42250000D02*
X12684000Y-42250000D01*
X17796000Y-42250000D02*
X16280000Y-42250000D01*
X14200000Y-42210000D02*
X12679000Y-42210000D01*
X17801000Y-42210000D02*
X16280000Y-42210000D01*
X14200000Y-42170000D02*
X12675000Y-42170000D01*
X17805000Y-42170000D02*
X16280000Y-42170000D01*
X14200000Y-42130000D02*
X12671000Y-42130000D01*
X17809000Y-42130000D02*
X16280000Y-42130000D01*
X17813000Y-42090000D02*
X12667000Y-42090000D01*
X17816000Y-42050000D02*
X12664000Y-42050000D01*
X17818000Y-42010000D02*
X12662000Y-42010000D01*
X17819000Y-41970000D02*
X12661000Y-41970000D01*
X17820000Y-41930000D02*
X12660000Y-41930000D01*
X17820000Y-41890000D02*
X12660000Y-41890000D01*
X17860000Y-41890000D02*
G75*
G03X17860000Y-41890000I-2620000J0D01*
G01*
X24585000Y-24095225D02*
X24085000Y-24095225D01*
X24335000Y-23845225D02*
X24335000Y-24345225D01*
X23144000Y-29251000D02*
X22576000Y-29251000D01*
X23378000Y-29211000D02*
X22342000Y-29211000D01*
X23537000Y-29171000D02*
X22183000Y-29171000D01*
X23665000Y-29131000D02*
X22055000Y-29131000D01*
X23775000Y-29091000D02*
X21945000Y-29091000D01*
X23871000Y-29051000D02*
X21849000Y-29051000D01*
X23958000Y-29011000D02*
X21762000Y-29011000D01*
X24038000Y-28971000D02*
X21682000Y-28971000D01*
X21820000Y-28931000D02*
X21609000Y-28931000D01*
X24111000Y-28931000D02*
X23900000Y-28931000D01*
X21820000Y-28891000D02*
X21541000Y-28891000D01*
X24179000Y-28891000D02*
X23900000Y-28891000D01*
X21820000Y-28851000D02*
X21477000Y-28851000D01*
X24243000Y-28851000D02*
X23900000Y-28851000D01*
X21820000Y-28811000D02*
X21417000Y-28811000D01*
X24303000Y-28811000D02*
X23900000Y-28811000D01*
X21820000Y-28771000D02*
X21360000Y-28771000D01*
X24360000Y-28771000D02*
X23900000Y-28771000D01*
X21820000Y-28731000D02*
X21306000Y-28731000D01*
X24414000Y-28731000D02*
X23900000Y-28731000D01*
X21820000Y-28691000D02*
X21255000Y-28691000D01*
X24465000Y-28691000D02*
X23900000Y-28691000D01*
X21820000Y-28651000D02*
X21207000Y-28651000D01*
X24513000Y-28651000D02*
X23900000Y-28651000D01*
X21820000Y-28611000D02*
X21161000Y-28611000D01*
X24559000Y-28611000D02*
X23900000Y-28611000D01*
X21820000Y-28571000D02*
X21117000Y-28571000D01*
X24603000Y-28571000D02*
X23900000Y-28571000D01*
X21820000Y-28531000D02*
X21075000Y-28531000D01*
X24645000Y-28531000D02*
X23900000Y-28531000D01*
X21820000Y-28491000D02*
X21034000Y-28491000D01*
X24686000Y-28491000D02*
X23900000Y-28491000D01*
X21820000Y-28451000D02*
X20996000Y-28451000D01*
X24724000Y-28451000D02*
X23900000Y-28451000D01*
X21820000Y-28411000D02*
X20959000Y-28411000D01*
X24761000Y-28411000D02*
X23900000Y-28411000D01*
X21820000Y-28371000D02*
X20923000Y-28371000D01*
X24797000Y-28371000D02*
X23900000Y-28371000D01*
X21820000Y-28331000D02*
X20889000Y-28331000D01*
X24831000Y-28331000D02*
X23900000Y-28331000D01*
X21820000Y-28291000D02*
X20856000Y-28291000D01*
X24864000Y-28291000D02*
X23900000Y-28291000D01*
X21820000Y-28251000D02*
X20825000Y-28251000D01*
X24895000Y-28251000D02*
X23900000Y-28251000D01*
X21820000Y-28211000D02*
X20795000Y-28211000D01*
X24925000Y-28211000D02*
X23900000Y-28211000D01*
X21820000Y-28171000D02*
X20765000Y-28171000D01*
X24955000Y-28171000D02*
X23900000Y-28171000D01*
X21820000Y-28131000D02*
X20738000Y-28131000D01*
X24982000Y-28131000D02*
X23900000Y-28131000D01*
X21820000Y-28091000D02*
X20711000Y-28091000D01*
X25009000Y-28091000D02*
X23900000Y-28091000D01*
X21820000Y-28051000D02*
X20685000Y-28051000D01*
X25035000Y-28051000D02*
X23900000Y-28051000D01*
X21820000Y-28011000D02*
X20660000Y-28011000D01*
X25060000Y-28011000D02*
X23900000Y-28011000D01*
X21820000Y-27971000D02*
X20636000Y-27971000D01*
X25084000Y-27971000D02*
X23900000Y-27971000D01*
X21820000Y-27931000D02*
X20613000Y-27931000D01*
X25107000Y-27931000D02*
X23900000Y-27931000D01*
X21820000Y-27891000D02*
X20592000Y-27891000D01*
X25128000Y-27891000D02*
X23900000Y-27891000D01*
X21820000Y-27851000D02*
X20570000Y-27851000D01*
X25150000Y-27851000D02*
X23900000Y-27851000D01*
X21820000Y-27811000D02*
X20550000Y-27811000D01*
X25170000Y-27811000D02*
X23900000Y-27811000D01*
X21820000Y-27771000D02*
X20531000Y-27771000D01*
X25189000Y-27771000D02*
X23900000Y-27771000D01*
X21820000Y-27731000D02*
X20512000Y-27731000D01*
X25208000Y-27731000D02*
X23900000Y-27731000D01*
X21820000Y-27691000D02*
X20495000Y-27691000D01*
X25225000Y-27691000D02*
X23900000Y-27691000D01*
X21820000Y-27651000D02*
X20478000Y-27651000D01*
X25242000Y-27651000D02*
X23900000Y-27651000D01*
X21820000Y-27611000D02*
X20462000Y-27611000D01*
X25258000Y-27611000D02*
X23900000Y-27611000D01*
X21820000Y-27571000D02*
X20446000Y-27571000D01*
X25274000Y-27571000D02*
X23900000Y-27571000D01*
X21820000Y-27531000D02*
X20432000Y-27531000D01*
X25288000Y-27531000D02*
X23900000Y-27531000D01*
X21820000Y-27491000D02*
X20418000Y-27491000D01*
X25302000Y-27491000D02*
X23900000Y-27491000D01*
X21820000Y-27451000D02*
X20405000Y-27451000D01*
X25315000Y-27451000D02*
X23900000Y-27451000D01*
X21820000Y-27411000D02*
X20392000Y-27411000D01*
X25328000Y-27411000D02*
X23900000Y-27411000D01*
X21820000Y-27371000D02*
X20380000Y-27371000D01*
X25340000Y-27371000D02*
X23900000Y-27371000D01*
X21820000Y-27330000D02*
X20369000Y-27330000D01*
X25351000Y-27330000D02*
X23900000Y-27330000D01*
X21820000Y-27290000D02*
X20359000Y-27290000D01*
X25361000Y-27290000D02*
X23900000Y-27290000D01*
X21820000Y-27250000D02*
X20349000Y-27250000D01*
X25371000Y-27250000D02*
X23900000Y-27250000D01*
X21820000Y-27210000D02*
X20340000Y-27210000D01*
X25380000Y-27210000D02*
X23900000Y-27210000D01*
X21820000Y-27170000D02*
X20332000Y-27170000D01*
X25388000Y-27170000D02*
X23900000Y-27170000D01*
X21820000Y-27130000D02*
X20324000Y-27130000D01*
X25396000Y-27130000D02*
X23900000Y-27130000D01*
X21820000Y-27090000D02*
X20317000Y-27090000D01*
X25403000Y-27090000D02*
X23900000Y-27090000D01*
X21820000Y-27050000D02*
X20310000Y-27050000D01*
X25410000Y-27050000D02*
X23900000Y-27050000D01*
X21820000Y-27010000D02*
X20304000Y-27010000D01*
X25416000Y-27010000D02*
X23900000Y-27010000D01*
X21820000Y-26970000D02*
X20299000Y-26970000D01*
X25421000Y-26970000D02*
X23900000Y-26970000D01*
X21820000Y-26930000D02*
X20295000Y-26930000D01*
X25425000Y-26930000D02*
X23900000Y-26930000D01*
X21820000Y-26890000D02*
X20291000Y-26890000D01*
X25429000Y-26890000D02*
X23900000Y-26890000D01*
X25433000Y-26850000D02*
X20287000Y-26850000D01*
X25436000Y-26810000D02*
X20284000Y-26810000D01*
X25438000Y-26770000D02*
X20282000Y-26770000D01*
X25439000Y-26730000D02*
X20281000Y-26730000D01*
X25440000Y-26690000D02*
X20280000Y-26690000D01*
X25440000Y-26650000D02*
X20280000Y-26650000D01*
X25480000Y-26650000D02*
G75*
G03X25480000Y-26650000I-2620000J0D01*
G01*
D12*
X58767142Y-52256666D02*
X58814761Y-52304285D01*
X58862380Y-52447142D01*
X58862380Y-52542380D01*
X58814761Y-52685238D01*
X58719523Y-52780476D01*
X58624285Y-52828095D01*
X58433809Y-52875714D01*
X58290952Y-52875714D01*
X58100476Y-52828095D01*
X58005238Y-52780476D01*
X57910000Y-52685238D01*
X57862380Y-52542380D01*
X57862380Y-52447142D01*
X57910000Y-52304285D01*
X57957619Y-52256666D01*
X58195714Y-51399523D02*
X58862380Y-51399523D01*
X57814761Y-51637619D02*
X58529047Y-51875714D01*
X58529047Y-51256666D01*
X58777142Y-75076666D02*
X58824761Y-75124285D01*
X58872380Y-75267142D01*
X58872380Y-75362380D01*
X58824761Y-75505238D01*
X58729523Y-75600476D01*
X58634285Y-75648095D01*
X58443809Y-75695714D01*
X58300952Y-75695714D01*
X58110476Y-75648095D01*
X58015238Y-75600476D01*
X57920000Y-75505238D01*
X57872380Y-75362380D01*
X57872380Y-75267142D01*
X57920000Y-75124285D01*
X57967619Y-75076666D01*
X58872380Y-74124285D02*
X58872380Y-74695714D01*
X58872380Y-74410000D02*
X57872380Y-74410000D01*
X58015238Y-74505238D01*
X58110476Y-74600476D01*
X58158095Y-74695714D01*
X67727142Y-52256666D02*
X67774761Y-52304285D01*
X67822380Y-52447142D01*
X67822380Y-52542380D01*
X67774761Y-52685238D01*
X67679523Y-52780476D01*
X67584285Y-52828095D01*
X67393809Y-52875714D01*
X67250952Y-52875714D01*
X67060476Y-52828095D01*
X66965238Y-52780476D01*
X66870000Y-52685238D01*
X66822380Y-52542380D01*
X66822380Y-52447142D01*
X66870000Y-52304285D01*
X66917619Y-52256666D01*
X66822380Y-51923333D02*
X66822380Y-51304285D01*
X67203333Y-51637619D01*
X67203333Y-51494761D01*
X67250952Y-51399523D01*
X67298571Y-51351904D01*
X67393809Y-51304285D01*
X67631904Y-51304285D01*
X67727142Y-51351904D01*
X67774761Y-51399523D01*
X67822380Y-51494761D01*
X67822380Y-51780476D01*
X67774761Y-51875714D01*
X67727142Y-51923333D01*
X46843333Y-13067142D02*
X46795714Y-13114761D01*
X46652857Y-13162380D01*
X46557619Y-13162380D01*
X46414761Y-13114761D01*
X46319523Y-13019523D01*
X46271904Y-12924285D01*
X46224285Y-12733809D01*
X46224285Y-12590952D01*
X46271904Y-12400476D01*
X46319523Y-12305238D01*
X46414761Y-12210000D01*
X46557619Y-12162380D01*
X46652857Y-12162380D01*
X46795714Y-12210000D01*
X46843333Y-12257619D01*
X47224285Y-12257619D02*
X47271904Y-12210000D01*
X47367142Y-12162380D01*
X47605238Y-12162380D01*
X47700476Y-12210000D01*
X47748095Y-12257619D01*
X47795714Y-12352857D01*
X47795714Y-12448095D01*
X47748095Y-12590952D01*
X47176666Y-13162380D01*
X47795714Y-13162380D01*
X89282380Y-71858095D02*
X88282380Y-71858095D01*
X88282380Y-71620000D01*
X88330000Y-71477142D01*
X88425238Y-71381904D01*
X88520476Y-71334285D01*
X88710952Y-71286666D01*
X88853809Y-71286666D01*
X89044285Y-71334285D01*
X89139523Y-71381904D01*
X89234761Y-71477142D01*
X89282380Y-71620000D01*
X89282380Y-71858095D01*
X89282380Y-70334285D02*
X89282380Y-70905714D01*
X89282380Y-70620000D02*
X88282380Y-70620000D01*
X88425238Y-70715238D01*
X88520476Y-70810476D01*
X88568095Y-70905714D01*
X88912380Y-66301904D02*
X87912380Y-66301904D01*
X88912380Y-65730476D02*
X88340952Y-66159047D01*
X87912380Y-65730476D02*
X88483809Y-66301904D01*
X62769761Y-42457619D02*
X62674523Y-42410000D01*
X62579285Y-42314761D01*
X62436428Y-42171904D01*
X62341190Y-42124285D01*
X62245952Y-42124285D01*
X62293571Y-42362380D02*
X62198333Y-42314761D01*
X62103095Y-42219523D01*
X62055476Y-42029047D01*
X62055476Y-41695714D01*
X62103095Y-41505238D01*
X62198333Y-41410000D01*
X62293571Y-41362380D01*
X62484047Y-41362380D01*
X62579285Y-41410000D01*
X62674523Y-41505238D01*
X62722142Y-41695714D01*
X62722142Y-42029047D01*
X62674523Y-42219523D01*
X62579285Y-42314761D01*
X62484047Y-42362380D01*
X62293571Y-42362380D01*
X63293571Y-41790952D02*
X63198333Y-41743333D01*
X63150714Y-41695714D01*
X63103095Y-41600476D01*
X63103095Y-41552857D01*
X63150714Y-41457619D01*
X63198333Y-41410000D01*
X63293571Y-41362380D01*
X63484047Y-41362380D01*
X63579285Y-41410000D01*
X63626904Y-41457619D01*
X63674523Y-41552857D01*
X63674523Y-41600476D01*
X63626904Y-41695714D01*
X63579285Y-41743333D01*
X63484047Y-41790952D01*
X63293571Y-41790952D01*
X63198333Y-41838571D01*
X63150714Y-41886190D01*
X63103095Y-41981428D01*
X63103095Y-42171904D01*
X63150714Y-42267142D01*
X63198333Y-42314761D01*
X63293571Y-42362380D01*
X63484047Y-42362380D01*
X63579285Y-42314761D01*
X63626904Y-42267142D01*
X63674523Y-42171904D01*
X63674523Y-41981428D01*
X63626904Y-41886190D01*
X63579285Y-41838571D01*
X63484047Y-41790952D01*
X62769761Y-37377619D02*
X62674523Y-37330000D01*
X62579285Y-37234761D01*
X62436428Y-37091904D01*
X62341190Y-37044285D01*
X62245952Y-37044285D01*
X62293571Y-37282380D02*
X62198333Y-37234761D01*
X62103095Y-37139523D01*
X62055476Y-36949047D01*
X62055476Y-36615714D01*
X62103095Y-36425238D01*
X62198333Y-36330000D01*
X62293571Y-36282380D01*
X62484047Y-36282380D01*
X62579285Y-36330000D01*
X62674523Y-36425238D01*
X62722142Y-36615714D01*
X62722142Y-36949047D01*
X62674523Y-37139523D01*
X62579285Y-37234761D01*
X62484047Y-37282380D01*
X62293571Y-37282380D01*
X63055476Y-36282380D02*
X63722142Y-36282380D01*
X63293571Y-37282380D01*
X80946666Y-75652380D02*
X80946666Y-76366666D01*
X80899047Y-76509523D01*
X80803809Y-76604761D01*
X80660952Y-76652380D01*
X80565714Y-76652380D01*
X81851428Y-75652380D02*
X81660952Y-75652380D01*
X81565714Y-75700000D01*
X81518095Y-75747619D01*
X81422857Y-75890476D01*
X81375238Y-76080952D01*
X81375238Y-76461904D01*
X81422857Y-76557142D01*
X81470476Y-76604761D01*
X81565714Y-76652380D01*
X81756190Y-76652380D01*
X81851428Y-76604761D01*
X81899047Y-76557142D01*
X81946666Y-76461904D01*
X81946666Y-76223809D01*
X81899047Y-76128571D01*
X81851428Y-76080952D01*
X81756190Y-76033333D01*
X81565714Y-76033333D01*
X81470476Y-76080952D01*
X81422857Y-76128571D01*
X81375238Y-76223809D01*
X60126666Y-69302380D02*
X60126666Y-70016666D01*
X60079047Y-70159523D01*
X59983809Y-70254761D01*
X59840952Y-70302380D01*
X59745714Y-70302380D01*
X60602857Y-70302380D02*
X60602857Y-69302380D01*
X60983809Y-69302380D01*
X61079047Y-69350000D01*
X61126666Y-69397619D01*
X61174285Y-69492857D01*
X61174285Y-69635714D01*
X61126666Y-69730952D01*
X61079047Y-69778571D01*
X60983809Y-69826190D01*
X60602857Y-69826190D01*
X62126666Y-70302380D02*
X61555238Y-70302380D01*
X61840952Y-70302380D02*
X61840952Y-69302380D01*
X61745714Y-69445238D01*
X61650476Y-69540476D01*
X61555238Y-69588095D01*
X-333334Y-10882380D02*
X-333334Y-11596666D01*
X-380953Y-11739523D01*
X-476191Y-11834761D01*
X-619048Y-11882380D01*
X-714286Y-11882380D01*
X571428Y-11215714D02*
X571428Y-11882380D01*
X333333Y-10834761D02*
X95238Y-11549047D01*
X714285Y-11549047D01*
X1916666Y-54284761D02*
X2059523Y-54332380D01*
X2297619Y-54332380D01*
X2392857Y-54284761D01*
X2440476Y-54237142D01*
X2488095Y-54141904D01*
X2488095Y-54046666D01*
X2440476Y-53951428D01*
X2392857Y-53903809D01*
X2297619Y-53856190D01*
X2107142Y-53808571D01*
X2011904Y-53760952D01*
X1964285Y-53713333D01*
X1916666Y-53618095D01*
X1916666Y-53522857D01*
X1964285Y-53427619D01*
X2011904Y-53380000D01*
X2107142Y-53332380D01*
X2345238Y-53332380D01*
X2488095Y-53380000D01*
X2821428Y-53332380D02*
X3059523Y-54332380D01*
X3250000Y-53618095D01*
X3440476Y-54332380D01*
X3678571Y-53332380D01*
X4011904Y-53427619D02*
X4059523Y-53380000D01*
X4154761Y-53332380D01*
X4392857Y-53332380D01*
X4488095Y-53380000D01*
X4535714Y-53427619D01*
X4583333Y-53522857D01*
X4583333Y-53618095D01*
X4535714Y-53760952D01*
X3964285Y-54332380D01*
X4583333Y-54332380D01*
X1916666Y-44124761D02*
X2059523Y-44172380D01*
X2297619Y-44172380D01*
X2392857Y-44124761D01*
X2440476Y-44077142D01*
X2488095Y-43981904D01*
X2488095Y-43886666D01*
X2440476Y-43791428D01*
X2392857Y-43743809D01*
X2297619Y-43696190D01*
X2107142Y-43648571D01*
X2011904Y-43600952D01*
X1964285Y-43553333D01*
X1916666Y-43458095D01*
X1916666Y-43362857D01*
X1964285Y-43267619D01*
X2011904Y-43220000D01*
X2107142Y-43172380D01*
X2345238Y-43172380D01*
X2488095Y-43220000D01*
X2821428Y-43172380D02*
X3059523Y-44172380D01*
X3250000Y-43458095D01*
X3440476Y-44172380D01*
X3678571Y-43172380D01*
X4583333Y-44172380D02*
X4011904Y-44172380D01*
X4297619Y-44172380D02*
X4297619Y-43172380D01*
X4202380Y-43315238D01*
X4107142Y-43410476D01*
X4011904Y-43458095D01*
X30456190Y-61436190D02*
X30932380Y-61436190D01*
X29932380Y-61769523D02*
X30456190Y-61436190D01*
X29932380Y-61102857D01*
X30932380Y-60245714D02*
X30932380Y-60817142D01*
X30932380Y-60531428D02*
X29932380Y-60531428D01*
X30075238Y-60626666D01*
X30170476Y-60721904D01*
X30218095Y-60817142D01*
X71628095Y-61682380D02*
X71628095Y-62491904D01*
X71675714Y-62587142D01*
X71723333Y-62634761D01*
X71818571Y-62682380D01*
X72009047Y-62682380D01*
X72104285Y-62634761D01*
X72151904Y-62587142D01*
X72199523Y-62491904D01*
X72199523Y-61682380D01*
X72580476Y-61682380D02*
X73199523Y-61682380D01*
X72866190Y-62063333D01*
X73009047Y-62063333D01*
X73104285Y-62110952D01*
X73151904Y-62158571D01*
X73199523Y-62253809D01*
X73199523Y-62491904D01*
X73151904Y-62587142D01*
X73104285Y-62634761D01*
X73009047Y-62682380D01*
X72723333Y-62682380D01*
X72628095Y-62634761D01*
X72580476Y-62587142D01*
X72898095Y-70572380D02*
X72898095Y-71381904D01*
X72945714Y-71477142D01*
X72993333Y-71524761D01*
X73088571Y-71572380D01*
X73279047Y-71572380D01*
X73374285Y-71524761D01*
X73421904Y-71477142D01*
X73469523Y-71381904D01*
X73469523Y-70572380D01*
X73898095Y-70667619D02*
X73945714Y-70620000D01*
X74040952Y-70572380D01*
X74279047Y-70572380D01*
X74374285Y-70620000D01*
X74421904Y-70667619D01*
X74469523Y-70762857D01*
X74469523Y-70858095D01*
X74421904Y-71000952D01*
X73850476Y-71572380D01*
X74469523Y-71572380D01*
X44958095Y-15962380D02*
X44958095Y-16771904D01*
X45005714Y-16867142D01*
X45053333Y-16914761D01*
X45148571Y-16962380D01*
X45339047Y-16962380D01*
X45434285Y-16914761D01*
X45481904Y-16867142D01*
X45529523Y-16771904D01*
X45529523Y-15962380D01*
X46529523Y-16962380D02*
X45958095Y-16962380D01*
X46243809Y-16962380D02*
X46243809Y-15962380D01*
X46148571Y-16105238D01*
X46053333Y-16200476D01*
X45958095Y-16248095D01*
X1916666Y-74604761D02*
X2059523Y-74652380D01*
X2297619Y-74652380D01*
X2392857Y-74604761D01*
X2440476Y-74557142D01*
X2488095Y-74461904D01*
X2488095Y-74366666D01*
X2440476Y-74271428D01*
X2392857Y-74223809D01*
X2297619Y-74176190D01*
X2107142Y-74128571D01*
X2011904Y-74080952D01*
X1964285Y-74033333D01*
X1916666Y-73938095D01*
X1916666Y-73842857D01*
X1964285Y-73747619D01*
X2011904Y-73700000D01*
X2107142Y-73652380D01*
X2345238Y-73652380D01*
X2488095Y-73700000D01*
X2821428Y-73652380D02*
X3059523Y-74652380D01*
X3250000Y-73938095D01*
X3440476Y-74652380D01*
X3678571Y-73652380D01*
X4488095Y-73985714D02*
X4488095Y-74652380D01*
X4250000Y-73604761D02*
X4011904Y-74319047D01*
X4630952Y-74319047D01*
X1916666Y-64444761D02*
X2059523Y-64492380D01*
X2297619Y-64492380D01*
X2392857Y-64444761D01*
X2440476Y-64397142D01*
X2488095Y-64301904D01*
X2488095Y-64206666D01*
X2440476Y-64111428D01*
X2392857Y-64063809D01*
X2297619Y-64016190D01*
X2107142Y-63968571D01*
X2011904Y-63920952D01*
X1964285Y-63873333D01*
X1916666Y-63778095D01*
X1916666Y-63682857D01*
X1964285Y-63587619D01*
X2011904Y-63540000D01*
X2107142Y-63492380D01*
X2345238Y-63492380D01*
X2488095Y-63540000D01*
X2821428Y-63492380D02*
X3059523Y-64492380D01*
X3250000Y-63778095D01*
X3440476Y-64492380D01*
X3678571Y-63492380D01*
X3964285Y-63492380D02*
X4583333Y-63492380D01*
X4250000Y-63873333D01*
X4392857Y-63873333D01*
X4488095Y-63920952D01*
X4535714Y-63968571D01*
X4583333Y-64063809D01*
X4583333Y-64301904D01*
X4535714Y-64397142D01*
X4488095Y-64444761D01*
X4392857Y-64492380D01*
X4107142Y-64492380D01*
X4011904Y-64444761D01*
X3964285Y-64397142D01*
X23312380Y-17946666D02*
X22836190Y-18280000D01*
X23312380Y-18518095D02*
X22312380Y-18518095D01*
X22312380Y-18137142D01*
X22360000Y-18041904D01*
X22407619Y-17994285D01*
X22502857Y-17946666D01*
X22645714Y-17946666D01*
X22740952Y-17994285D01*
X22788571Y-18041904D01*
X22836190Y-18137142D01*
X22836190Y-18518095D01*
X22740952Y-17375238D02*
X22693333Y-17470476D01*
X22645714Y-17518095D01*
X22550476Y-17565714D01*
X22502857Y-17565714D01*
X22407619Y-17518095D01*
X22360000Y-17470476D01*
X22312380Y-17375238D01*
X22312380Y-17184761D01*
X22360000Y-17089523D01*
X22407619Y-17041904D01*
X22502857Y-16994285D01*
X22550476Y-16994285D01*
X22645714Y-17041904D01*
X22693333Y-17089523D01*
X22740952Y-17184761D01*
X22740952Y-17375238D01*
X22788571Y-17470476D01*
X22836190Y-17518095D01*
X22931428Y-17565714D01*
X23121904Y-17565714D01*
X23217142Y-17518095D01*
X23264761Y-17470476D01*
X23312380Y-17375238D01*
X23312380Y-17184761D01*
X23264761Y-17089523D01*
X23217142Y-17041904D01*
X23121904Y-16994285D01*
X22931428Y-16994285D01*
X22836190Y-17041904D01*
X22788571Y-17089523D01*
X22740952Y-17184761D01*
X30932380Y-15406666D02*
X30456190Y-15740000D01*
X30932380Y-15978095D02*
X29932380Y-15978095D01*
X29932380Y-15597142D01*
X29980000Y-15501904D01*
X30027619Y-15454285D01*
X30122857Y-15406666D01*
X30265714Y-15406666D01*
X30360952Y-15454285D01*
X30408571Y-15501904D01*
X30456190Y-15597142D01*
X30456190Y-15978095D01*
X29932380Y-15073333D02*
X29932380Y-14406666D01*
X30932380Y-14835238D01*
X15692380Y-30646666D02*
X15216190Y-30980000D01*
X15692380Y-31218095D02*
X14692380Y-31218095D01*
X14692380Y-30837142D01*
X14740000Y-30741904D01*
X14787619Y-30694285D01*
X14882857Y-30646666D01*
X15025714Y-30646666D01*
X15120952Y-30694285D01*
X15168571Y-30741904D01*
X15216190Y-30837142D01*
X15216190Y-31218095D01*
X14692380Y-29789523D02*
X14692380Y-29980000D01*
X14740000Y-30075238D01*
X14787619Y-30122857D01*
X14930476Y-30218095D01*
X15120952Y-30265714D01*
X15501904Y-30265714D01*
X15597142Y-30218095D01*
X15644761Y-30170476D01*
X15692380Y-30075238D01*
X15692380Y-29884761D01*
X15644761Y-29789523D01*
X15597142Y-29741904D01*
X15501904Y-29694285D01*
X15263809Y-29694285D01*
X15168571Y-29741904D01*
X15120952Y-29789523D01*
X15073333Y-29884761D01*
X15073333Y-30075238D01*
X15120952Y-30170476D01*
X15168571Y-30218095D01*
X15263809Y-30265714D01*
X23312380Y-38266666D02*
X22836190Y-38600000D01*
X23312380Y-38838095D02*
X22312380Y-38838095D01*
X22312380Y-38457142D01*
X22360000Y-38361904D01*
X22407619Y-38314285D01*
X22502857Y-38266666D01*
X22645714Y-38266666D01*
X22740952Y-38314285D01*
X22788571Y-38361904D01*
X22836190Y-38457142D01*
X22836190Y-38838095D01*
X22312380Y-37361904D02*
X22312380Y-37838095D01*
X22788571Y-37885714D01*
X22740952Y-37838095D01*
X22693333Y-37742857D01*
X22693333Y-37504761D01*
X22740952Y-37409523D01*
X22788571Y-37361904D01*
X22883809Y-37314285D01*
X23121904Y-37314285D01*
X23217142Y-37361904D01*
X23264761Y-37409523D01*
X23312380Y-37504761D01*
X23312380Y-37742857D01*
X23264761Y-37838095D01*
X23217142Y-37885714D01*
X43013333Y-5532380D02*
X42680000Y-5056190D01*
X42441904Y-5532380D02*
X42441904Y-4532380D01*
X42822857Y-4532380D01*
X42918095Y-4580000D01*
X42965714Y-4627619D01*
X43013333Y-4722857D01*
X43013333Y-4865714D01*
X42965714Y-4960952D01*
X42918095Y-5008571D01*
X42822857Y-5056190D01*
X42441904Y-5056190D01*
X43965714Y-5532380D02*
X43394285Y-5532380D01*
X43680000Y-5532380D02*
X43680000Y-4532380D01*
X43584761Y-4675238D01*
X43489523Y-4770476D01*
X43394285Y-4818095D01*
X62769761Y-32297619D02*
X62674523Y-32250000D01*
X62579285Y-32154761D01*
X62436428Y-32011904D01*
X62341190Y-31964285D01*
X62245952Y-31964285D01*
X62293571Y-32202380D02*
X62198333Y-32154761D01*
X62103095Y-32059523D01*
X62055476Y-31869047D01*
X62055476Y-31535714D01*
X62103095Y-31345238D01*
X62198333Y-31250000D01*
X62293571Y-31202380D01*
X62484047Y-31202380D01*
X62579285Y-31250000D01*
X62674523Y-31345238D01*
X62722142Y-31535714D01*
X62722142Y-31869047D01*
X62674523Y-32059523D01*
X62579285Y-32154761D01*
X62484047Y-32202380D01*
X62293571Y-32202380D01*
X63579285Y-31202380D02*
X63388809Y-31202380D01*
X63293571Y-31250000D01*
X63245952Y-31297619D01*
X63150714Y-31440476D01*
X63103095Y-31630952D01*
X63103095Y-32011904D01*
X63150714Y-32107142D01*
X63198333Y-32154761D01*
X63293571Y-32202380D01*
X63484047Y-32202380D01*
X63579285Y-32154761D01*
X63626904Y-32107142D01*
X63674523Y-32011904D01*
X63674523Y-31773809D01*
X63626904Y-31678571D01*
X63579285Y-31630952D01*
X63484047Y-31583333D01*
X63293571Y-31583333D01*
X63198333Y-31630952D01*
X63150714Y-31678571D01*
X63103095Y-31773809D01*
X62769761Y-27217619D02*
X62674523Y-27170000D01*
X62579285Y-27074761D01*
X62436428Y-26931904D01*
X62341190Y-26884285D01*
X62245952Y-26884285D01*
X62293571Y-27122380D02*
X62198333Y-27074761D01*
X62103095Y-26979523D01*
X62055476Y-26789047D01*
X62055476Y-26455714D01*
X62103095Y-26265238D01*
X62198333Y-26170000D01*
X62293571Y-26122380D01*
X62484047Y-26122380D01*
X62579285Y-26170000D01*
X62674523Y-26265238D01*
X62722142Y-26455714D01*
X62722142Y-26789047D01*
X62674523Y-26979523D01*
X62579285Y-27074761D01*
X62484047Y-27122380D01*
X62293571Y-27122380D01*
X63626904Y-26122380D02*
X63150714Y-26122380D01*
X63103095Y-26598571D01*
X63150714Y-26550952D01*
X63245952Y-26503333D01*
X63484047Y-26503333D01*
X63579285Y-26550952D01*
X63626904Y-26598571D01*
X63674523Y-26693809D01*
X63674523Y-26931904D01*
X63626904Y-27027142D01*
X63579285Y-27074761D01*
X63484047Y-27122380D01*
X63245952Y-27122380D01*
X63150714Y-27074761D01*
X63103095Y-27027142D01*
X62769761Y-22137619D02*
X62674523Y-22090000D01*
X62579285Y-21994761D01*
X62436428Y-21851904D01*
X62341190Y-21804285D01*
X62245952Y-21804285D01*
X62293571Y-22042380D02*
X62198333Y-21994761D01*
X62103095Y-21899523D01*
X62055476Y-21709047D01*
X62055476Y-21375714D01*
X62103095Y-21185238D01*
X62198333Y-21090000D01*
X62293571Y-21042380D01*
X62484047Y-21042380D01*
X62579285Y-21090000D01*
X62674523Y-21185238D01*
X62722142Y-21375714D01*
X62722142Y-21709047D01*
X62674523Y-21899523D01*
X62579285Y-21994761D01*
X62484047Y-22042380D01*
X62293571Y-22042380D01*
X63579285Y-21375714D02*
X63579285Y-22042380D01*
X63341190Y-20994761D02*
X63103095Y-21709047D01*
X63722142Y-21709047D01*
X62769761Y-17057619D02*
X62674523Y-17010000D01*
X62579285Y-16914761D01*
X62436428Y-16771904D01*
X62341190Y-16724285D01*
X62245952Y-16724285D01*
X62293571Y-16962380D02*
X62198333Y-16914761D01*
X62103095Y-16819523D01*
X62055476Y-16629047D01*
X62055476Y-16295714D01*
X62103095Y-16105238D01*
X62198333Y-16010000D01*
X62293571Y-15962380D01*
X62484047Y-15962380D01*
X62579285Y-16010000D01*
X62674523Y-16105238D01*
X62722142Y-16295714D01*
X62722142Y-16629047D01*
X62674523Y-16819523D01*
X62579285Y-16914761D01*
X62484047Y-16962380D01*
X62293571Y-16962380D01*
X63055476Y-15962380D02*
X63674523Y-15962380D01*
X63341190Y-16343333D01*
X63484047Y-16343333D01*
X63579285Y-16390952D01*
X63626904Y-16438571D01*
X63674523Y-16533809D01*
X63674523Y-16771904D01*
X63626904Y-16867142D01*
X63579285Y-16914761D01*
X63484047Y-16962380D01*
X63198333Y-16962380D01*
X63103095Y-16914761D01*
X63055476Y-16867142D01*
X62769761Y-11977619D02*
X62674523Y-11930000D01*
X62579285Y-11834761D01*
X62436428Y-11691904D01*
X62341190Y-11644285D01*
X62245952Y-11644285D01*
X62293571Y-11882380D02*
X62198333Y-11834761D01*
X62103095Y-11739523D01*
X62055476Y-11549047D01*
X62055476Y-11215714D01*
X62103095Y-11025238D01*
X62198333Y-10930000D01*
X62293571Y-10882380D01*
X62484047Y-10882380D01*
X62579285Y-10930000D01*
X62674523Y-11025238D01*
X62722142Y-11215714D01*
X62722142Y-11549047D01*
X62674523Y-11739523D01*
X62579285Y-11834761D01*
X62484047Y-11882380D01*
X62293571Y-11882380D01*
X63103095Y-10977619D02*
X63150714Y-10930000D01*
X63245952Y-10882380D01*
X63484047Y-10882380D01*
X63579285Y-10930000D01*
X63626904Y-10977619D01*
X63674523Y-11072857D01*
X63674523Y-11168095D01*
X63626904Y-11310952D01*
X63055476Y-11882380D01*
X63674523Y-11882380D01*
X62769761Y-6897619D02*
X62674523Y-6850000D01*
X62579285Y-6754761D01*
X62436428Y-6611904D01*
X62341190Y-6564285D01*
X62245952Y-6564285D01*
X62293571Y-6802380D02*
X62198333Y-6754761D01*
X62103095Y-6659523D01*
X62055476Y-6469047D01*
X62055476Y-6135714D01*
X62103095Y-5945238D01*
X62198333Y-5850000D01*
X62293571Y-5802380D01*
X62484047Y-5802380D01*
X62579285Y-5850000D01*
X62674523Y-5945238D01*
X62722142Y-6135714D01*
X62722142Y-6469047D01*
X62674523Y-6659523D01*
X62579285Y-6754761D01*
X62484047Y-6802380D01*
X62293571Y-6802380D01*
X63674523Y-6802380D02*
X63103095Y-6802380D01*
X63388809Y-6802380D02*
X63388809Y-5802380D01*
X63293571Y-5945238D01*
X63198333Y-6040476D01*
X63103095Y-6088095D01*
X3476666Y-40092380D02*
X3476666Y-40806666D01*
X3429047Y-40949523D01*
X3333809Y-41044761D01*
X3190952Y-41092380D01*
X3095714Y-41092380D01*
X4429047Y-40092380D02*
X3952857Y-40092380D01*
X3905238Y-40568571D01*
X3952857Y-40520952D01*
X4048095Y-40473333D01*
X4286190Y-40473333D01*
X4381428Y-40520952D01*
X4429047Y-40568571D01*
X4476666Y-40663809D01*
X4476666Y-40901904D01*
X4429047Y-40997142D01*
X4381428Y-41044761D01*
X4286190Y-41092380D01*
X4048095Y-41092380D01*
X3952857Y-41044761D01*
X3905238Y-40997142D01*
X23507142Y-63367142D02*
X23459523Y-63414761D01*
X23316666Y-63462380D01*
X23221428Y-63462380D01*
X23078571Y-63414761D01*
X22983333Y-63319523D01*
X22935714Y-63224285D01*
X22888095Y-63033809D01*
X22888095Y-62890952D01*
X22935714Y-62700476D01*
X22983333Y-62605238D01*
X23078571Y-62510000D01*
X23221428Y-62462380D01*
X23316666Y-62462380D01*
X23459523Y-62510000D01*
X23507142Y-62557619D01*
X24459523Y-63462380D02*
X23888095Y-63462380D01*
X24173809Y-63462380D02*
X24173809Y-62462380D01*
X24078571Y-62605238D01*
X23983333Y-62700476D01*
X23888095Y-62748095D01*
X25411904Y-63462380D02*
X24840476Y-63462380D01*
X25126190Y-63462380D02*
X25126190Y-62462380D01*
X25030952Y-62605238D01*
X24935714Y-62700476D01*
X24840476Y-62748095D01*
X23507142Y-58287142D02*
X23459523Y-58334761D01*
X23316666Y-58382380D01*
X23221428Y-58382380D01*
X23078571Y-58334761D01*
X22983333Y-58239523D01*
X22935714Y-58144285D01*
X22888095Y-57953809D01*
X22888095Y-57810952D01*
X22935714Y-57620476D01*
X22983333Y-57525238D01*
X23078571Y-57430000D01*
X23221428Y-57382380D01*
X23316666Y-57382380D01*
X23459523Y-57430000D01*
X23507142Y-57477619D01*
X24459523Y-58382380D02*
X23888095Y-58382380D01*
X24173809Y-58382380D02*
X24173809Y-57382380D01*
X24078571Y-57525238D01*
X23983333Y-57620476D01*
X23888095Y-57668095D01*
X25078571Y-57382380D02*
X25173809Y-57382380D01*
X25269047Y-57430000D01*
X25316666Y-57477619D01*
X25364285Y-57572857D01*
X25411904Y-57763333D01*
X25411904Y-58001428D01*
X25364285Y-58191904D01*
X25316666Y-58287142D01*
X25269047Y-58334761D01*
X25173809Y-58382380D01*
X25078571Y-58382380D01*
X24983333Y-58334761D01*
X24935714Y-58287142D01*
X24888095Y-58191904D01*
X24840476Y-58001428D01*
X24840476Y-57763333D01*
X24888095Y-57572857D01*
X24935714Y-57477619D01*
X24983333Y-57430000D01*
X25078571Y-57382380D01*
X19347142Y-42056666D02*
X19394761Y-42104285D01*
X19442380Y-42247142D01*
X19442380Y-42342380D01*
X19394761Y-42485238D01*
X19299523Y-42580476D01*
X19204285Y-42628095D01*
X19013809Y-42675714D01*
X18870952Y-42675714D01*
X18680476Y-42628095D01*
X18585238Y-42580476D01*
X18490000Y-42485238D01*
X18442380Y-42342380D01*
X18442380Y-42247142D01*
X18490000Y-42104285D01*
X18537619Y-42056666D01*
X18442380Y-41199523D02*
X18442380Y-41390000D01*
X18490000Y-41485238D01*
X18537619Y-41532857D01*
X18680476Y-41628095D01*
X18870952Y-41675714D01*
X19251904Y-41675714D01*
X19347142Y-41628095D01*
X19394761Y-41580476D01*
X19442380Y-41485238D01*
X19442380Y-41294761D01*
X19394761Y-41199523D01*
X19347142Y-41151904D01*
X19251904Y-41104285D01*
X19013809Y-41104285D01*
X18918571Y-41151904D01*
X18870952Y-41199523D01*
X18823333Y-41294761D01*
X18823333Y-41485238D01*
X18870952Y-41580476D01*
X18918571Y-41628095D01*
X19013809Y-41675714D01*
X26967142Y-26816666D02*
X27014761Y-26864285D01*
X27062380Y-27007142D01*
X27062380Y-27102380D01*
X27014761Y-27245238D01*
X26919523Y-27340476D01*
X26824285Y-27388095D01*
X26633809Y-27435714D01*
X26490952Y-27435714D01*
X26300476Y-27388095D01*
X26205238Y-27340476D01*
X26110000Y-27245238D01*
X26062380Y-27102380D01*
X26062380Y-27007142D01*
X26110000Y-26864285D01*
X26157619Y-26816666D01*
X26062380Y-25911904D02*
X26062380Y-26388095D01*
X26538571Y-26435714D01*
X26490952Y-26388095D01*
X26443333Y-26292857D01*
X26443333Y-26054761D01*
X26490952Y-25959523D01*
X26538571Y-25911904D01*
X26633809Y-25864285D01*
X26871904Y-25864285D01*
X26967142Y-25911904D01*
X27014761Y-25959523D01*
X27062380Y-26054761D01*
X27062380Y-26292857D01*
X27014761Y-26388095D01*
X26967142Y-26435714D01*
M02*
