G04 #@! TF.GenerationSoftware,KiCad,Pcbnew,5.1.5-5.1.5*
G04 #@! TF.CreationDate,2020-09-06T13:46:37+10:00*
G04 #@! TF.ProjectId,89c52board,38396335-3262-46f6-9172-642e6b696361,rev?*
G04 #@! TF.SameCoordinates,PX48ab840PY18392c0*
G04 #@! TF.FileFunction,Soldermask,Bot*
G04 #@! TF.FilePolarity,Negative*
%FSLAX46Y46*%
G04 Gerber Fmt 4.6, Leading zero omitted, Abs format (unit mm)*
G04 Created by KiCad (PCBNEW 5.1.5-5.1.5) date 2020-09-06 13:46:37*
%MOMM*%
%LPD*%
G04 APERTURE LIST*
%ADD10C,0.100000*%
G04 APERTURE END LIST*
D10*
G36*
X74108903Y-86643213D02*
G01*
X74331177Y-86687426D01*
X74749932Y-86860880D01*
X75126802Y-87112696D01*
X75447304Y-87433198D01*
X75699120Y-87810068D01*
X75872574Y-88228823D01*
X75961000Y-88673371D01*
X75961000Y-89126629D01*
X75872574Y-89571177D01*
X75699120Y-89989932D01*
X75447304Y-90366802D01*
X75126802Y-90687304D01*
X74749932Y-90939120D01*
X74331177Y-91112574D01*
X74108903Y-91156787D01*
X73886630Y-91201000D01*
X73433370Y-91201000D01*
X73211097Y-91156787D01*
X72988823Y-91112574D01*
X72570068Y-90939120D01*
X72193198Y-90687304D01*
X71872696Y-90366802D01*
X71620880Y-89989932D01*
X71447426Y-89571177D01*
X71359000Y-89126629D01*
X71359000Y-88673371D01*
X71447426Y-88228823D01*
X71620880Y-87810068D01*
X71872696Y-87433198D01*
X72193198Y-87112696D01*
X72570068Y-86860880D01*
X72988823Y-86687426D01*
X73211097Y-86643213D01*
X73433370Y-86599000D01*
X73886630Y-86599000D01*
X74108903Y-86643213D01*
G37*
G36*
X89425331Y-87168211D02*
G01*
X89753092Y-87303974D01*
X90048070Y-87501072D01*
X90298928Y-87751930D01*
X90496026Y-88046908D01*
X90631789Y-88374669D01*
X90701000Y-88722616D01*
X90701000Y-89077384D01*
X90631789Y-89425331D01*
X90496026Y-89753092D01*
X90298928Y-90048070D01*
X90048070Y-90298928D01*
X89753092Y-90496026D01*
X89425331Y-90631789D01*
X89077384Y-90701000D01*
X88722616Y-90701000D01*
X88374669Y-90631789D01*
X88046908Y-90496026D01*
X87751930Y-90298928D01*
X87501072Y-90048070D01*
X87303974Y-89753092D01*
X87168211Y-89425331D01*
X87099000Y-89077384D01*
X87099000Y-88722616D01*
X87168211Y-88374669D01*
X87303974Y-88046908D01*
X87501072Y-87751930D01*
X87751930Y-87501072D01*
X88046908Y-87303974D01*
X88374669Y-87168211D01*
X88722616Y-87099000D01*
X89077384Y-87099000D01*
X89425331Y-87168211D01*
G37*
G36*
X525331Y-87168211D02*
G01*
X853092Y-87303974D01*
X1148070Y-87501072D01*
X1398928Y-87751930D01*
X1596026Y-88046908D01*
X1731789Y-88374669D01*
X1801000Y-88722616D01*
X1801000Y-89077384D01*
X1731789Y-89425331D01*
X1596026Y-89753092D01*
X1398928Y-90048070D01*
X1148070Y-90298928D01*
X853092Y-90496026D01*
X525331Y-90631789D01*
X177384Y-90701000D01*
X-177384Y-90701000D01*
X-525331Y-90631789D01*
X-853092Y-90496026D01*
X-1148070Y-90298928D01*
X-1398928Y-90048070D01*
X-1596026Y-89753092D01*
X-1731789Y-89425331D01*
X-1801000Y-89077384D01*
X-1801000Y-88722616D01*
X-1731789Y-88374669D01*
X-1596026Y-88046908D01*
X-1398928Y-87751930D01*
X-1148070Y-87501072D01*
X-853092Y-87303974D01*
X-525331Y-87168211D01*
X-177384Y-87099000D01*
X177384Y-87099000D01*
X525331Y-87168211D01*
G37*
G36*
X40753512Y-88003927D02*
G01*
X40902812Y-88033624D01*
X41066784Y-88101544D01*
X41214354Y-88200147D01*
X41339853Y-88325646D01*
X41438456Y-88473216D01*
X41506376Y-88637188D01*
X41541000Y-88811259D01*
X41541000Y-88988741D01*
X41506376Y-89162812D01*
X41438456Y-89326784D01*
X41339853Y-89474354D01*
X41214354Y-89599853D01*
X41066784Y-89698456D01*
X40902812Y-89766376D01*
X40753512Y-89796073D01*
X40728742Y-89801000D01*
X40551258Y-89801000D01*
X40526488Y-89796073D01*
X40377188Y-89766376D01*
X40213216Y-89698456D01*
X40065646Y-89599853D01*
X39940147Y-89474354D01*
X39841544Y-89326784D01*
X39773624Y-89162812D01*
X39739000Y-88988741D01*
X39739000Y-88811259D01*
X39773624Y-88637188D01*
X39841544Y-88473216D01*
X39940147Y-88325646D01*
X40065646Y-88200147D01*
X40213216Y-88101544D01*
X40377188Y-88033624D01*
X40526488Y-88003927D01*
X40551258Y-87999000D01*
X40728742Y-87999000D01*
X40753512Y-88003927D01*
G37*
G36*
X48373512Y-88003927D02*
G01*
X48522812Y-88033624D01*
X48686784Y-88101544D01*
X48834354Y-88200147D01*
X48959853Y-88325646D01*
X49058456Y-88473216D01*
X49126376Y-88637188D01*
X49161000Y-88811259D01*
X49161000Y-88988741D01*
X49126376Y-89162812D01*
X49058456Y-89326784D01*
X48959853Y-89474354D01*
X48834354Y-89599853D01*
X48686784Y-89698456D01*
X48522812Y-89766376D01*
X48373512Y-89796073D01*
X48348742Y-89801000D01*
X48171258Y-89801000D01*
X48146488Y-89796073D01*
X47997188Y-89766376D01*
X47833216Y-89698456D01*
X47685646Y-89599853D01*
X47560147Y-89474354D01*
X47461544Y-89326784D01*
X47393624Y-89162812D01*
X47359000Y-88988741D01*
X47359000Y-88811259D01*
X47393624Y-88637188D01*
X47461544Y-88473216D01*
X47560147Y-88325646D01*
X47685646Y-88200147D01*
X47833216Y-88101544D01*
X47997188Y-88033624D01*
X48146488Y-88003927D01*
X48171258Y-87999000D01*
X48348742Y-87999000D01*
X48373512Y-88003927D01*
G37*
G36*
X45833512Y-88003927D02*
G01*
X45982812Y-88033624D01*
X46146784Y-88101544D01*
X46294354Y-88200147D01*
X46419853Y-88325646D01*
X46518456Y-88473216D01*
X46586376Y-88637188D01*
X46621000Y-88811259D01*
X46621000Y-88988741D01*
X46586376Y-89162812D01*
X46518456Y-89326784D01*
X46419853Y-89474354D01*
X46294354Y-89599853D01*
X46146784Y-89698456D01*
X45982812Y-89766376D01*
X45833512Y-89796073D01*
X45808742Y-89801000D01*
X45631258Y-89801000D01*
X45606488Y-89796073D01*
X45457188Y-89766376D01*
X45293216Y-89698456D01*
X45145646Y-89599853D01*
X45020147Y-89474354D01*
X44921544Y-89326784D01*
X44853624Y-89162812D01*
X44819000Y-88988741D01*
X44819000Y-88811259D01*
X44853624Y-88637188D01*
X44921544Y-88473216D01*
X45020147Y-88325646D01*
X45145646Y-88200147D01*
X45293216Y-88101544D01*
X45457188Y-88033624D01*
X45606488Y-88003927D01*
X45631258Y-87999000D01*
X45808742Y-87999000D01*
X45833512Y-88003927D01*
G37*
G36*
X43293512Y-88003927D02*
G01*
X43442812Y-88033624D01*
X43606784Y-88101544D01*
X43754354Y-88200147D01*
X43879853Y-88325646D01*
X43978456Y-88473216D01*
X44046376Y-88637188D01*
X44081000Y-88811259D01*
X44081000Y-88988741D01*
X44046376Y-89162812D01*
X43978456Y-89326784D01*
X43879853Y-89474354D01*
X43754354Y-89599853D01*
X43606784Y-89698456D01*
X43442812Y-89766376D01*
X43293512Y-89796073D01*
X43268742Y-89801000D01*
X43091258Y-89801000D01*
X43066488Y-89796073D01*
X42917188Y-89766376D01*
X42753216Y-89698456D01*
X42605646Y-89599853D01*
X42480147Y-89474354D01*
X42381544Y-89326784D01*
X42313624Y-89162812D01*
X42279000Y-88988741D01*
X42279000Y-88811259D01*
X42313624Y-88637188D01*
X42381544Y-88473216D01*
X42480147Y-88325646D01*
X42605646Y-88200147D01*
X42753216Y-88101544D01*
X42917188Y-88033624D01*
X43066488Y-88003927D01*
X43091258Y-87999000D01*
X43268742Y-87999000D01*
X43293512Y-88003927D01*
G37*
G36*
X50913512Y-88003927D02*
G01*
X51062812Y-88033624D01*
X51226784Y-88101544D01*
X51374354Y-88200147D01*
X51499853Y-88325646D01*
X51598456Y-88473216D01*
X51666376Y-88637188D01*
X51701000Y-88811259D01*
X51701000Y-88988741D01*
X51666376Y-89162812D01*
X51598456Y-89326784D01*
X51499853Y-89474354D01*
X51374354Y-89599853D01*
X51226784Y-89698456D01*
X51062812Y-89766376D01*
X50913512Y-89796073D01*
X50888742Y-89801000D01*
X50711258Y-89801000D01*
X50686488Y-89796073D01*
X50537188Y-89766376D01*
X50373216Y-89698456D01*
X50225646Y-89599853D01*
X50100147Y-89474354D01*
X50001544Y-89326784D01*
X49933624Y-89162812D01*
X49899000Y-88988741D01*
X49899000Y-88811259D01*
X49933624Y-88637188D01*
X50001544Y-88473216D01*
X50100147Y-88325646D01*
X50225646Y-88200147D01*
X50373216Y-88101544D01*
X50537188Y-88033624D01*
X50686488Y-88003927D01*
X50711258Y-87999000D01*
X50888742Y-87999000D01*
X50913512Y-88003927D01*
G37*
G36*
X38213512Y-88003927D02*
G01*
X38362812Y-88033624D01*
X38526784Y-88101544D01*
X38674354Y-88200147D01*
X38799853Y-88325646D01*
X38898456Y-88473216D01*
X38966376Y-88637188D01*
X39001000Y-88811259D01*
X39001000Y-88988741D01*
X38966376Y-89162812D01*
X38898456Y-89326784D01*
X38799853Y-89474354D01*
X38674354Y-89599853D01*
X38526784Y-89698456D01*
X38362812Y-89766376D01*
X38213512Y-89796073D01*
X38188742Y-89801000D01*
X38011258Y-89801000D01*
X37986488Y-89796073D01*
X37837188Y-89766376D01*
X37673216Y-89698456D01*
X37525646Y-89599853D01*
X37400147Y-89474354D01*
X37301544Y-89326784D01*
X37233624Y-89162812D01*
X37199000Y-88988741D01*
X37199000Y-88811259D01*
X37233624Y-88637188D01*
X37301544Y-88473216D01*
X37400147Y-88325646D01*
X37525646Y-88200147D01*
X37673216Y-88101544D01*
X37837188Y-88033624D01*
X37986488Y-88003927D01*
X38011258Y-87999000D01*
X38188742Y-87999000D01*
X38213512Y-88003927D01*
G37*
G36*
X33133512Y-88003927D02*
G01*
X33282812Y-88033624D01*
X33446784Y-88101544D01*
X33594354Y-88200147D01*
X33719853Y-88325646D01*
X33818456Y-88473216D01*
X33886376Y-88637188D01*
X33921000Y-88811259D01*
X33921000Y-88988741D01*
X33886376Y-89162812D01*
X33818456Y-89326784D01*
X33719853Y-89474354D01*
X33594354Y-89599853D01*
X33446784Y-89698456D01*
X33282812Y-89766376D01*
X33133512Y-89796073D01*
X33108742Y-89801000D01*
X32931258Y-89801000D01*
X32906488Y-89796073D01*
X32757188Y-89766376D01*
X32593216Y-89698456D01*
X32445646Y-89599853D01*
X32320147Y-89474354D01*
X32221544Y-89326784D01*
X32153624Y-89162812D01*
X32119000Y-88988741D01*
X32119000Y-88811259D01*
X32153624Y-88637188D01*
X32221544Y-88473216D01*
X32320147Y-88325646D01*
X32445646Y-88200147D01*
X32593216Y-88101544D01*
X32757188Y-88033624D01*
X32906488Y-88003927D01*
X32931258Y-87999000D01*
X33108742Y-87999000D01*
X33133512Y-88003927D01*
G37*
G36*
X35673512Y-88003927D02*
G01*
X35822812Y-88033624D01*
X35986784Y-88101544D01*
X36134354Y-88200147D01*
X36259853Y-88325646D01*
X36358456Y-88473216D01*
X36426376Y-88637188D01*
X36461000Y-88811259D01*
X36461000Y-88988741D01*
X36426376Y-89162812D01*
X36358456Y-89326784D01*
X36259853Y-89474354D01*
X36134354Y-89599853D01*
X35986784Y-89698456D01*
X35822812Y-89766376D01*
X35673512Y-89796073D01*
X35648742Y-89801000D01*
X35471258Y-89801000D01*
X35446488Y-89796073D01*
X35297188Y-89766376D01*
X35133216Y-89698456D01*
X34985646Y-89599853D01*
X34860147Y-89474354D01*
X34761544Y-89326784D01*
X34693624Y-89162812D01*
X34659000Y-88988741D01*
X34659000Y-88811259D01*
X34693624Y-88637188D01*
X34761544Y-88473216D01*
X34860147Y-88325646D01*
X34985646Y-88200147D01*
X35133216Y-88101544D01*
X35297188Y-88033624D01*
X35446488Y-88003927D01*
X35471258Y-87999000D01*
X35648742Y-87999000D01*
X35673512Y-88003927D01*
G37*
G36*
X58533512Y-88003927D02*
G01*
X58682812Y-88033624D01*
X58846784Y-88101544D01*
X58994354Y-88200147D01*
X59119853Y-88325646D01*
X59218456Y-88473216D01*
X59286376Y-88637188D01*
X59321000Y-88811259D01*
X59321000Y-88988741D01*
X59286376Y-89162812D01*
X59218456Y-89326784D01*
X59119853Y-89474354D01*
X58994354Y-89599853D01*
X58846784Y-89698456D01*
X58682812Y-89766376D01*
X58533512Y-89796073D01*
X58508742Y-89801000D01*
X58331258Y-89801000D01*
X58306488Y-89796073D01*
X58157188Y-89766376D01*
X57993216Y-89698456D01*
X57845646Y-89599853D01*
X57720147Y-89474354D01*
X57621544Y-89326784D01*
X57553624Y-89162812D01*
X57519000Y-88988741D01*
X57519000Y-88811259D01*
X57553624Y-88637188D01*
X57621544Y-88473216D01*
X57720147Y-88325646D01*
X57845646Y-88200147D01*
X57993216Y-88101544D01*
X58157188Y-88033624D01*
X58306488Y-88003927D01*
X58331258Y-87999000D01*
X58508742Y-87999000D01*
X58533512Y-88003927D01*
G37*
G36*
X55993512Y-88003927D02*
G01*
X56142812Y-88033624D01*
X56306784Y-88101544D01*
X56454354Y-88200147D01*
X56579853Y-88325646D01*
X56678456Y-88473216D01*
X56746376Y-88637188D01*
X56781000Y-88811259D01*
X56781000Y-88988741D01*
X56746376Y-89162812D01*
X56678456Y-89326784D01*
X56579853Y-89474354D01*
X56454354Y-89599853D01*
X56306784Y-89698456D01*
X56142812Y-89766376D01*
X55993512Y-89796073D01*
X55968742Y-89801000D01*
X55791258Y-89801000D01*
X55766488Y-89796073D01*
X55617188Y-89766376D01*
X55453216Y-89698456D01*
X55305646Y-89599853D01*
X55180147Y-89474354D01*
X55081544Y-89326784D01*
X55013624Y-89162812D01*
X54979000Y-88988741D01*
X54979000Y-88811259D01*
X55013624Y-88637188D01*
X55081544Y-88473216D01*
X55180147Y-88325646D01*
X55305646Y-88200147D01*
X55453216Y-88101544D01*
X55617188Y-88033624D01*
X55766488Y-88003927D01*
X55791258Y-87999000D01*
X55968742Y-87999000D01*
X55993512Y-88003927D01*
G37*
G36*
X53453512Y-88003927D02*
G01*
X53602812Y-88033624D01*
X53766784Y-88101544D01*
X53914354Y-88200147D01*
X54039853Y-88325646D01*
X54138456Y-88473216D01*
X54206376Y-88637188D01*
X54241000Y-88811259D01*
X54241000Y-88988741D01*
X54206376Y-89162812D01*
X54138456Y-89326784D01*
X54039853Y-89474354D01*
X53914354Y-89599853D01*
X53766784Y-89698456D01*
X53602812Y-89766376D01*
X53453512Y-89796073D01*
X53428742Y-89801000D01*
X53251258Y-89801000D01*
X53226488Y-89796073D01*
X53077188Y-89766376D01*
X52913216Y-89698456D01*
X52765646Y-89599853D01*
X52640147Y-89474354D01*
X52541544Y-89326784D01*
X52473624Y-89162812D01*
X52439000Y-88988741D01*
X52439000Y-88811259D01*
X52473624Y-88637188D01*
X52541544Y-88473216D01*
X52640147Y-88325646D01*
X52765646Y-88200147D01*
X52913216Y-88101544D01*
X53077188Y-88033624D01*
X53226488Y-88003927D01*
X53251258Y-87999000D01*
X53428742Y-87999000D01*
X53453512Y-88003927D01*
G37*
G36*
X31381000Y-89801000D02*
G01*
X29579000Y-89801000D01*
X29579000Y-87999000D01*
X31381000Y-87999000D01*
X31381000Y-89801000D01*
G37*
G36*
X48508228Y-80461703D02*
G01*
X48663100Y-80525853D01*
X48802481Y-80618985D01*
X48921015Y-80737519D01*
X49014147Y-80876900D01*
X49078297Y-81031772D01*
X49111000Y-81196184D01*
X49111000Y-81363816D01*
X49078297Y-81528228D01*
X49014147Y-81683100D01*
X48921015Y-81822481D01*
X48802481Y-81941015D01*
X48663100Y-82034147D01*
X48508228Y-82098297D01*
X48343816Y-82131000D01*
X48176184Y-82131000D01*
X48011772Y-82098297D01*
X47856900Y-82034147D01*
X47717519Y-81941015D01*
X47598985Y-81822481D01*
X47505853Y-81683100D01*
X47441703Y-81528228D01*
X47409000Y-81363816D01*
X47409000Y-81196184D01*
X47441703Y-81031772D01*
X47505853Y-80876900D01*
X47598985Y-80737519D01*
X47717519Y-80618985D01*
X47856900Y-80525853D01*
X48011772Y-80461703D01*
X48176184Y-80429000D01*
X48343816Y-80429000D01*
X48508228Y-80461703D01*
G37*
G36*
X30728228Y-80461703D02*
G01*
X30883100Y-80525853D01*
X31022481Y-80618985D01*
X31141015Y-80737519D01*
X31234147Y-80876900D01*
X31298297Y-81031772D01*
X31331000Y-81196184D01*
X31331000Y-81363816D01*
X31298297Y-81528228D01*
X31234147Y-81683100D01*
X31141015Y-81822481D01*
X31022481Y-81941015D01*
X30883100Y-82034147D01*
X30728228Y-82098297D01*
X30563816Y-82131000D01*
X30396184Y-82131000D01*
X30231772Y-82098297D01*
X30076900Y-82034147D01*
X29937519Y-81941015D01*
X29818985Y-81822481D01*
X29725853Y-81683100D01*
X29661703Y-81528228D01*
X29629000Y-81363816D01*
X29629000Y-81196184D01*
X29661703Y-81031772D01*
X29725853Y-80876900D01*
X29818985Y-80737519D01*
X29937519Y-80618985D01*
X30076900Y-80525853D01*
X30231772Y-80461703D01*
X30396184Y-80429000D01*
X30563816Y-80429000D01*
X30728228Y-80461703D01*
G37*
G36*
X51651000Y-82131000D02*
G01*
X49949000Y-82131000D01*
X49949000Y-80429000D01*
X51651000Y-80429000D01*
X51651000Y-82131000D01*
G37*
G36*
X35808228Y-80461703D02*
G01*
X35963100Y-80525853D01*
X36102481Y-80618985D01*
X36221015Y-80737519D01*
X36314147Y-80876900D01*
X36378297Y-81031772D01*
X36411000Y-81196184D01*
X36411000Y-81363816D01*
X36378297Y-81528228D01*
X36314147Y-81683100D01*
X36221015Y-81822481D01*
X36102481Y-81941015D01*
X35963100Y-82034147D01*
X35808228Y-82098297D01*
X35643816Y-82131000D01*
X35476184Y-82131000D01*
X35311772Y-82098297D01*
X35156900Y-82034147D01*
X35017519Y-81941015D01*
X34898985Y-81822481D01*
X34805853Y-81683100D01*
X34741703Y-81528228D01*
X34709000Y-81363816D01*
X34709000Y-81196184D01*
X34741703Y-81031772D01*
X34805853Y-80876900D01*
X34898985Y-80737519D01*
X35017519Y-80618985D01*
X35156900Y-80525853D01*
X35311772Y-80461703D01*
X35476184Y-80429000D01*
X35643816Y-80429000D01*
X35808228Y-80461703D01*
G37*
G36*
X38348228Y-80461703D02*
G01*
X38503100Y-80525853D01*
X38642481Y-80618985D01*
X38761015Y-80737519D01*
X38854147Y-80876900D01*
X38918297Y-81031772D01*
X38951000Y-81196184D01*
X38951000Y-81363816D01*
X38918297Y-81528228D01*
X38854147Y-81683100D01*
X38761015Y-81822481D01*
X38642481Y-81941015D01*
X38503100Y-82034147D01*
X38348228Y-82098297D01*
X38183816Y-82131000D01*
X38016184Y-82131000D01*
X37851772Y-82098297D01*
X37696900Y-82034147D01*
X37557519Y-81941015D01*
X37438985Y-81822481D01*
X37345853Y-81683100D01*
X37281703Y-81528228D01*
X37249000Y-81363816D01*
X37249000Y-81196184D01*
X37281703Y-81031772D01*
X37345853Y-80876900D01*
X37438985Y-80737519D01*
X37557519Y-80618985D01*
X37696900Y-80525853D01*
X37851772Y-80461703D01*
X38016184Y-80429000D01*
X38183816Y-80429000D01*
X38348228Y-80461703D01*
G37*
G36*
X40888228Y-80461703D02*
G01*
X41043100Y-80525853D01*
X41182481Y-80618985D01*
X41301015Y-80737519D01*
X41394147Y-80876900D01*
X41458297Y-81031772D01*
X41491000Y-81196184D01*
X41491000Y-81363816D01*
X41458297Y-81528228D01*
X41394147Y-81683100D01*
X41301015Y-81822481D01*
X41182481Y-81941015D01*
X41043100Y-82034147D01*
X40888228Y-82098297D01*
X40723816Y-82131000D01*
X40556184Y-82131000D01*
X40391772Y-82098297D01*
X40236900Y-82034147D01*
X40097519Y-81941015D01*
X39978985Y-81822481D01*
X39885853Y-81683100D01*
X39821703Y-81528228D01*
X39789000Y-81363816D01*
X39789000Y-81196184D01*
X39821703Y-81031772D01*
X39885853Y-80876900D01*
X39978985Y-80737519D01*
X40097519Y-80618985D01*
X40236900Y-80525853D01*
X40391772Y-80461703D01*
X40556184Y-80429000D01*
X40723816Y-80429000D01*
X40888228Y-80461703D01*
G37*
G36*
X45968228Y-80461703D02*
G01*
X46123100Y-80525853D01*
X46262481Y-80618985D01*
X46381015Y-80737519D01*
X46474147Y-80876900D01*
X46538297Y-81031772D01*
X46571000Y-81196184D01*
X46571000Y-81363816D01*
X46538297Y-81528228D01*
X46474147Y-81683100D01*
X46381015Y-81822481D01*
X46262481Y-81941015D01*
X46123100Y-82034147D01*
X45968228Y-82098297D01*
X45803816Y-82131000D01*
X45636184Y-82131000D01*
X45471772Y-82098297D01*
X45316900Y-82034147D01*
X45177519Y-81941015D01*
X45058985Y-81822481D01*
X44965853Y-81683100D01*
X44901703Y-81528228D01*
X44869000Y-81363816D01*
X44869000Y-81196184D01*
X44901703Y-81031772D01*
X44965853Y-80876900D01*
X45058985Y-80737519D01*
X45177519Y-80618985D01*
X45316900Y-80525853D01*
X45471772Y-80461703D01*
X45636184Y-80429000D01*
X45803816Y-80429000D01*
X45968228Y-80461703D01*
G37*
G36*
X43428228Y-80461703D02*
G01*
X43583100Y-80525853D01*
X43722481Y-80618985D01*
X43841015Y-80737519D01*
X43934147Y-80876900D01*
X43998297Y-81031772D01*
X44031000Y-81196184D01*
X44031000Y-81363816D01*
X43998297Y-81528228D01*
X43934147Y-81683100D01*
X43841015Y-81822481D01*
X43722481Y-81941015D01*
X43583100Y-82034147D01*
X43428228Y-82098297D01*
X43263816Y-82131000D01*
X43096184Y-82131000D01*
X42931772Y-82098297D01*
X42776900Y-82034147D01*
X42637519Y-81941015D01*
X42518985Y-81822481D01*
X42425853Y-81683100D01*
X42361703Y-81528228D01*
X42329000Y-81363816D01*
X42329000Y-81196184D01*
X42361703Y-81031772D01*
X42425853Y-80876900D01*
X42518985Y-80737519D01*
X42637519Y-80618985D01*
X42776900Y-80525853D01*
X42931772Y-80461703D01*
X43096184Y-80429000D01*
X43263816Y-80429000D01*
X43428228Y-80461703D01*
G37*
G36*
X33268228Y-80461703D02*
G01*
X33423100Y-80525853D01*
X33562481Y-80618985D01*
X33681015Y-80737519D01*
X33774147Y-80876900D01*
X33838297Y-81031772D01*
X33871000Y-81196184D01*
X33871000Y-81363816D01*
X33838297Y-81528228D01*
X33774147Y-81683100D01*
X33681015Y-81822481D01*
X33562481Y-81941015D01*
X33423100Y-82034147D01*
X33268228Y-82098297D01*
X33103816Y-82131000D01*
X32936184Y-82131000D01*
X32771772Y-82098297D01*
X32616900Y-82034147D01*
X32477519Y-81941015D01*
X32358985Y-81822481D01*
X32265853Y-81683100D01*
X32201703Y-81528228D01*
X32169000Y-81363816D01*
X32169000Y-81196184D01*
X32201703Y-81031772D01*
X32265853Y-80876900D01*
X32358985Y-80737519D01*
X32477519Y-80618985D01*
X32616900Y-80525853D01*
X32771772Y-80461703D01*
X32936184Y-80429000D01*
X33103816Y-80429000D01*
X33268228Y-80461703D01*
G37*
G36*
X6806564Y-79689389D02*
G01*
X6997833Y-79768615D01*
X6997835Y-79768616D01*
X7169973Y-79883635D01*
X7316365Y-80030027D01*
X7431385Y-80202167D01*
X7510611Y-80393436D01*
X7551000Y-80596484D01*
X7551000Y-80803516D01*
X7510611Y-81006564D01*
X7431385Y-81197833D01*
X7431384Y-81197835D01*
X7316365Y-81369973D01*
X7169973Y-81516365D01*
X6997835Y-81631384D01*
X6997834Y-81631385D01*
X6997833Y-81631385D01*
X6806564Y-81710611D01*
X6603516Y-81751000D01*
X6396484Y-81751000D01*
X6193436Y-81710611D01*
X6002167Y-81631385D01*
X6002166Y-81631385D01*
X6002165Y-81631384D01*
X5830027Y-81516365D01*
X5683635Y-81369973D01*
X5568616Y-81197835D01*
X5568615Y-81197833D01*
X5489389Y-81006564D01*
X5449000Y-80803516D01*
X5449000Y-80596484D01*
X5489389Y-80393436D01*
X5568615Y-80202167D01*
X5683635Y-80030027D01*
X5830027Y-79883635D01*
X6002165Y-79768616D01*
X6002167Y-79768615D01*
X6193436Y-79689389D01*
X6396484Y-79649000D01*
X6603516Y-79649000D01*
X6806564Y-79689389D01*
G37*
G36*
X306564Y-79689389D02*
G01*
X497833Y-79768615D01*
X497835Y-79768616D01*
X669973Y-79883635D01*
X816365Y-80030027D01*
X931385Y-80202167D01*
X1010611Y-80393436D01*
X1051000Y-80596484D01*
X1051000Y-80803516D01*
X1010611Y-81006564D01*
X931385Y-81197833D01*
X931384Y-81197835D01*
X816365Y-81369973D01*
X669973Y-81516365D01*
X497835Y-81631384D01*
X497834Y-81631385D01*
X497833Y-81631385D01*
X306564Y-81710611D01*
X103516Y-81751000D01*
X-103516Y-81751000D01*
X-306564Y-81710611D01*
X-497833Y-81631385D01*
X-497834Y-81631385D01*
X-497835Y-81631384D01*
X-669973Y-81516365D01*
X-816365Y-81369973D01*
X-931384Y-81197835D01*
X-931385Y-81197833D01*
X-1010611Y-81006564D01*
X-1051000Y-80803516D01*
X-1051000Y-80596484D01*
X-1010611Y-80393436D01*
X-931385Y-80202167D01*
X-816365Y-80030027D01*
X-669973Y-79883635D01*
X-497835Y-79768616D01*
X-497833Y-79768615D01*
X-306564Y-79689389D01*
X-103516Y-79649000D01*
X103516Y-79649000D01*
X306564Y-79689389D01*
G37*
G36*
X72671000Y-77751000D02*
G01*
X69569000Y-77751000D01*
X69569000Y-74649000D01*
X72671000Y-74649000D01*
X72671000Y-77751000D01*
G37*
G36*
X76502585Y-74678802D02*
G01*
X76652410Y-74708604D01*
X76934674Y-74825521D01*
X77188705Y-74995259D01*
X77404741Y-75211295D01*
X77574479Y-75465326D01*
X77691396Y-75747590D01*
X77751000Y-76047240D01*
X77751000Y-76352760D01*
X77691396Y-76652410D01*
X77574479Y-76934674D01*
X77404741Y-77188705D01*
X77188705Y-77404741D01*
X76934674Y-77574479D01*
X76652410Y-77691396D01*
X76502585Y-77721198D01*
X76352761Y-77751000D01*
X76047239Y-77751000D01*
X75897415Y-77721198D01*
X75747590Y-77691396D01*
X75465326Y-77574479D01*
X75211295Y-77404741D01*
X74995259Y-77188705D01*
X74825521Y-76934674D01*
X74708604Y-76652410D01*
X74649000Y-76352760D01*
X74649000Y-76047240D01*
X74708604Y-75747590D01*
X74825521Y-75465326D01*
X74995259Y-75211295D01*
X75211295Y-74995259D01*
X75465326Y-74825521D01*
X75747590Y-74708604D01*
X75897415Y-74678802D01*
X76047239Y-74649000D01*
X76352761Y-74649000D01*
X76502585Y-74678802D01*
G37*
G36*
X86584549Y-75071116D02*
G01*
X86695734Y-75093232D01*
X86905203Y-75179997D01*
X87093720Y-75305960D01*
X87254040Y-75466280D01*
X87355095Y-75617520D01*
X87380004Y-75654799D01*
X87399624Y-75702167D01*
X87466768Y-75864266D01*
X87488884Y-75975451D01*
X87511000Y-76086635D01*
X87511000Y-76313365D01*
X87492130Y-76408228D01*
X87466768Y-76535734D01*
X87418439Y-76652410D01*
X87397700Y-76702480D01*
X87380003Y-76745203D01*
X87254040Y-76933720D01*
X87093720Y-77094040D01*
X86905203Y-77220003D01*
X86695734Y-77306768D01*
X86584549Y-77328884D01*
X86473365Y-77351000D01*
X86246635Y-77351000D01*
X86135451Y-77328884D01*
X86024266Y-77306768D01*
X85814797Y-77220003D01*
X85626280Y-77094040D01*
X85465960Y-76933720D01*
X85339997Y-76745203D01*
X85322301Y-76702480D01*
X85301561Y-76652410D01*
X85253232Y-76535734D01*
X85227870Y-76408228D01*
X85209000Y-76313365D01*
X85209000Y-76086635D01*
X85231116Y-75975451D01*
X85253232Y-75864266D01*
X85320376Y-75702167D01*
X85339996Y-75654799D01*
X85364905Y-75617520D01*
X85465960Y-75466280D01*
X85626280Y-75305960D01*
X85814797Y-75179997D01*
X86024266Y-75093232D01*
X86135451Y-75071116D01*
X86246635Y-75049000D01*
X86473365Y-75049000D01*
X86584549Y-75071116D01*
G37*
G36*
X306564Y-75189389D02*
G01*
X497833Y-75268615D01*
X497835Y-75268616D01*
X669973Y-75383635D01*
X816365Y-75530027D01*
X899734Y-75654797D01*
X931385Y-75702167D01*
X1010611Y-75893436D01*
X1051000Y-76096484D01*
X1051000Y-76303516D01*
X1010611Y-76506564D01*
X998528Y-76535734D01*
X931384Y-76697835D01*
X816365Y-76869973D01*
X669973Y-77016365D01*
X497835Y-77131384D01*
X497834Y-77131385D01*
X497833Y-77131385D01*
X306564Y-77210611D01*
X103516Y-77251000D01*
X-103516Y-77251000D01*
X-306564Y-77210611D01*
X-497833Y-77131385D01*
X-497834Y-77131385D01*
X-497835Y-77131384D01*
X-669973Y-77016365D01*
X-816365Y-76869973D01*
X-931384Y-76697835D01*
X-998528Y-76535734D01*
X-1010611Y-76506564D01*
X-1051000Y-76303516D01*
X-1051000Y-76096484D01*
X-1010611Y-75893436D01*
X-931385Y-75702167D01*
X-899733Y-75654797D01*
X-816365Y-75530027D01*
X-669973Y-75383635D01*
X-497835Y-75268616D01*
X-497833Y-75268615D01*
X-306564Y-75189389D01*
X-103516Y-75149000D01*
X103516Y-75149000D01*
X306564Y-75189389D01*
G37*
G36*
X6806564Y-75189389D02*
G01*
X6997833Y-75268615D01*
X6997835Y-75268616D01*
X7169973Y-75383635D01*
X7316365Y-75530027D01*
X7399734Y-75654797D01*
X7431385Y-75702167D01*
X7510611Y-75893436D01*
X7551000Y-76096484D01*
X7551000Y-76303516D01*
X7510611Y-76506564D01*
X7498528Y-76535734D01*
X7431384Y-76697835D01*
X7316365Y-76869973D01*
X7169973Y-77016365D01*
X6997835Y-77131384D01*
X6997834Y-77131385D01*
X6997833Y-77131385D01*
X6806564Y-77210611D01*
X6603516Y-77251000D01*
X6396484Y-77251000D01*
X6193436Y-77210611D01*
X6002167Y-77131385D01*
X6002166Y-77131385D01*
X6002165Y-77131384D01*
X5830027Y-77016365D01*
X5683635Y-76869973D01*
X5568616Y-76697835D01*
X5501472Y-76535734D01*
X5489389Y-76506564D01*
X5449000Y-76303516D01*
X5449000Y-76096484D01*
X5489389Y-75893436D01*
X5568615Y-75702167D01*
X5600267Y-75654797D01*
X5683635Y-75530027D01*
X5830027Y-75383635D01*
X6002165Y-75268616D01*
X6002167Y-75268615D01*
X6193436Y-75189389D01*
X6396484Y-75149000D01*
X6603516Y-75149000D01*
X6806564Y-75189389D01*
G37*
G36*
X61208228Y-75341703D02*
G01*
X61363100Y-75405853D01*
X61502481Y-75498985D01*
X61621015Y-75617519D01*
X61714147Y-75756900D01*
X61778297Y-75911772D01*
X61811000Y-76076184D01*
X61811000Y-76243816D01*
X61778297Y-76408228D01*
X61714147Y-76563100D01*
X61621015Y-76702481D01*
X61502481Y-76821015D01*
X61363100Y-76914147D01*
X61208228Y-76978297D01*
X61043816Y-77011000D01*
X60876184Y-77011000D01*
X60711772Y-76978297D01*
X60556900Y-76914147D01*
X60417519Y-76821015D01*
X60298985Y-76702481D01*
X60205853Y-76563100D01*
X60141703Y-76408228D01*
X60109000Y-76243816D01*
X60109000Y-76076184D01*
X60141703Y-75911772D01*
X60205853Y-75756900D01*
X60298985Y-75617519D01*
X60417519Y-75498985D01*
X60556900Y-75405853D01*
X60711772Y-75341703D01*
X60876184Y-75309000D01*
X61043816Y-75309000D01*
X61208228Y-75341703D01*
G37*
G36*
X61208228Y-72841703D02*
G01*
X61363100Y-72905853D01*
X61502481Y-72998985D01*
X61621015Y-73117519D01*
X61714147Y-73256900D01*
X61778297Y-73411772D01*
X61811000Y-73576184D01*
X61811000Y-73743816D01*
X61778297Y-73908228D01*
X61714147Y-74063100D01*
X61621015Y-74202481D01*
X61502481Y-74321015D01*
X61363100Y-74414147D01*
X61208228Y-74478297D01*
X61043816Y-74511000D01*
X60876184Y-74511000D01*
X60711772Y-74478297D01*
X60556900Y-74414147D01*
X60417519Y-74321015D01*
X60298985Y-74202481D01*
X60205853Y-74063100D01*
X60141703Y-73908228D01*
X60109000Y-73743816D01*
X60109000Y-73576184D01*
X60141703Y-73411772D01*
X60205853Y-73256900D01*
X60298985Y-73117519D01*
X60417519Y-72998985D01*
X60556900Y-72905853D01*
X60711772Y-72841703D01*
X60876184Y-72809000D01*
X61043816Y-72809000D01*
X61208228Y-72841703D01*
G37*
G36*
X306564Y-69529389D02*
G01*
X497833Y-69608615D01*
X497835Y-69608616D01*
X669973Y-69723635D01*
X816365Y-69870027D01*
X931385Y-70042167D01*
X1010611Y-70233436D01*
X1051000Y-70436484D01*
X1051000Y-70643516D01*
X1010611Y-70846564D01*
X931385Y-71037833D01*
X931384Y-71037835D01*
X816365Y-71209973D01*
X669973Y-71356365D01*
X497835Y-71471384D01*
X497834Y-71471385D01*
X497833Y-71471385D01*
X306564Y-71550611D01*
X103516Y-71591000D01*
X-103516Y-71591000D01*
X-306564Y-71550611D01*
X-497833Y-71471385D01*
X-497834Y-71471385D01*
X-497835Y-71471384D01*
X-669973Y-71356365D01*
X-816365Y-71209973D01*
X-931384Y-71037835D01*
X-931385Y-71037833D01*
X-1010611Y-70846564D01*
X-1051000Y-70643516D01*
X-1051000Y-70436484D01*
X-1010611Y-70233436D01*
X-931385Y-70042167D01*
X-816365Y-69870027D01*
X-669973Y-69723635D01*
X-497835Y-69608616D01*
X-497833Y-69608615D01*
X-306564Y-69529389D01*
X-103516Y-69489000D01*
X103516Y-69489000D01*
X306564Y-69529389D01*
G37*
G36*
X6806564Y-69529389D02*
G01*
X6997833Y-69608615D01*
X6997835Y-69608616D01*
X7169973Y-69723635D01*
X7316365Y-69870027D01*
X7431385Y-70042167D01*
X7510611Y-70233436D01*
X7551000Y-70436484D01*
X7551000Y-70643516D01*
X7510611Y-70846564D01*
X7431385Y-71037833D01*
X7431384Y-71037835D01*
X7316365Y-71209973D01*
X7169973Y-71356365D01*
X6997835Y-71471384D01*
X6997834Y-71471385D01*
X6997833Y-71471385D01*
X6806564Y-71550611D01*
X6603516Y-71591000D01*
X6396484Y-71591000D01*
X6193436Y-71550611D01*
X6002167Y-71471385D01*
X6002166Y-71471385D01*
X6002165Y-71471384D01*
X5830027Y-71356365D01*
X5683635Y-71209973D01*
X5568616Y-71037835D01*
X5568615Y-71037833D01*
X5489389Y-70846564D01*
X5449000Y-70643516D01*
X5449000Y-70436484D01*
X5489389Y-70233436D01*
X5568615Y-70042167D01*
X5683635Y-69870027D01*
X5830027Y-69723635D01*
X6002165Y-69608616D01*
X6002167Y-69608615D01*
X6193436Y-69529389D01*
X6396484Y-69489000D01*
X6603516Y-69489000D01*
X6806564Y-69529389D01*
G37*
G36*
X87511000Y-67191000D02*
G01*
X85209000Y-67191000D01*
X85209000Y-64889000D01*
X87511000Y-64889000D01*
X87511000Y-67191000D01*
G37*
G36*
X71316720Y-65003520D02*
G01*
X71505881Y-65060901D01*
X71680212Y-65154083D01*
X71833015Y-65279485D01*
X71958417Y-65432288D01*
X72002182Y-65514167D01*
X72051598Y-65606617D01*
X72051599Y-65606620D01*
X72108980Y-65795781D01*
X72123500Y-65943207D01*
X72123500Y-66136794D01*
X72108980Y-66284220D01*
X72051599Y-66473381D01*
X71958417Y-66647712D01*
X71833015Y-66800515D01*
X71680212Y-66925917D01*
X71598333Y-66969682D01*
X71505883Y-67019098D01*
X71505880Y-67019099D01*
X71316719Y-67076480D01*
X71120000Y-67095855D01*
X70923280Y-67076480D01*
X70734119Y-67019099D01*
X70559788Y-66925917D01*
X70406985Y-66800515D01*
X70281583Y-66647712D01*
X70222852Y-66537833D01*
X70188402Y-66473383D01*
X70188401Y-66473380D01*
X70131020Y-66284219D01*
X70116500Y-66136793D01*
X70116500Y-65943206D01*
X70131020Y-65795780D01*
X70188401Y-65606619D01*
X70281583Y-65432288D01*
X70406985Y-65279485D01*
X70559788Y-65154083D01*
X70734120Y-65060901D01*
X70923281Y-65003520D01*
X71120000Y-64984145D01*
X71316720Y-65003520D01*
G37*
G36*
X73856720Y-65003520D02*
G01*
X74045881Y-65060901D01*
X74220212Y-65154083D01*
X74373015Y-65279485D01*
X74498417Y-65432288D01*
X74542182Y-65514167D01*
X74591598Y-65606617D01*
X74591599Y-65606620D01*
X74648980Y-65795781D01*
X74663500Y-65943207D01*
X74663500Y-66136794D01*
X74648980Y-66284220D01*
X74591599Y-66473381D01*
X74498417Y-66647712D01*
X74373015Y-66800515D01*
X74220212Y-66925917D01*
X74138333Y-66969682D01*
X74045883Y-67019098D01*
X74045880Y-67019099D01*
X73856719Y-67076480D01*
X73660000Y-67095855D01*
X73463280Y-67076480D01*
X73274119Y-67019099D01*
X73099788Y-66925917D01*
X72946985Y-66800515D01*
X72821583Y-66647712D01*
X72762852Y-66537833D01*
X72728402Y-66473383D01*
X72728401Y-66473380D01*
X72671020Y-66284219D01*
X72656500Y-66136793D01*
X72656500Y-65943206D01*
X72671020Y-65795780D01*
X72728401Y-65606619D01*
X72821583Y-65432288D01*
X72946985Y-65279485D01*
X73099788Y-65154083D01*
X73274120Y-65060901D01*
X73463281Y-65003520D01*
X73660000Y-64984145D01*
X73856720Y-65003520D01*
G37*
G36*
X6806564Y-65029389D02*
G01*
X6997833Y-65108615D01*
X6997835Y-65108616D01*
X7065881Y-65154083D01*
X7169973Y-65223635D01*
X7316365Y-65370027D01*
X7431385Y-65542167D01*
X7510611Y-65733436D01*
X7551000Y-65936484D01*
X7551000Y-66143516D01*
X7510611Y-66346564D01*
X7458082Y-66473380D01*
X7431384Y-66537835D01*
X7316365Y-66709973D01*
X7169973Y-66856365D01*
X6997835Y-66971384D01*
X6997834Y-66971385D01*
X6997833Y-66971385D01*
X6806564Y-67050611D01*
X6603516Y-67091000D01*
X6396484Y-67091000D01*
X6193436Y-67050611D01*
X6002167Y-66971385D01*
X6002166Y-66971385D01*
X6002165Y-66971384D01*
X5830027Y-66856365D01*
X5683635Y-66709973D01*
X5568616Y-66537835D01*
X5541918Y-66473380D01*
X5489389Y-66346564D01*
X5449000Y-66143516D01*
X5449000Y-65936484D01*
X5489389Y-65733436D01*
X5568615Y-65542167D01*
X5683635Y-65370027D01*
X5830027Y-65223635D01*
X5934119Y-65154083D01*
X6002165Y-65108616D01*
X6002167Y-65108615D01*
X6193436Y-65029389D01*
X6396484Y-64989000D01*
X6603516Y-64989000D01*
X6806564Y-65029389D01*
G37*
G36*
X77203500Y-67091000D02*
G01*
X75196500Y-67091000D01*
X75196500Y-64989000D01*
X77203500Y-64989000D01*
X77203500Y-67091000D01*
G37*
G36*
X306564Y-65029389D02*
G01*
X497833Y-65108615D01*
X497835Y-65108616D01*
X565881Y-65154083D01*
X669973Y-65223635D01*
X816365Y-65370027D01*
X931385Y-65542167D01*
X1010611Y-65733436D01*
X1051000Y-65936484D01*
X1051000Y-66143516D01*
X1010611Y-66346564D01*
X958082Y-66473380D01*
X931384Y-66537835D01*
X816365Y-66709973D01*
X669973Y-66856365D01*
X497835Y-66971384D01*
X497834Y-66971385D01*
X497833Y-66971385D01*
X306564Y-67050611D01*
X103516Y-67091000D01*
X-103516Y-67091000D01*
X-306564Y-67050611D01*
X-497833Y-66971385D01*
X-497834Y-66971385D01*
X-497835Y-66971384D01*
X-669973Y-66856365D01*
X-816365Y-66709973D01*
X-931384Y-66537835D01*
X-958082Y-66473380D01*
X-1010611Y-66346564D01*
X-1051000Y-66143516D01*
X-1051000Y-65936484D01*
X-1010611Y-65733436D01*
X-931385Y-65542167D01*
X-816365Y-65370027D01*
X-669973Y-65223635D01*
X-565881Y-65154083D01*
X-497835Y-65108616D01*
X-497833Y-65108615D01*
X-306564Y-65029389D01*
X-103516Y-64989000D01*
X103516Y-64989000D01*
X306564Y-65029389D01*
G37*
G36*
X61861000Y-66941000D02*
G01*
X60059000Y-66941000D01*
X60059000Y-65139000D01*
X61861000Y-65139000D01*
X61861000Y-66941000D01*
G37*
G36*
X61073512Y-62603927D02*
G01*
X61222812Y-62633624D01*
X61386784Y-62701544D01*
X61534354Y-62800147D01*
X61659853Y-62925646D01*
X61758456Y-63073216D01*
X61826376Y-63237188D01*
X61861000Y-63411259D01*
X61861000Y-63588741D01*
X61826376Y-63762812D01*
X61758456Y-63926784D01*
X61659853Y-64074354D01*
X61534354Y-64199853D01*
X61386784Y-64298456D01*
X61222812Y-64366376D01*
X61073512Y-64396073D01*
X61048742Y-64401000D01*
X60871258Y-64401000D01*
X60846488Y-64396073D01*
X60697188Y-64366376D01*
X60533216Y-64298456D01*
X60385646Y-64199853D01*
X60260147Y-64074354D01*
X60161544Y-63926784D01*
X60093624Y-63762812D01*
X60059000Y-63588741D01*
X60059000Y-63411259D01*
X60093624Y-63237188D01*
X60161544Y-63073216D01*
X60260147Y-62925646D01*
X60385646Y-62800147D01*
X60533216Y-62701544D01*
X60697188Y-62633624D01*
X60846488Y-62603927D01*
X60871258Y-62599000D01*
X61048742Y-62599000D01*
X61073512Y-62603927D01*
G37*
G36*
X38348228Y-62681703D02*
G01*
X38503100Y-62745853D01*
X38642481Y-62838985D01*
X38761015Y-62957519D01*
X38854147Y-63096900D01*
X38918297Y-63251772D01*
X38951000Y-63416184D01*
X38951000Y-63583816D01*
X38918297Y-63748228D01*
X38854147Y-63903100D01*
X38761015Y-64042481D01*
X38642481Y-64161015D01*
X38503100Y-64254147D01*
X38348228Y-64318297D01*
X38183816Y-64351000D01*
X38016184Y-64351000D01*
X37851772Y-64318297D01*
X37696900Y-64254147D01*
X37557519Y-64161015D01*
X37438985Y-64042481D01*
X37345853Y-63903100D01*
X37281703Y-63748228D01*
X37249000Y-63583816D01*
X37249000Y-63416184D01*
X37281703Y-63251772D01*
X37345853Y-63096900D01*
X37438985Y-62957519D01*
X37557519Y-62838985D01*
X37696900Y-62745853D01*
X37851772Y-62681703D01*
X38016184Y-62649000D01*
X38183816Y-62649000D01*
X38348228Y-62681703D01*
G37*
G36*
X53588228Y-62681703D02*
G01*
X53743100Y-62745853D01*
X53882481Y-62838985D01*
X54001015Y-62957519D01*
X54094147Y-63096900D01*
X54158297Y-63251772D01*
X54191000Y-63416184D01*
X54191000Y-63583816D01*
X54158297Y-63748228D01*
X54094147Y-63903100D01*
X54001015Y-64042481D01*
X53882481Y-64161015D01*
X53743100Y-64254147D01*
X53588228Y-64318297D01*
X53423816Y-64351000D01*
X53256184Y-64351000D01*
X53091772Y-64318297D01*
X52936900Y-64254147D01*
X52797519Y-64161015D01*
X52678985Y-64042481D01*
X52585853Y-63903100D01*
X52521703Y-63748228D01*
X52489000Y-63583816D01*
X52489000Y-63416184D01*
X52521703Y-63251772D01*
X52585853Y-63096900D01*
X52678985Y-62957519D01*
X52797519Y-62838985D01*
X52936900Y-62745853D01*
X53091772Y-62681703D01*
X53256184Y-62649000D01*
X53423816Y-62649000D01*
X53588228Y-62681703D01*
G37*
G36*
X61073512Y-60063927D02*
G01*
X61222812Y-60093624D01*
X61386784Y-60161544D01*
X61534354Y-60260147D01*
X61659853Y-60385646D01*
X61758456Y-60533216D01*
X61826376Y-60697188D01*
X61861000Y-60871259D01*
X61861000Y-61048741D01*
X61826376Y-61222812D01*
X61758456Y-61386784D01*
X61659853Y-61534354D01*
X61534354Y-61659853D01*
X61386784Y-61758456D01*
X61222812Y-61826376D01*
X61073512Y-61856073D01*
X61048742Y-61861000D01*
X60871258Y-61861000D01*
X60846488Y-61856073D01*
X60697188Y-61826376D01*
X60533216Y-61758456D01*
X60385646Y-61659853D01*
X60260147Y-61534354D01*
X60161544Y-61386784D01*
X60093624Y-61222812D01*
X60059000Y-61048741D01*
X60059000Y-60871259D01*
X60093624Y-60697188D01*
X60161544Y-60533216D01*
X60260147Y-60385646D01*
X60385646Y-60260147D01*
X60533216Y-60161544D01*
X60697188Y-60093624D01*
X60846488Y-60063927D01*
X60871258Y-60059000D01*
X61048742Y-60059000D01*
X61073512Y-60063927D01*
G37*
G36*
X38348228Y-60141703D02*
G01*
X38503100Y-60205853D01*
X38642481Y-60298985D01*
X38761015Y-60417519D01*
X38854147Y-60556900D01*
X38918297Y-60711772D01*
X38951000Y-60876184D01*
X38951000Y-61043816D01*
X38918297Y-61208228D01*
X38854147Y-61363100D01*
X38761015Y-61502481D01*
X38642481Y-61621015D01*
X38503100Y-61714147D01*
X38348228Y-61778297D01*
X38183816Y-61811000D01*
X38016184Y-61811000D01*
X37851772Y-61778297D01*
X37696900Y-61714147D01*
X37557519Y-61621015D01*
X37438985Y-61502481D01*
X37345853Y-61363100D01*
X37281703Y-61208228D01*
X37249000Y-61043816D01*
X37249000Y-60876184D01*
X37281703Y-60711772D01*
X37345853Y-60556900D01*
X37438985Y-60417519D01*
X37557519Y-60298985D01*
X37696900Y-60205853D01*
X37851772Y-60141703D01*
X38016184Y-60109000D01*
X38183816Y-60109000D01*
X38348228Y-60141703D01*
G37*
G36*
X23148228Y-60141703D02*
G01*
X23303100Y-60205853D01*
X23442481Y-60298985D01*
X23561015Y-60417519D01*
X23654147Y-60556900D01*
X23718297Y-60711772D01*
X23751000Y-60876184D01*
X23751000Y-61043816D01*
X23718297Y-61208228D01*
X23654147Y-61363100D01*
X23561015Y-61502481D01*
X23442481Y-61621015D01*
X23303100Y-61714147D01*
X23148228Y-61778297D01*
X22983816Y-61811000D01*
X22816184Y-61811000D01*
X22651772Y-61778297D01*
X22496900Y-61714147D01*
X22357519Y-61621015D01*
X22238985Y-61502481D01*
X22145853Y-61363100D01*
X22081703Y-61208228D01*
X22049000Y-61043816D01*
X22049000Y-60876184D01*
X22081703Y-60711772D01*
X22145853Y-60556900D01*
X22238985Y-60417519D01*
X22357519Y-60298985D01*
X22496900Y-60205853D01*
X22651772Y-60141703D01*
X22816184Y-60109000D01*
X22983816Y-60109000D01*
X23148228Y-60141703D01*
G37*
G36*
X25648228Y-60141703D02*
G01*
X25803100Y-60205853D01*
X25942481Y-60298985D01*
X26061015Y-60417519D01*
X26154147Y-60556900D01*
X26218297Y-60711772D01*
X26251000Y-60876184D01*
X26251000Y-61043816D01*
X26218297Y-61208228D01*
X26154147Y-61363100D01*
X26061015Y-61502481D01*
X25942481Y-61621015D01*
X25803100Y-61714147D01*
X25648228Y-61778297D01*
X25483816Y-61811000D01*
X25316184Y-61811000D01*
X25151772Y-61778297D01*
X24996900Y-61714147D01*
X24857519Y-61621015D01*
X24738985Y-61502481D01*
X24645853Y-61363100D01*
X24581703Y-61208228D01*
X24549000Y-61043816D01*
X24549000Y-60876184D01*
X24581703Y-60711772D01*
X24645853Y-60556900D01*
X24738985Y-60417519D01*
X24857519Y-60298985D01*
X24996900Y-60205853D01*
X25151772Y-60141703D01*
X25316184Y-60109000D01*
X25483816Y-60109000D01*
X25648228Y-60141703D01*
G37*
G36*
X53588228Y-60141703D02*
G01*
X53743100Y-60205853D01*
X53882481Y-60298985D01*
X54001015Y-60417519D01*
X54094147Y-60556900D01*
X54158297Y-60711772D01*
X54191000Y-60876184D01*
X54191000Y-61043816D01*
X54158297Y-61208228D01*
X54094147Y-61363100D01*
X54001015Y-61502481D01*
X53882481Y-61621015D01*
X53743100Y-61714147D01*
X53588228Y-61778297D01*
X53423816Y-61811000D01*
X53256184Y-61811000D01*
X53091772Y-61778297D01*
X52936900Y-61714147D01*
X52797519Y-61621015D01*
X52678985Y-61502481D01*
X52585853Y-61363100D01*
X52521703Y-61208228D01*
X52489000Y-61043816D01*
X52489000Y-60876184D01*
X52521703Y-60711772D01*
X52585853Y-60556900D01*
X52678985Y-60417519D01*
X52797519Y-60298985D01*
X52936900Y-60205853D01*
X53091772Y-60141703D01*
X53256184Y-60109000D01*
X53423816Y-60109000D01*
X53588228Y-60141703D01*
G37*
G36*
X30713642Y-60189781D02*
G01*
X30859414Y-60250162D01*
X30859416Y-60250163D01*
X30990608Y-60337822D01*
X31102178Y-60449392D01*
X31158187Y-60533216D01*
X31189838Y-60580586D01*
X31250219Y-60726358D01*
X31281000Y-60881107D01*
X31281000Y-61038893D01*
X31250219Y-61193642D01*
X31238136Y-61222812D01*
X31189837Y-61339416D01*
X31102178Y-61470608D01*
X30990608Y-61582178D01*
X30859416Y-61669837D01*
X30859415Y-61669838D01*
X30859414Y-61669838D01*
X30713642Y-61730219D01*
X30558893Y-61761000D01*
X30401107Y-61761000D01*
X30246358Y-61730219D01*
X30100586Y-61669838D01*
X30100585Y-61669838D01*
X30100584Y-61669837D01*
X29969392Y-61582178D01*
X29857822Y-61470608D01*
X29770163Y-61339416D01*
X29721864Y-61222812D01*
X29709781Y-61193642D01*
X29679000Y-61038893D01*
X29679000Y-60881107D01*
X29709781Y-60726358D01*
X29770162Y-60580586D01*
X29801813Y-60533216D01*
X29857822Y-60449392D01*
X29969392Y-60337822D01*
X30100584Y-60250163D01*
X30100586Y-60250162D01*
X30246358Y-60189781D01*
X30401107Y-60159000D01*
X30558893Y-60159000D01*
X30713642Y-60189781D01*
G37*
G36*
X6806564Y-59369389D02*
G01*
X6997833Y-59448615D01*
X6997835Y-59448616D01*
X7053076Y-59485527D01*
X7169973Y-59563635D01*
X7316365Y-59710027D01*
X7431385Y-59882167D01*
X7510611Y-60073436D01*
X7551000Y-60276484D01*
X7551000Y-60483516D01*
X7510611Y-60686564D01*
X7431385Y-60877833D01*
X7431384Y-60877835D01*
X7316365Y-61049973D01*
X7169973Y-61196365D01*
X6997835Y-61311384D01*
X6997834Y-61311385D01*
X6997833Y-61311385D01*
X6806564Y-61390611D01*
X6603516Y-61431000D01*
X6396484Y-61431000D01*
X6193436Y-61390611D01*
X6002167Y-61311385D01*
X6002166Y-61311385D01*
X6002165Y-61311384D01*
X5830027Y-61196365D01*
X5683635Y-61049973D01*
X5568616Y-60877835D01*
X5568615Y-60877833D01*
X5489389Y-60686564D01*
X5449000Y-60483516D01*
X5449000Y-60276484D01*
X5489389Y-60073436D01*
X5568615Y-59882167D01*
X5683635Y-59710027D01*
X5830027Y-59563635D01*
X5946924Y-59485527D01*
X6002165Y-59448616D01*
X6002167Y-59448615D01*
X6193436Y-59369389D01*
X6396484Y-59329000D01*
X6603516Y-59329000D01*
X6806564Y-59369389D01*
G37*
G36*
X306564Y-59369389D02*
G01*
X497833Y-59448615D01*
X497835Y-59448616D01*
X553076Y-59485527D01*
X669973Y-59563635D01*
X816365Y-59710027D01*
X931385Y-59882167D01*
X1010611Y-60073436D01*
X1051000Y-60276484D01*
X1051000Y-60483516D01*
X1010611Y-60686564D01*
X931385Y-60877833D01*
X931384Y-60877835D01*
X816365Y-61049973D01*
X669973Y-61196365D01*
X497835Y-61311384D01*
X497834Y-61311385D01*
X497833Y-61311385D01*
X306564Y-61390611D01*
X103516Y-61431000D01*
X-103516Y-61431000D01*
X-306564Y-61390611D01*
X-497833Y-61311385D01*
X-497834Y-61311385D01*
X-497835Y-61311384D01*
X-669973Y-61196365D01*
X-816365Y-61049973D01*
X-931384Y-60877835D01*
X-931385Y-60877833D01*
X-1010611Y-60686564D01*
X-1051000Y-60483516D01*
X-1051000Y-60276484D01*
X-1010611Y-60073436D01*
X-931385Y-59882167D01*
X-816365Y-59710027D01*
X-669973Y-59563635D01*
X-553076Y-59485527D01*
X-497835Y-59448616D01*
X-497833Y-59448615D01*
X-306564Y-59369389D01*
X-103516Y-59329000D01*
X103516Y-59329000D01*
X306564Y-59369389D01*
G37*
G36*
X74361000Y-59121000D02*
G01*
X73086749Y-59121000D01*
X73062363Y-59123402D01*
X73038914Y-59130515D01*
X73017303Y-59142066D01*
X72998361Y-59157611D01*
X72982816Y-59176553D01*
X72971265Y-59198164D01*
X72964152Y-59221613D01*
X72961750Y-59245999D01*
X72964152Y-59270385D01*
X72971265Y-59293834D01*
X72982816Y-59315444D01*
X73011218Y-59357951D01*
X73064062Y-59485527D01*
X73091000Y-59620956D01*
X73091000Y-59759044D01*
X73064062Y-59894473D01*
X73011218Y-60022049D01*
X72934505Y-60136859D01*
X72836859Y-60234505D01*
X72722049Y-60311218D01*
X72594473Y-60364062D01*
X72459044Y-60391000D01*
X72320956Y-60391000D01*
X72185527Y-60364062D01*
X72057951Y-60311218D01*
X71943141Y-60234505D01*
X71845495Y-60136859D01*
X71768782Y-60022049D01*
X71715938Y-59894473D01*
X71689000Y-59759044D01*
X71689000Y-59620956D01*
X71715938Y-59485527D01*
X71768782Y-59357951D01*
X71845495Y-59243141D01*
X71943141Y-59145495D01*
X72057951Y-59068782D01*
X72185527Y-59015938D01*
X72320956Y-58989000D01*
X72459044Y-58989000D01*
X72594473Y-59015938D01*
X72722049Y-59068782D01*
X72764556Y-59097184D01*
X72786167Y-59108735D01*
X72809616Y-59115848D01*
X72834002Y-59118250D01*
X72858388Y-59115848D01*
X72881837Y-59108735D01*
X72903447Y-59097183D01*
X72922389Y-59081638D01*
X72937934Y-59062696D01*
X72949485Y-59041085D01*
X72956598Y-59017636D01*
X72959000Y-58993251D01*
X72959000Y-57719000D01*
X74361000Y-57719000D01*
X74361000Y-59121000D01*
G37*
G36*
X53588228Y-57601703D02*
G01*
X53743100Y-57665853D01*
X53882481Y-57758985D01*
X54001015Y-57877519D01*
X54094147Y-58016900D01*
X54158297Y-58171772D01*
X54191000Y-58336184D01*
X54191000Y-58503816D01*
X54158297Y-58668228D01*
X54094147Y-58823100D01*
X54001015Y-58962481D01*
X53882481Y-59081015D01*
X53743100Y-59174147D01*
X53588228Y-59238297D01*
X53423816Y-59271000D01*
X53256184Y-59271000D01*
X53091772Y-59238297D01*
X52936900Y-59174147D01*
X52797519Y-59081015D01*
X52678985Y-58962481D01*
X52585853Y-58823100D01*
X52521703Y-58668228D01*
X52489000Y-58503816D01*
X52489000Y-58336184D01*
X52521703Y-58171772D01*
X52585853Y-58016900D01*
X52678985Y-57877519D01*
X52797519Y-57758985D01*
X52936900Y-57665853D01*
X53091772Y-57601703D01*
X53256184Y-57569000D01*
X53423816Y-57569000D01*
X53588228Y-57601703D01*
G37*
G36*
X38348228Y-57601703D02*
G01*
X38503100Y-57665853D01*
X38642481Y-57758985D01*
X38761015Y-57877519D01*
X38854147Y-58016900D01*
X38918297Y-58171772D01*
X38951000Y-58336184D01*
X38951000Y-58503816D01*
X38918297Y-58668228D01*
X38854147Y-58823100D01*
X38761015Y-58962481D01*
X38642481Y-59081015D01*
X38503100Y-59174147D01*
X38348228Y-59238297D01*
X38183816Y-59271000D01*
X38016184Y-59271000D01*
X37851772Y-59238297D01*
X37696900Y-59174147D01*
X37557519Y-59081015D01*
X37438985Y-58962481D01*
X37345853Y-58823100D01*
X37281703Y-58668228D01*
X37249000Y-58503816D01*
X37249000Y-58336184D01*
X37281703Y-58171772D01*
X37345853Y-58016900D01*
X37438985Y-57877519D01*
X37557519Y-57758985D01*
X37696900Y-57665853D01*
X37851772Y-57601703D01*
X38016184Y-57569000D01*
X38183816Y-57569000D01*
X38348228Y-57601703D01*
G37*
G36*
X71324473Y-57745938D02*
G01*
X71452049Y-57798782D01*
X71566859Y-57875495D01*
X71664505Y-57973141D01*
X71741218Y-58087951D01*
X71794062Y-58215527D01*
X71821000Y-58350956D01*
X71821000Y-58489044D01*
X71794062Y-58624473D01*
X71741218Y-58752049D01*
X71664505Y-58866859D01*
X71566859Y-58964505D01*
X71452049Y-59041218D01*
X71324473Y-59094062D01*
X71189044Y-59121000D01*
X71050956Y-59121000D01*
X70915527Y-59094062D01*
X70787951Y-59041218D01*
X70673141Y-58964505D01*
X70575495Y-58866859D01*
X70498782Y-58752049D01*
X70445938Y-58624473D01*
X70419000Y-58489044D01*
X70419000Y-58350956D01*
X70445938Y-58215527D01*
X70498782Y-58087951D01*
X70575495Y-57973141D01*
X70673141Y-57875495D01*
X70787951Y-57798782D01*
X70915527Y-57745938D01*
X71050956Y-57719000D01*
X71189044Y-57719000D01*
X71324473Y-57745938D01*
G37*
G36*
X306564Y-54869389D02*
G01*
X497833Y-54948615D01*
X497835Y-54948616D01*
X669973Y-55063635D01*
X816365Y-55210027D01*
X923365Y-55370163D01*
X931385Y-55382167D01*
X1010611Y-55573436D01*
X1051000Y-55776484D01*
X1051000Y-55983516D01*
X1010611Y-56186564D01*
X957973Y-56313643D01*
X931384Y-56377835D01*
X816365Y-56549973D01*
X669973Y-56696365D01*
X497835Y-56811384D01*
X497834Y-56811385D01*
X497833Y-56811385D01*
X306564Y-56890611D01*
X103516Y-56931000D01*
X-103516Y-56931000D01*
X-306564Y-56890611D01*
X-497833Y-56811385D01*
X-497834Y-56811385D01*
X-497835Y-56811384D01*
X-669973Y-56696365D01*
X-816365Y-56549973D01*
X-931384Y-56377835D01*
X-957973Y-56313643D01*
X-1010611Y-56186564D01*
X-1051000Y-55983516D01*
X-1051000Y-55776484D01*
X-1010611Y-55573436D01*
X-931385Y-55382167D01*
X-923364Y-55370163D01*
X-816365Y-55210027D01*
X-669973Y-55063635D01*
X-497835Y-54948616D01*
X-497833Y-54948615D01*
X-306564Y-54869389D01*
X-103516Y-54829000D01*
X103516Y-54829000D01*
X306564Y-54869389D01*
G37*
G36*
X6806564Y-54869389D02*
G01*
X6997833Y-54948615D01*
X6997835Y-54948616D01*
X7169973Y-55063635D01*
X7316365Y-55210027D01*
X7423365Y-55370163D01*
X7431385Y-55382167D01*
X7510611Y-55573436D01*
X7551000Y-55776484D01*
X7551000Y-55983516D01*
X7510611Y-56186564D01*
X7457973Y-56313643D01*
X7431384Y-56377835D01*
X7316365Y-56549973D01*
X7169973Y-56696365D01*
X6997835Y-56811384D01*
X6997834Y-56811385D01*
X6997833Y-56811385D01*
X6806564Y-56890611D01*
X6603516Y-56931000D01*
X6396484Y-56931000D01*
X6193436Y-56890611D01*
X6002167Y-56811385D01*
X6002166Y-56811385D01*
X6002165Y-56811384D01*
X5830027Y-56696365D01*
X5683635Y-56549973D01*
X5568616Y-56377835D01*
X5542027Y-56313643D01*
X5489389Y-56186564D01*
X5449000Y-55983516D01*
X5449000Y-55776484D01*
X5489389Y-55573436D01*
X5568615Y-55382167D01*
X5576636Y-55370163D01*
X5683635Y-55210027D01*
X5830027Y-55063635D01*
X6002165Y-54948616D01*
X6002167Y-54948615D01*
X6193436Y-54869389D01*
X6396484Y-54829000D01*
X6603516Y-54829000D01*
X6806564Y-54869389D01*
G37*
G36*
X30713642Y-55309781D02*
G01*
X30859414Y-55370162D01*
X30859416Y-55370163D01*
X30990608Y-55457822D01*
X31102178Y-55569392D01*
X31189837Y-55700584D01*
X31189838Y-55700586D01*
X31250219Y-55846358D01*
X31281000Y-56001107D01*
X31281000Y-56158893D01*
X31250219Y-56313642D01*
X31205136Y-56422481D01*
X31189837Y-56459416D01*
X31102178Y-56590608D01*
X30990608Y-56702178D01*
X30859416Y-56789837D01*
X30859415Y-56789838D01*
X30859414Y-56789838D01*
X30713642Y-56850219D01*
X30558893Y-56881000D01*
X30401107Y-56881000D01*
X30246358Y-56850219D01*
X30100586Y-56789838D01*
X30100585Y-56789838D01*
X30100584Y-56789837D01*
X29969392Y-56702178D01*
X29857822Y-56590608D01*
X29770163Y-56459416D01*
X29754864Y-56422481D01*
X29709781Y-56313642D01*
X29679000Y-56158893D01*
X29679000Y-56001107D01*
X29709781Y-55846358D01*
X29770162Y-55700586D01*
X29770163Y-55700584D01*
X29857822Y-55569392D01*
X29969392Y-55457822D01*
X30100584Y-55370163D01*
X30100586Y-55370162D01*
X30246358Y-55309781D01*
X30401107Y-55279000D01*
X30558893Y-55279000D01*
X30713642Y-55309781D01*
G37*
G36*
X23148228Y-55061703D02*
G01*
X23303100Y-55125853D01*
X23442481Y-55218985D01*
X23561015Y-55337519D01*
X23654147Y-55476900D01*
X23718297Y-55631772D01*
X23751000Y-55796184D01*
X23751000Y-55963816D01*
X23718297Y-56128228D01*
X23654147Y-56283100D01*
X23561015Y-56422481D01*
X23442481Y-56541015D01*
X23303100Y-56634147D01*
X23148228Y-56698297D01*
X22983816Y-56731000D01*
X22816184Y-56731000D01*
X22651772Y-56698297D01*
X22496900Y-56634147D01*
X22357519Y-56541015D01*
X22238985Y-56422481D01*
X22145853Y-56283100D01*
X22081703Y-56128228D01*
X22049000Y-55963816D01*
X22049000Y-55796184D01*
X22081703Y-55631772D01*
X22145853Y-55476900D01*
X22238985Y-55337519D01*
X22357519Y-55218985D01*
X22496900Y-55125853D01*
X22651772Y-55061703D01*
X22816184Y-55029000D01*
X22983816Y-55029000D01*
X23148228Y-55061703D01*
G37*
G36*
X38348228Y-55061703D02*
G01*
X38503100Y-55125853D01*
X38642481Y-55218985D01*
X38761015Y-55337519D01*
X38854147Y-55476900D01*
X38918297Y-55631772D01*
X38951000Y-55796184D01*
X38951000Y-55963816D01*
X38918297Y-56128228D01*
X38854147Y-56283100D01*
X38761015Y-56422481D01*
X38642481Y-56541015D01*
X38503100Y-56634147D01*
X38348228Y-56698297D01*
X38183816Y-56731000D01*
X38016184Y-56731000D01*
X37851772Y-56698297D01*
X37696900Y-56634147D01*
X37557519Y-56541015D01*
X37438985Y-56422481D01*
X37345853Y-56283100D01*
X37281703Y-56128228D01*
X37249000Y-55963816D01*
X37249000Y-55796184D01*
X37281703Y-55631772D01*
X37345853Y-55476900D01*
X37438985Y-55337519D01*
X37557519Y-55218985D01*
X37696900Y-55125853D01*
X37851772Y-55061703D01*
X38016184Y-55029000D01*
X38183816Y-55029000D01*
X38348228Y-55061703D01*
G37*
G36*
X25648228Y-55061703D02*
G01*
X25803100Y-55125853D01*
X25942481Y-55218985D01*
X26061015Y-55337519D01*
X26154147Y-55476900D01*
X26218297Y-55631772D01*
X26251000Y-55796184D01*
X26251000Y-55963816D01*
X26218297Y-56128228D01*
X26154147Y-56283100D01*
X26061015Y-56422481D01*
X25942481Y-56541015D01*
X25803100Y-56634147D01*
X25648228Y-56698297D01*
X25483816Y-56731000D01*
X25316184Y-56731000D01*
X25151772Y-56698297D01*
X24996900Y-56634147D01*
X24857519Y-56541015D01*
X24738985Y-56422481D01*
X24645853Y-56283100D01*
X24581703Y-56128228D01*
X24549000Y-55963816D01*
X24549000Y-55796184D01*
X24581703Y-55631772D01*
X24645853Y-55476900D01*
X24738985Y-55337519D01*
X24857519Y-55218985D01*
X24996900Y-55125853D01*
X25151772Y-55061703D01*
X25316184Y-55029000D01*
X25483816Y-55029000D01*
X25648228Y-55061703D01*
G37*
G36*
X53588228Y-55061703D02*
G01*
X53743100Y-55125853D01*
X53882481Y-55218985D01*
X54001015Y-55337519D01*
X54094147Y-55476900D01*
X54158297Y-55631772D01*
X54191000Y-55796184D01*
X54191000Y-55963816D01*
X54158297Y-56128228D01*
X54094147Y-56283100D01*
X54001015Y-56422481D01*
X53882481Y-56541015D01*
X53743100Y-56634147D01*
X53588228Y-56698297D01*
X53423816Y-56731000D01*
X53256184Y-56731000D01*
X53091772Y-56698297D01*
X52936900Y-56634147D01*
X52797519Y-56541015D01*
X52678985Y-56422481D01*
X52585853Y-56283100D01*
X52521703Y-56128228D01*
X52489000Y-55963816D01*
X52489000Y-55796184D01*
X52521703Y-55631772D01*
X52585853Y-55476900D01*
X52678985Y-55337519D01*
X52797519Y-55218985D01*
X52936900Y-55125853D01*
X53091772Y-55061703D01*
X53256184Y-55029000D01*
X53423816Y-55029000D01*
X53588228Y-55061703D01*
G37*
G36*
X53588228Y-52521703D02*
G01*
X53743100Y-52585853D01*
X53882481Y-52678985D01*
X54001015Y-52797519D01*
X54094147Y-52936900D01*
X54158297Y-53091772D01*
X54191000Y-53256184D01*
X54191000Y-53423816D01*
X54158297Y-53588228D01*
X54094147Y-53743100D01*
X54001015Y-53882481D01*
X53882481Y-54001015D01*
X53743100Y-54094147D01*
X53588228Y-54158297D01*
X53423816Y-54191000D01*
X53256184Y-54191000D01*
X53091772Y-54158297D01*
X52936900Y-54094147D01*
X52797519Y-54001015D01*
X52678985Y-53882481D01*
X52585853Y-53743100D01*
X52521703Y-53588228D01*
X52489000Y-53423816D01*
X52489000Y-53256184D01*
X52521703Y-53091772D01*
X52585853Y-52936900D01*
X52678985Y-52797519D01*
X52797519Y-52678985D01*
X52936900Y-52585853D01*
X53091772Y-52521703D01*
X53256184Y-52489000D01*
X53423816Y-52489000D01*
X53588228Y-52521703D01*
G37*
G36*
X38348228Y-52521703D02*
G01*
X38503100Y-52585853D01*
X38642481Y-52678985D01*
X38761015Y-52797519D01*
X38854147Y-52936900D01*
X38918297Y-53091772D01*
X38951000Y-53256184D01*
X38951000Y-53423816D01*
X38918297Y-53588228D01*
X38854147Y-53743100D01*
X38761015Y-53882481D01*
X38642481Y-54001015D01*
X38503100Y-54094147D01*
X38348228Y-54158297D01*
X38183816Y-54191000D01*
X38016184Y-54191000D01*
X37851772Y-54158297D01*
X37696900Y-54094147D01*
X37557519Y-54001015D01*
X37438985Y-53882481D01*
X37345853Y-53743100D01*
X37281703Y-53588228D01*
X37249000Y-53423816D01*
X37249000Y-53256184D01*
X37281703Y-53091772D01*
X37345853Y-52936900D01*
X37438985Y-52797519D01*
X37557519Y-52678985D01*
X37696900Y-52585853D01*
X37851772Y-52521703D01*
X38016184Y-52489000D01*
X38183816Y-52489000D01*
X38348228Y-52521703D01*
G37*
G36*
X71971000Y-54191000D02*
G01*
X70269000Y-54191000D01*
X70269000Y-52489000D01*
X71971000Y-52489000D01*
X71971000Y-54191000D01*
G37*
G36*
X61208228Y-52521703D02*
G01*
X61363100Y-52585853D01*
X61502481Y-52678985D01*
X61621015Y-52797519D01*
X61714147Y-52936900D01*
X61778297Y-53091772D01*
X61811000Y-53256184D01*
X61811000Y-53423816D01*
X61778297Y-53588228D01*
X61714147Y-53743100D01*
X61621015Y-53882481D01*
X61502481Y-54001015D01*
X61363100Y-54094147D01*
X61208228Y-54158297D01*
X61043816Y-54191000D01*
X60876184Y-54191000D01*
X60711772Y-54158297D01*
X60556900Y-54094147D01*
X60417519Y-54001015D01*
X60298985Y-53882481D01*
X60205853Y-53743100D01*
X60141703Y-53588228D01*
X60109000Y-53423816D01*
X60109000Y-53256184D01*
X60141703Y-53091772D01*
X60205853Y-52936900D01*
X60298985Y-52797519D01*
X60417519Y-52678985D01*
X60556900Y-52585853D01*
X60711772Y-52521703D01*
X60876184Y-52489000D01*
X61043816Y-52489000D01*
X61208228Y-52521703D01*
G37*
G36*
X71368228Y-50021703D02*
G01*
X71523100Y-50085853D01*
X71662481Y-50178985D01*
X71781015Y-50297519D01*
X71874147Y-50436900D01*
X71938297Y-50591772D01*
X71971000Y-50756184D01*
X71971000Y-50923816D01*
X71938297Y-51088228D01*
X71874147Y-51243100D01*
X71781015Y-51382481D01*
X71662481Y-51501015D01*
X71523100Y-51594147D01*
X71368228Y-51658297D01*
X71203816Y-51691000D01*
X71036184Y-51691000D01*
X70871772Y-51658297D01*
X70716900Y-51594147D01*
X70577519Y-51501015D01*
X70458985Y-51382481D01*
X70365853Y-51243100D01*
X70301703Y-51088228D01*
X70269000Y-50923816D01*
X70269000Y-50756184D01*
X70301703Y-50591772D01*
X70365853Y-50436900D01*
X70458985Y-50297519D01*
X70577519Y-50178985D01*
X70716900Y-50085853D01*
X70871772Y-50021703D01*
X71036184Y-49989000D01*
X71203816Y-49989000D01*
X71368228Y-50021703D01*
G37*
G36*
X61208228Y-50021703D02*
G01*
X61363100Y-50085853D01*
X61502481Y-50178985D01*
X61621015Y-50297519D01*
X61714147Y-50436900D01*
X61778297Y-50591772D01*
X61811000Y-50756184D01*
X61811000Y-50923816D01*
X61778297Y-51088228D01*
X61714147Y-51243100D01*
X61621015Y-51382481D01*
X61502481Y-51501015D01*
X61363100Y-51594147D01*
X61208228Y-51658297D01*
X61043816Y-51691000D01*
X60876184Y-51691000D01*
X60711772Y-51658297D01*
X60556900Y-51594147D01*
X60417519Y-51501015D01*
X60298985Y-51382481D01*
X60205853Y-51243100D01*
X60141703Y-51088228D01*
X60109000Y-50923816D01*
X60109000Y-50756184D01*
X60141703Y-50591772D01*
X60205853Y-50436900D01*
X60298985Y-50297519D01*
X60417519Y-50178985D01*
X60556900Y-50085853D01*
X60711772Y-50021703D01*
X60876184Y-49989000D01*
X61043816Y-49989000D01*
X61208228Y-50021703D01*
G37*
G36*
X53588228Y-49981703D02*
G01*
X53743100Y-50045853D01*
X53882481Y-50138985D01*
X54001015Y-50257519D01*
X54094147Y-50396900D01*
X54158297Y-50551772D01*
X54191000Y-50716184D01*
X54191000Y-50883816D01*
X54158297Y-51048228D01*
X54094147Y-51203100D01*
X54001015Y-51342481D01*
X53882481Y-51461015D01*
X53743100Y-51554147D01*
X53588228Y-51618297D01*
X53423816Y-51651000D01*
X53256184Y-51651000D01*
X53091772Y-51618297D01*
X52936900Y-51554147D01*
X52797519Y-51461015D01*
X52678985Y-51342481D01*
X52585853Y-51203100D01*
X52521703Y-51048228D01*
X52489000Y-50883816D01*
X52489000Y-50716184D01*
X52521703Y-50551772D01*
X52585853Y-50396900D01*
X52678985Y-50257519D01*
X52797519Y-50138985D01*
X52936900Y-50045853D01*
X53091772Y-49981703D01*
X53256184Y-49949000D01*
X53423816Y-49949000D01*
X53588228Y-49981703D01*
G37*
G36*
X38348228Y-49981703D02*
G01*
X38503100Y-50045853D01*
X38642481Y-50138985D01*
X38761015Y-50257519D01*
X38854147Y-50396900D01*
X38918297Y-50551772D01*
X38951000Y-50716184D01*
X38951000Y-50883816D01*
X38918297Y-51048228D01*
X38854147Y-51203100D01*
X38761015Y-51342481D01*
X38642481Y-51461015D01*
X38503100Y-51554147D01*
X38348228Y-51618297D01*
X38183816Y-51651000D01*
X38016184Y-51651000D01*
X37851772Y-51618297D01*
X37696900Y-51554147D01*
X37557519Y-51461015D01*
X37438985Y-51342481D01*
X37345853Y-51203100D01*
X37281703Y-51048228D01*
X37249000Y-50883816D01*
X37249000Y-50716184D01*
X37281703Y-50551772D01*
X37345853Y-50396900D01*
X37438985Y-50257519D01*
X37557519Y-50138985D01*
X37696900Y-50045853D01*
X37851772Y-49981703D01*
X38016184Y-49949000D01*
X38183816Y-49949000D01*
X38348228Y-49981703D01*
G37*
G36*
X306564Y-49209389D02*
G01*
X497833Y-49288615D01*
X497835Y-49288616D01*
X669973Y-49403635D01*
X816365Y-49550027D01*
X931385Y-49722167D01*
X1010611Y-49913436D01*
X1051000Y-50116484D01*
X1051000Y-50323516D01*
X1010611Y-50526564D01*
X931385Y-50717833D01*
X931384Y-50717835D01*
X816365Y-50889973D01*
X669973Y-51036365D01*
X497835Y-51151384D01*
X497834Y-51151385D01*
X497833Y-51151385D01*
X306564Y-51230611D01*
X103516Y-51271000D01*
X-103516Y-51271000D01*
X-306564Y-51230611D01*
X-497833Y-51151385D01*
X-497834Y-51151385D01*
X-497835Y-51151384D01*
X-669973Y-51036365D01*
X-816365Y-50889973D01*
X-931384Y-50717835D01*
X-931385Y-50717833D01*
X-1010611Y-50526564D01*
X-1051000Y-50323516D01*
X-1051000Y-50116484D01*
X-1010611Y-49913436D01*
X-931385Y-49722167D01*
X-816365Y-49550027D01*
X-669973Y-49403635D01*
X-497835Y-49288616D01*
X-497833Y-49288615D01*
X-306564Y-49209389D01*
X-103516Y-49169000D01*
X103516Y-49169000D01*
X306564Y-49209389D01*
G37*
G36*
X6806564Y-49209389D02*
G01*
X6997833Y-49288615D01*
X6997835Y-49288616D01*
X7169973Y-49403635D01*
X7316365Y-49550027D01*
X7431385Y-49722167D01*
X7510611Y-49913436D01*
X7551000Y-50116484D01*
X7551000Y-50323516D01*
X7510611Y-50526564D01*
X7431385Y-50717833D01*
X7431384Y-50717835D01*
X7316365Y-50889973D01*
X7169973Y-51036365D01*
X6997835Y-51151384D01*
X6997834Y-51151385D01*
X6997833Y-51151385D01*
X6806564Y-51230611D01*
X6603516Y-51271000D01*
X6396484Y-51271000D01*
X6193436Y-51230611D01*
X6002167Y-51151385D01*
X6002166Y-51151385D01*
X6002165Y-51151384D01*
X5830027Y-51036365D01*
X5683635Y-50889973D01*
X5568616Y-50717835D01*
X5568615Y-50717833D01*
X5489389Y-50526564D01*
X5449000Y-50323516D01*
X5449000Y-50116484D01*
X5489389Y-49913436D01*
X5568615Y-49722167D01*
X5683635Y-49550027D01*
X5830027Y-49403635D01*
X6002165Y-49288616D01*
X6002167Y-49288615D01*
X6193436Y-49209389D01*
X6396484Y-49169000D01*
X6603516Y-49169000D01*
X6806564Y-49209389D01*
G37*
G36*
X30783765Y-47258620D02*
G01*
X30973288Y-47337123D01*
X31143854Y-47451092D01*
X31288908Y-47596146D01*
X31402877Y-47766712D01*
X31481380Y-47956235D01*
X31521400Y-48157431D01*
X31521400Y-48362569D01*
X31481380Y-48563765D01*
X31402877Y-48753288D01*
X31288908Y-48923854D01*
X31143854Y-49068908D01*
X30973288Y-49182877D01*
X30973287Y-49182878D01*
X30973286Y-49182878D01*
X30783765Y-49261380D01*
X30582570Y-49301400D01*
X30377430Y-49301400D01*
X30176235Y-49261380D01*
X29986714Y-49182878D01*
X29986713Y-49182878D01*
X29986712Y-49182877D01*
X29816146Y-49068908D01*
X29671092Y-48923854D01*
X29557123Y-48753288D01*
X29478620Y-48563765D01*
X29438600Y-48362569D01*
X29438600Y-48157431D01*
X29478620Y-47956235D01*
X29557123Y-47766712D01*
X29671092Y-47596146D01*
X29816146Y-47451092D01*
X29986712Y-47337123D01*
X30176235Y-47258620D01*
X30377430Y-47218600D01*
X30582570Y-47218600D01*
X30783765Y-47258620D01*
G37*
G36*
X38348228Y-47441703D02*
G01*
X38503100Y-47505853D01*
X38642481Y-47598985D01*
X38761015Y-47717519D01*
X38854147Y-47856900D01*
X38918297Y-48011772D01*
X38951000Y-48176184D01*
X38951000Y-48343816D01*
X38918297Y-48508228D01*
X38854147Y-48663100D01*
X38761015Y-48802481D01*
X38642481Y-48921015D01*
X38503100Y-49014147D01*
X38348228Y-49078297D01*
X38183816Y-49111000D01*
X38016184Y-49111000D01*
X37851772Y-49078297D01*
X37696900Y-49014147D01*
X37557519Y-48921015D01*
X37438985Y-48802481D01*
X37345853Y-48663100D01*
X37281703Y-48508228D01*
X37249000Y-48343816D01*
X37249000Y-48176184D01*
X37281703Y-48011772D01*
X37345853Y-47856900D01*
X37438985Y-47717519D01*
X37557519Y-47598985D01*
X37696900Y-47505853D01*
X37851772Y-47441703D01*
X38016184Y-47409000D01*
X38183816Y-47409000D01*
X38348228Y-47441703D01*
G37*
G36*
X53588228Y-47441703D02*
G01*
X53743100Y-47505853D01*
X53882481Y-47598985D01*
X54001015Y-47717519D01*
X54094147Y-47856900D01*
X54158297Y-48011772D01*
X54191000Y-48176184D01*
X54191000Y-48343816D01*
X54158297Y-48508228D01*
X54094147Y-48663100D01*
X54001015Y-48802481D01*
X53882481Y-48921015D01*
X53743100Y-49014147D01*
X53588228Y-49078297D01*
X53423816Y-49111000D01*
X53256184Y-49111000D01*
X53091772Y-49078297D01*
X52936900Y-49014147D01*
X52797519Y-48921015D01*
X52678985Y-48802481D01*
X52585853Y-48663100D01*
X52521703Y-48508228D01*
X52489000Y-48343816D01*
X52489000Y-48176184D01*
X52521703Y-48011772D01*
X52585853Y-47856900D01*
X52678985Y-47717519D01*
X52797519Y-47598985D01*
X52936900Y-47505853D01*
X53091772Y-47441703D01*
X53256184Y-47409000D01*
X53423816Y-47409000D01*
X53588228Y-47441703D01*
G37*
G36*
X6806564Y-44709389D02*
G01*
X6997833Y-44788615D01*
X6997835Y-44788616D01*
X7118138Y-44869000D01*
X7169973Y-44903635D01*
X7316365Y-45050027D01*
X7431385Y-45222167D01*
X7510611Y-45413436D01*
X7551000Y-45616484D01*
X7551000Y-45823516D01*
X7510611Y-46026564D01*
X7431385Y-46217833D01*
X7431384Y-46217835D01*
X7316365Y-46389973D01*
X7169973Y-46536365D01*
X6997835Y-46651384D01*
X6997834Y-46651385D01*
X6997833Y-46651385D01*
X6806564Y-46730611D01*
X6603516Y-46771000D01*
X6396484Y-46771000D01*
X6193436Y-46730611D01*
X6002167Y-46651385D01*
X6002166Y-46651385D01*
X6002165Y-46651384D01*
X5830027Y-46536365D01*
X5683635Y-46389973D01*
X5568616Y-46217835D01*
X5568615Y-46217833D01*
X5489389Y-46026564D01*
X5449000Y-45823516D01*
X5449000Y-45616484D01*
X5489389Y-45413436D01*
X5568615Y-45222167D01*
X5683635Y-45050027D01*
X5830027Y-44903635D01*
X5881862Y-44869000D01*
X6002165Y-44788616D01*
X6002167Y-44788615D01*
X6193436Y-44709389D01*
X6396484Y-44669000D01*
X6603516Y-44669000D01*
X6806564Y-44709389D01*
G37*
G36*
X306564Y-44709389D02*
G01*
X497833Y-44788615D01*
X497835Y-44788616D01*
X618138Y-44869000D01*
X669973Y-44903635D01*
X816365Y-45050027D01*
X931385Y-45222167D01*
X1010611Y-45413436D01*
X1051000Y-45616484D01*
X1051000Y-45823516D01*
X1010611Y-46026564D01*
X931385Y-46217833D01*
X931384Y-46217835D01*
X816365Y-46389973D01*
X669973Y-46536365D01*
X497835Y-46651384D01*
X497834Y-46651385D01*
X497833Y-46651385D01*
X306564Y-46730611D01*
X103516Y-46771000D01*
X-103516Y-46771000D01*
X-306564Y-46730611D01*
X-497833Y-46651385D01*
X-497834Y-46651385D01*
X-497835Y-46651384D01*
X-669973Y-46536365D01*
X-816365Y-46389973D01*
X-931384Y-46217835D01*
X-931385Y-46217833D01*
X-1010611Y-46026564D01*
X-1051000Y-45823516D01*
X-1051000Y-45616484D01*
X-1010611Y-45413436D01*
X-931385Y-45222167D01*
X-816365Y-45050027D01*
X-669973Y-44903635D01*
X-618138Y-44869000D01*
X-497835Y-44788616D01*
X-497833Y-44788615D01*
X-306564Y-44709389D01*
X-103516Y-44669000D01*
X103516Y-44669000D01*
X306564Y-44709389D01*
G37*
G36*
X30783765Y-44718620D02*
G01*
X30952751Y-44788616D01*
X30973288Y-44797123D01*
X31143854Y-44911092D01*
X31288908Y-45056146D01*
X31402877Y-45226712D01*
X31481380Y-45416235D01*
X31521400Y-45617431D01*
X31521400Y-45822569D01*
X31481380Y-46023765D01*
X31402877Y-46213288D01*
X31288908Y-46383854D01*
X31143854Y-46528908D01*
X30973288Y-46642877D01*
X30973287Y-46642878D01*
X30973286Y-46642878D01*
X30783765Y-46721380D01*
X30582570Y-46761400D01*
X30377430Y-46761400D01*
X30176235Y-46721380D01*
X29986714Y-46642878D01*
X29986713Y-46642878D01*
X29986712Y-46642877D01*
X29816146Y-46528908D01*
X29671092Y-46383854D01*
X29557123Y-46213288D01*
X29478620Y-46023765D01*
X29438600Y-45822569D01*
X29438600Y-45617431D01*
X29478620Y-45416235D01*
X29557123Y-45226712D01*
X29671092Y-45056146D01*
X29816146Y-44911092D01*
X29986712Y-44797123D01*
X30007250Y-44788616D01*
X30176235Y-44718620D01*
X30377430Y-44678600D01*
X30582570Y-44678600D01*
X30783765Y-44718620D01*
G37*
G36*
X53588228Y-44901703D02*
G01*
X53743100Y-44965853D01*
X53882481Y-45058985D01*
X54001015Y-45177519D01*
X54094147Y-45316900D01*
X54158297Y-45471772D01*
X54191000Y-45636184D01*
X54191000Y-45803816D01*
X54158297Y-45968228D01*
X54094147Y-46123100D01*
X54001015Y-46262481D01*
X53882481Y-46381015D01*
X53743100Y-46474147D01*
X53588228Y-46538297D01*
X53423816Y-46571000D01*
X53256184Y-46571000D01*
X53091772Y-46538297D01*
X52936900Y-46474147D01*
X52797519Y-46381015D01*
X52678985Y-46262481D01*
X52585853Y-46123100D01*
X52521703Y-45968228D01*
X52489000Y-45803816D01*
X52489000Y-45636184D01*
X52521703Y-45471772D01*
X52585853Y-45316900D01*
X52678985Y-45177519D01*
X52797519Y-45058985D01*
X52936900Y-44965853D01*
X53091772Y-44901703D01*
X53256184Y-44869000D01*
X53423816Y-44869000D01*
X53588228Y-44901703D01*
G37*
G36*
X38348228Y-44901703D02*
G01*
X38503100Y-44965853D01*
X38642481Y-45058985D01*
X38761015Y-45177519D01*
X38854147Y-45316900D01*
X38918297Y-45471772D01*
X38951000Y-45636184D01*
X38951000Y-45803816D01*
X38918297Y-45968228D01*
X38854147Y-46123100D01*
X38761015Y-46262481D01*
X38642481Y-46381015D01*
X38503100Y-46474147D01*
X38348228Y-46538297D01*
X38183816Y-46571000D01*
X38016184Y-46571000D01*
X37851772Y-46538297D01*
X37696900Y-46474147D01*
X37557519Y-46381015D01*
X37438985Y-46262481D01*
X37345853Y-46123100D01*
X37281703Y-45968228D01*
X37249000Y-45803816D01*
X37249000Y-45636184D01*
X37281703Y-45471772D01*
X37345853Y-45316900D01*
X37438985Y-45177519D01*
X37557519Y-45058985D01*
X37696900Y-44965853D01*
X37851772Y-44901703D01*
X38016184Y-44869000D01*
X38183816Y-44869000D01*
X38348228Y-44901703D01*
G37*
G36*
X91743765Y-42178620D02*
G01*
X91933288Y-42257123D01*
X92103854Y-42371092D01*
X92248908Y-42516146D01*
X92362877Y-42686712D01*
X92441380Y-42876235D01*
X92481400Y-43077431D01*
X92481400Y-43282569D01*
X92441380Y-43483765D01*
X92362877Y-43673288D01*
X92248908Y-43843854D01*
X92103854Y-43988908D01*
X91933288Y-44102877D01*
X91933287Y-44102878D01*
X91933286Y-44102878D01*
X91743765Y-44181380D01*
X91542570Y-44221400D01*
X91337430Y-44221400D01*
X91136235Y-44181380D01*
X90946714Y-44102878D01*
X90946713Y-44102878D01*
X90946712Y-44102877D01*
X90776146Y-43988908D01*
X90631092Y-43843854D01*
X90517123Y-43673288D01*
X90438620Y-43483765D01*
X90398600Y-43282569D01*
X90398600Y-43077431D01*
X90438620Y-42876235D01*
X90517123Y-42686712D01*
X90631092Y-42516146D01*
X90776146Y-42371092D01*
X90946712Y-42257123D01*
X91136235Y-42178620D01*
X91337430Y-42138600D01*
X91542570Y-42138600D01*
X91743765Y-42178620D01*
G37*
G36*
X53588228Y-42361703D02*
G01*
X53743100Y-42425853D01*
X53882481Y-42518985D01*
X54001015Y-42637519D01*
X54094147Y-42776900D01*
X54158297Y-42931772D01*
X54191000Y-43096184D01*
X54191000Y-43263816D01*
X54158297Y-43428228D01*
X54094147Y-43583100D01*
X54001015Y-43722481D01*
X53882481Y-43841015D01*
X53743100Y-43934147D01*
X53588228Y-43998297D01*
X53423816Y-44031000D01*
X53256184Y-44031000D01*
X53091772Y-43998297D01*
X52936900Y-43934147D01*
X52797519Y-43841015D01*
X52678985Y-43722481D01*
X52585853Y-43583100D01*
X52521703Y-43428228D01*
X52489000Y-43263816D01*
X52489000Y-43096184D01*
X52521703Y-42931772D01*
X52585853Y-42776900D01*
X52678985Y-42637519D01*
X52797519Y-42518985D01*
X52936900Y-42425853D01*
X53091772Y-42361703D01*
X53256184Y-42329000D01*
X53423816Y-42329000D01*
X53588228Y-42361703D01*
G37*
G36*
X23108228Y-42361703D02*
G01*
X23263100Y-42425853D01*
X23402481Y-42518985D01*
X23521015Y-42637519D01*
X23614147Y-42776900D01*
X23678297Y-42931772D01*
X23711000Y-43096184D01*
X23711000Y-43263816D01*
X23678297Y-43428228D01*
X23614147Y-43583100D01*
X23521015Y-43722481D01*
X23402481Y-43841015D01*
X23263100Y-43934147D01*
X23108228Y-43998297D01*
X22943816Y-44031000D01*
X22776184Y-44031000D01*
X22611772Y-43998297D01*
X22456900Y-43934147D01*
X22317519Y-43841015D01*
X22198985Y-43722481D01*
X22105853Y-43583100D01*
X22041703Y-43428228D01*
X22009000Y-43263816D01*
X22009000Y-43096184D01*
X22041703Y-42931772D01*
X22105853Y-42776900D01*
X22198985Y-42637519D01*
X22317519Y-42518985D01*
X22456900Y-42425853D01*
X22611772Y-42361703D01*
X22776184Y-42329000D01*
X22943816Y-42329000D01*
X23108228Y-42361703D01*
G37*
G36*
X38348228Y-42361703D02*
G01*
X38503100Y-42425853D01*
X38642481Y-42518985D01*
X38761015Y-42637519D01*
X38854147Y-42776900D01*
X38918297Y-42931772D01*
X38951000Y-43096184D01*
X38951000Y-43263816D01*
X38918297Y-43428228D01*
X38854147Y-43583100D01*
X38761015Y-43722481D01*
X38642481Y-43841015D01*
X38503100Y-43934147D01*
X38348228Y-43998297D01*
X38183816Y-44031000D01*
X38016184Y-44031000D01*
X37851772Y-43998297D01*
X37696900Y-43934147D01*
X37557519Y-43841015D01*
X37438985Y-43722481D01*
X37345853Y-43583100D01*
X37281703Y-43428228D01*
X37249000Y-43263816D01*
X37249000Y-43096184D01*
X37281703Y-42931772D01*
X37345853Y-42776900D01*
X37438985Y-42637519D01*
X37557519Y-42518985D01*
X37696900Y-42425853D01*
X37851772Y-42361703D01*
X38016184Y-42329000D01*
X38183816Y-42329000D01*
X38348228Y-42361703D01*
G37*
G36*
X15488228Y-42321703D02*
G01*
X15643100Y-42385853D01*
X15782481Y-42478985D01*
X15901015Y-42597519D01*
X15994147Y-42736900D01*
X16058297Y-42891772D01*
X16091000Y-43056184D01*
X16091000Y-43223816D01*
X16058297Y-43388228D01*
X15994147Y-43543100D01*
X15901015Y-43682481D01*
X15782481Y-43801015D01*
X15643100Y-43894147D01*
X15488228Y-43958297D01*
X15323816Y-43991000D01*
X15156184Y-43991000D01*
X14991772Y-43958297D01*
X14836900Y-43894147D01*
X14697519Y-43801015D01*
X14578985Y-43682481D01*
X14485853Y-43543100D01*
X14421703Y-43388228D01*
X14389000Y-43223816D01*
X14389000Y-43056184D01*
X14421703Y-42891772D01*
X14485853Y-42736900D01*
X14578985Y-42597519D01*
X14697519Y-42478985D01*
X14836900Y-42385853D01*
X14991772Y-42321703D01*
X15156184Y-42289000D01*
X15323816Y-42289000D01*
X15488228Y-42321703D01*
G37*
G36*
X68784473Y-42505938D02*
G01*
X68912049Y-42558782D01*
X69026859Y-42635495D01*
X69124505Y-42733141D01*
X69201218Y-42847951D01*
X69254062Y-42975527D01*
X69281000Y-43110956D01*
X69281000Y-43249044D01*
X69254062Y-43384473D01*
X69201218Y-43512049D01*
X69124505Y-43626859D01*
X69026859Y-43724505D01*
X68912049Y-43801218D01*
X68784473Y-43854062D01*
X68649044Y-43881000D01*
X68510956Y-43881000D01*
X68375527Y-43854062D01*
X68247951Y-43801218D01*
X68133141Y-43724505D01*
X68035495Y-43626859D01*
X67958782Y-43512049D01*
X67905938Y-43384473D01*
X67879000Y-43249044D01*
X67879000Y-43110956D01*
X67905938Y-42975527D01*
X67958782Y-42847951D01*
X68035495Y-42733141D01*
X68133141Y-42635495D01*
X68247951Y-42558782D01*
X68375527Y-42505938D01*
X68510956Y-42479000D01*
X68649044Y-42479000D01*
X68784473Y-42505938D01*
G37*
G36*
X67514473Y-41235938D02*
G01*
X67642049Y-41288782D01*
X67756859Y-41365495D01*
X67854505Y-41463141D01*
X67931218Y-41577951D01*
X67984062Y-41705527D01*
X68011000Y-41840956D01*
X68011000Y-41979044D01*
X67984062Y-42114473D01*
X67931218Y-42242049D01*
X67854505Y-42356859D01*
X67756859Y-42454505D01*
X67642049Y-42531218D01*
X67514473Y-42584062D01*
X67379044Y-42611000D01*
X67240956Y-42611000D01*
X67105527Y-42584062D01*
X66977951Y-42531218D01*
X66935444Y-42502816D01*
X66913833Y-42491265D01*
X66890384Y-42484152D01*
X66865998Y-42481750D01*
X66841612Y-42484152D01*
X66818163Y-42491265D01*
X66796553Y-42502817D01*
X66777611Y-42518362D01*
X66762066Y-42537304D01*
X66750515Y-42558915D01*
X66743402Y-42582364D01*
X66741000Y-42606749D01*
X66741000Y-43881000D01*
X65339000Y-43881000D01*
X65339000Y-42479000D01*
X66613251Y-42479000D01*
X66637637Y-42476598D01*
X66661086Y-42469485D01*
X66682697Y-42457934D01*
X66701639Y-42442389D01*
X66717184Y-42423447D01*
X66728735Y-42401836D01*
X66735848Y-42378387D01*
X66738250Y-42354001D01*
X66735848Y-42329615D01*
X66728735Y-42306166D01*
X66717184Y-42284556D01*
X66688782Y-42242049D01*
X66635938Y-42114473D01*
X66609000Y-41979044D01*
X66609000Y-41840956D01*
X66635938Y-41705527D01*
X66688782Y-41577951D01*
X66765495Y-41463141D01*
X66863141Y-41365495D01*
X66977951Y-41288782D01*
X67105527Y-41235938D01*
X67240956Y-41209000D01*
X67379044Y-41209000D01*
X67514473Y-41235938D01*
G37*
G36*
X91743765Y-39638620D02*
G01*
X91933288Y-39717123D01*
X92103854Y-39831092D01*
X92248908Y-39976146D01*
X92362877Y-40146712D01*
X92441380Y-40336235D01*
X92481400Y-40537431D01*
X92481400Y-40742569D01*
X92441380Y-40943765D01*
X92362877Y-41133288D01*
X92248908Y-41303854D01*
X92103854Y-41448908D01*
X91933288Y-41562877D01*
X91933287Y-41562878D01*
X91933286Y-41562878D01*
X91743765Y-41641380D01*
X91542570Y-41681400D01*
X91337430Y-41681400D01*
X91136235Y-41641380D01*
X90946714Y-41562878D01*
X90946713Y-41562878D01*
X90946712Y-41562877D01*
X90776146Y-41448908D01*
X90631092Y-41303854D01*
X90517123Y-41133288D01*
X90438620Y-40943765D01*
X90398600Y-40742569D01*
X90398600Y-40537431D01*
X90438620Y-40336235D01*
X90517123Y-40146712D01*
X90631092Y-39976146D01*
X90776146Y-39831092D01*
X90946712Y-39717123D01*
X91136235Y-39638620D01*
X91337430Y-39598600D01*
X91542570Y-39598600D01*
X91743765Y-39638620D01*
G37*
G36*
X901000Y-41541000D02*
G01*
X-901000Y-41541000D01*
X-901000Y-39739000D01*
X901000Y-39739000D01*
X901000Y-41541000D01*
G37*
G36*
X53588228Y-39821703D02*
G01*
X53743100Y-39885853D01*
X53882481Y-39978985D01*
X54001015Y-40097519D01*
X54094147Y-40236900D01*
X54158297Y-40391772D01*
X54191000Y-40556184D01*
X54191000Y-40723816D01*
X54158297Y-40888228D01*
X54094147Y-41043100D01*
X54001015Y-41182481D01*
X53882481Y-41301015D01*
X53743100Y-41394147D01*
X53588228Y-41458297D01*
X53423816Y-41491000D01*
X53256184Y-41491000D01*
X53091772Y-41458297D01*
X52936900Y-41394147D01*
X52797519Y-41301015D01*
X52678985Y-41182481D01*
X52585853Y-41043100D01*
X52521703Y-40888228D01*
X52489000Y-40723816D01*
X52489000Y-40556184D01*
X52521703Y-40391772D01*
X52585853Y-40236900D01*
X52678985Y-40097519D01*
X52797519Y-39978985D01*
X52936900Y-39885853D01*
X53091772Y-39821703D01*
X53256184Y-39789000D01*
X53423816Y-39789000D01*
X53588228Y-39821703D01*
G37*
G36*
X38348228Y-39821703D02*
G01*
X38503100Y-39885853D01*
X38642481Y-39978985D01*
X38761015Y-40097519D01*
X38854147Y-40236900D01*
X38918297Y-40391772D01*
X38951000Y-40556184D01*
X38951000Y-40723816D01*
X38918297Y-40888228D01*
X38854147Y-41043100D01*
X38761015Y-41182481D01*
X38642481Y-41301015D01*
X38503100Y-41394147D01*
X38348228Y-41458297D01*
X38183816Y-41491000D01*
X38016184Y-41491000D01*
X37851772Y-41458297D01*
X37696900Y-41394147D01*
X37557519Y-41301015D01*
X37438985Y-41182481D01*
X37345853Y-41043100D01*
X37281703Y-40888228D01*
X37249000Y-40723816D01*
X37249000Y-40556184D01*
X37281703Y-40391772D01*
X37345853Y-40236900D01*
X37438985Y-40097519D01*
X37557519Y-39978985D01*
X37696900Y-39885853D01*
X37851772Y-39821703D01*
X38016184Y-39789000D01*
X38183816Y-39789000D01*
X38348228Y-39821703D01*
G37*
G36*
X16091000Y-41491000D02*
G01*
X14389000Y-41491000D01*
X14389000Y-39789000D01*
X16091000Y-39789000D01*
X16091000Y-41491000D01*
G37*
G36*
X113512Y-37203927D02*
G01*
X262812Y-37233624D01*
X426784Y-37301544D01*
X574354Y-37400147D01*
X699853Y-37525646D01*
X798456Y-37673216D01*
X866376Y-37837188D01*
X901000Y-38011259D01*
X901000Y-38188741D01*
X866376Y-38362812D01*
X798456Y-38526784D01*
X699853Y-38674354D01*
X574354Y-38799853D01*
X426784Y-38898456D01*
X262812Y-38966376D01*
X113512Y-38996073D01*
X88742Y-39001000D01*
X-88742Y-39001000D01*
X-113512Y-38996073D01*
X-262812Y-38966376D01*
X-426784Y-38898456D01*
X-574354Y-38799853D01*
X-699853Y-38674354D01*
X-798456Y-38526784D01*
X-866376Y-38362812D01*
X-901000Y-38188741D01*
X-901000Y-38011259D01*
X-866376Y-37837188D01*
X-798456Y-37673216D01*
X-699853Y-37525646D01*
X-574354Y-37400147D01*
X-426784Y-37301544D01*
X-262812Y-37233624D01*
X-113512Y-37203927D01*
X-88742Y-37199000D01*
X88742Y-37199000D01*
X113512Y-37203927D01*
G37*
G36*
X53588228Y-37281703D02*
G01*
X53743100Y-37345853D01*
X53882481Y-37438985D01*
X54001015Y-37557519D01*
X54094147Y-37696900D01*
X54158297Y-37851772D01*
X54191000Y-38016184D01*
X54191000Y-38183816D01*
X54158297Y-38348228D01*
X54094147Y-38503100D01*
X54001015Y-38642481D01*
X53882481Y-38761015D01*
X53743100Y-38854147D01*
X53588228Y-38918297D01*
X53423816Y-38951000D01*
X53256184Y-38951000D01*
X53091772Y-38918297D01*
X52936900Y-38854147D01*
X52797519Y-38761015D01*
X52678985Y-38642481D01*
X52585853Y-38503100D01*
X52521703Y-38348228D01*
X52489000Y-38183816D01*
X52489000Y-38016184D01*
X52521703Y-37851772D01*
X52585853Y-37696900D01*
X52678985Y-37557519D01*
X52797519Y-37438985D01*
X52936900Y-37345853D01*
X53091772Y-37281703D01*
X53256184Y-37249000D01*
X53423816Y-37249000D01*
X53588228Y-37281703D01*
G37*
G36*
X38348228Y-37281703D02*
G01*
X38503100Y-37345853D01*
X38642481Y-37438985D01*
X38761015Y-37557519D01*
X38854147Y-37696900D01*
X38918297Y-37851772D01*
X38951000Y-38016184D01*
X38951000Y-38183816D01*
X38918297Y-38348228D01*
X38854147Y-38503100D01*
X38761015Y-38642481D01*
X38642481Y-38761015D01*
X38503100Y-38854147D01*
X38348228Y-38918297D01*
X38183816Y-38951000D01*
X38016184Y-38951000D01*
X37851772Y-38918297D01*
X37696900Y-38854147D01*
X37557519Y-38761015D01*
X37438985Y-38642481D01*
X37345853Y-38503100D01*
X37281703Y-38348228D01*
X37249000Y-38183816D01*
X37249000Y-38016184D01*
X37281703Y-37851772D01*
X37345853Y-37696900D01*
X37438985Y-37557519D01*
X37557519Y-37438985D01*
X37696900Y-37345853D01*
X37851772Y-37281703D01*
X38016184Y-37249000D01*
X38183816Y-37249000D01*
X38348228Y-37281703D01*
G37*
G36*
X68784473Y-37425938D02*
G01*
X68912049Y-37478782D01*
X69026859Y-37555495D01*
X69124505Y-37653141D01*
X69201218Y-37767951D01*
X69254062Y-37895527D01*
X69281000Y-38030956D01*
X69281000Y-38169044D01*
X69254062Y-38304473D01*
X69201218Y-38432049D01*
X69124505Y-38546859D01*
X69026859Y-38644505D01*
X68912049Y-38721218D01*
X68784473Y-38774062D01*
X68649044Y-38801000D01*
X68510956Y-38801000D01*
X68375527Y-38774062D01*
X68247951Y-38721218D01*
X68133141Y-38644505D01*
X68035495Y-38546859D01*
X67958782Y-38432049D01*
X67905938Y-38304473D01*
X67879000Y-38169044D01*
X67879000Y-38030956D01*
X67905938Y-37895527D01*
X67958782Y-37767951D01*
X68035495Y-37653141D01*
X68133141Y-37555495D01*
X68247951Y-37478782D01*
X68375527Y-37425938D01*
X68510956Y-37399000D01*
X68649044Y-37399000D01*
X68784473Y-37425938D01*
G37*
G36*
X67514473Y-36155938D02*
G01*
X67642049Y-36208782D01*
X67756859Y-36285495D01*
X67854505Y-36383141D01*
X67931218Y-36497951D01*
X67984062Y-36625527D01*
X68011000Y-36760956D01*
X68011000Y-36899044D01*
X67984062Y-37034473D01*
X67931218Y-37162049D01*
X67854505Y-37276859D01*
X67756859Y-37374505D01*
X67642049Y-37451218D01*
X67514473Y-37504062D01*
X67379044Y-37531000D01*
X67240956Y-37531000D01*
X67105527Y-37504062D01*
X66977951Y-37451218D01*
X66935444Y-37422816D01*
X66913833Y-37411265D01*
X66890384Y-37404152D01*
X66865998Y-37401750D01*
X66841612Y-37404152D01*
X66818163Y-37411265D01*
X66796553Y-37422817D01*
X66777611Y-37438362D01*
X66762066Y-37457304D01*
X66750515Y-37478915D01*
X66743402Y-37502364D01*
X66741000Y-37526749D01*
X66741000Y-38801000D01*
X65339000Y-38801000D01*
X65339000Y-37399000D01*
X66613251Y-37399000D01*
X66637637Y-37396598D01*
X66661086Y-37389485D01*
X66682697Y-37377934D01*
X66701639Y-37362389D01*
X66717184Y-37343447D01*
X66728735Y-37321836D01*
X66735848Y-37298387D01*
X66738250Y-37274001D01*
X66735848Y-37249615D01*
X66728735Y-37226166D01*
X66717184Y-37204556D01*
X66688782Y-37162049D01*
X66635938Y-37034473D01*
X66609000Y-36899044D01*
X66609000Y-36760956D01*
X66635938Y-36625527D01*
X66688782Y-36497951D01*
X66765495Y-36383141D01*
X66863141Y-36285495D01*
X66977951Y-36208782D01*
X67105527Y-36155938D01*
X67240956Y-36129000D01*
X67379044Y-36129000D01*
X67514473Y-36155938D01*
G37*
G36*
X113512Y-34663927D02*
G01*
X262812Y-34693624D01*
X426784Y-34761544D01*
X574354Y-34860147D01*
X699853Y-34985646D01*
X798456Y-35133216D01*
X866376Y-35297188D01*
X901000Y-35471259D01*
X901000Y-35648741D01*
X866376Y-35822812D01*
X798456Y-35986784D01*
X699853Y-36134354D01*
X574354Y-36259853D01*
X426784Y-36358456D01*
X262812Y-36426376D01*
X113512Y-36456073D01*
X88742Y-36461000D01*
X-88742Y-36461000D01*
X-113512Y-36456073D01*
X-262812Y-36426376D01*
X-426784Y-36358456D01*
X-574354Y-36259853D01*
X-699853Y-36134354D01*
X-798456Y-35986784D01*
X-866376Y-35822812D01*
X-901000Y-35648741D01*
X-901000Y-35471259D01*
X-866376Y-35297188D01*
X-798456Y-35133216D01*
X-699853Y-34985646D01*
X-574354Y-34860147D01*
X-426784Y-34761544D01*
X-262812Y-34693624D01*
X-113512Y-34663927D01*
X-88742Y-34659000D01*
X88742Y-34659000D01*
X113512Y-34663927D01*
G37*
G36*
X38348228Y-34741703D02*
G01*
X38503100Y-34805853D01*
X38642481Y-34898985D01*
X38761015Y-35017519D01*
X38854147Y-35156900D01*
X38918297Y-35311772D01*
X38951000Y-35476184D01*
X38951000Y-35643816D01*
X38918297Y-35808228D01*
X38854147Y-35963100D01*
X38761015Y-36102481D01*
X38642481Y-36221015D01*
X38503100Y-36314147D01*
X38348228Y-36378297D01*
X38183816Y-36411000D01*
X38016184Y-36411000D01*
X37851772Y-36378297D01*
X37696900Y-36314147D01*
X37557519Y-36221015D01*
X37438985Y-36102481D01*
X37345853Y-35963100D01*
X37281703Y-35808228D01*
X37249000Y-35643816D01*
X37249000Y-35476184D01*
X37281703Y-35311772D01*
X37345853Y-35156900D01*
X37438985Y-35017519D01*
X37557519Y-34898985D01*
X37696900Y-34805853D01*
X37851772Y-34741703D01*
X38016184Y-34709000D01*
X38183816Y-34709000D01*
X38348228Y-34741703D01*
G37*
G36*
X53588228Y-34741703D02*
G01*
X53743100Y-34805853D01*
X53882481Y-34898985D01*
X54001015Y-35017519D01*
X54094147Y-35156900D01*
X54158297Y-35311772D01*
X54191000Y-35476184D01*
X54191000Y-35643816D01*
X54158297Y-35808228D01*
X54094147Y-35963100D01*
X54001015Y-36102481D01*
X53882481Y-36221015D01*
X53743100Y-36314147D01*
X53588228Y-36378297D01*
X53423816Y-36411000D01*
X53256184Y-36411000D01*
X53091772Y-36378297D01*
X52936900Y-36314147D01*
X52797519Y-36221015D01*
X52678985Y-36102481D01*
X52585853Y-35963100D01*
X52521703Y-35808228D01*
X52489000Y-35643816D01*
X52489000Y-35476184D01*
X52521703Y-35311772D01*
X52585853Y-35156900D01*
X52678985Y-35017519D01*
X52797519Y-34898985D01*
X52936900Y-34805853D01*
X53091772Y-34741703D01*
X53256184Y-34709000D01*
X53423816Y-34709000D01*
X53588228Y-34741703D01*
G37*
G36*
X15488228Y-34741703D02*
G01*
X15643100Y-34805853D01*
X15782481Y-34898985D01*
X15901015Y-35017519D01*
X15994147Y-35156900D01*
X16058297Y-35311772D01*
X16091000Y-35476184D01*
X16091000Y-35643816D01*
X16058297Y-35808228D01*
X15994147Y-35963100D01*
X15901015Y-36102481D01*
X15782481Y-36221015D01*
X15643100Y-36314147D01*
X15488228Y-36378297D01*
X15323816Y-36411000D01*
X15156184Y-36411000D01*
X14991772Y-36378297D01*
X14836900Y-36314147D01*
X14697519Y-36221015D01*
X14578985Y-36102481D01*
X14485853Y-35963100D01*
X14421703Y-35808228D01*
X14389000Y-35643816D01*
X14389000Y-35476184D01*
X14421703Y-35311772D01*
X14485853Y-35156900D01*
X14578985Y-35017519D01*
X14697519Y-34898985D01*
X14836900Y-34805853D01*
X14991772Y-34741703D01*
X15156184Y-34709000D01*
X15323816Y-34709000D01*
X15488228Y-34741703D01*
G37*
G36*
X30783765Y-32018620D02*
G01*
X30973288Y-32097123D01*
X31143854Y-32211092D01*
X31288908Y-32356146D01*
X31402877Y-32526712D01*
X31481380Y-32716235D01*
X31521400Y-32917431D01*
X31521400Y-33122569D01*
X31481380Y-33323765D01*
X31402877Y-33513288D01*
X31288908Y-33683854D01*
X31143854Y-33828908D01*
X30973288Y-33942877D01*
X30973287Y-33942878D01*
X30973286Y-33942878D01*
X30783765Y-34021380D01*
X30582570Y-34061400D01*
X30377430Y-34061400D01*
X30176235Y-34021380D01*
X29986714Y-33942878D01*
X29986713Y-33942878D01*
X29986712Y-33942877D01*
X29816146Y-33828908D01*
X29671092Y-33683854D01*
X29557123Y-33513288D01*
X29478620Y-33323765D01*
X29438600Y-33122569D01*
X29438600Y-32917431D01*
X29478620Y-32716235D01*
X29557123Y-32526712D01*
X29671092Y-32356146D01*
X29816146Y-32211092D01*
X29986712Y-32097123D01*
X30176235Y-32018620D01*
X30377430Y-31978600D01*
X30582570Y-31978600D01*
X30783765Y-32018620D01*
G37*
G36*
X53588228Y-32201703D02*
G01*
X53743100Y-32265853D01*
X53882481Y-32358985D01*
X54001015Y-32477519D01*
X54094147Y-32616900D01*
X54158297Y-32771772D01*
X54191000Y-32936184D01*
X54191000Y-33103816D01*
X54158297Y-33268228D01*
X54094147Y-33423100D01*
X54001015Y-33562481D01*
X53882481Y-33681015D01*
X53743100Y-33774147D01*
X53588228Y-33838297D01*
X53423816Y-33871000D01*
X53256184Y-33871000D01*
X53091772Y-33838297D01*
X52936900Y-33774147D01*
X52797519Y-33681015D01*
X52678985Y-33562481D01*
X52585853Y-33423100D01*
X52521703Y-33268228D01*
X52489000Y-33103816D01*
X52489000Y-32936184D01*
X52521703Y-32771772D01*
X52585853Y-32616900D01*
X52678985Y-32477519D01*
X52797519Y-32358985D01*
X52936900Y-32265853D01*
X53091772Y-32201703D01*
X53256184Y-32169000D01*
X53423816Y-32169000D01*
X53588228Y-32201703D01*
G37*
G36*
X23108228Y-32201703D02*
G01*
X23263100Y-32265853D01*
X23402481Y-32358985D01*
X23521015Y-32477519D01*
X23614147Y-32616900D01*
X23678297Y-32771772D01*
X23711000Y-32936184D01*
X23711000Y-33103816D01*
X23678297Y-33268228D01*
X23614147Y-33423100D01*
X23521015Y-33562481D01*
X23402481Y-33681015D01*
X23263100Y-33774147D01*
X23108228Y-33838297D01*
X22943816Y-33871000D01*
X22776184Y-33871000D01*
X22611772Y-33838297D01*
X22456900Y-33774147D01*
X22317519Y-33681015D01*
X22198985Y-33562481D01*
X22105853Y-33423100D01*
X22041703Y-33268228D01*
X22009000Y-33103816D01*
X22009000Y-32936184D01*
X22041703Y-32771772D01*
X22105853Y-32616900D01*
X22198985Y-32477519D01*
X22317519Y-32358985D01*
X22456900Y-32265853D01*
X22611772Y-32201703D01*
X22776184Y-32169000D01*
X22943816Y-32169000D01*
X23108228Y-32201703D01*
G37*
G36*
X38348228Y-32201703D02*
G01*
X38503100Y-32265853D01*
X38642481Y-32358985D01*
X38761015Y-32477519D01*
X38854147Y-32616900D01*
X38918297Y-32771772D01*
X38951000Y-32936184D01*
X38951000Y-33103816D01*
X38918297Y-33268228D01*
X38854147Y-33423100D01*
X38761015Y-33562481D01*
X38642481Y-33681015D01*
X38503100Y-33774147D01*
X38348228Y-33838297D01*
X38183816Y-33871000D01*
X38016184Y-33871000D01*
X37851772Y-33838297D01*
X37696900Y-33774147D01*
X37557519Y-33681015D01*
X37438985Y-33562481D01*
X37345853Y-33423100D01*
X37281703Y-33268228D01*
X37249000Y-33103816D01*
X37249000Y-32936184D01*
X37281703Y-32771772D01*
X37345853Y-32616900D01*
X37438985Y-32477519D01*
X37557519Y-32358985D01*
X37696900Y-32265853D01*
X37851772Y-32201703D01*
X38016184Y-32169000D01*
X38183816Y-32169000D01*
X38348228Y-32201703D01*
G37*
G36*
X68889473Y-32345938D02*
G01*
X69017049Y-32398782D01*
X69131859Y-32475495D01*
X69229505Y-32573141D01*
X69306218Y-32687951D01*
X69359062Y-32815527D01*
X69386000Y-32950956D01*
X69386000Y-33089044D01*
X69359062Y-33224473D01*
X69306218Y-33352049D01*
X69229505Y-33466859D01*
X69131859Y-33564505D01*
X69017049Y-33641218D01*
X68889473Y-33694062D01*
X68754044Y-33721000D01*
X68615956Y-33721000D01*
X68480527Y-33694062D01*
X68352951Y-33641218D01*
X68238141Y-33564505D01*
X68140495Y-33466859D01*
X68063782Y-33352049D01*
X68010938Y-33224473D01*
X67984000Y-33089044D01*
X67984000Y-32950956D01*
X68010938Y-32815527D01*
X68063782Y-32687951D01*
X68140495Y-32573141D01*
X68238141Y-32475495D01*
X68352951Y-32398782D01*
X68480527Y-32345938D01*
X68615956Y-32319000D01*
X68754044Y-32319000D01*
X68889473Y-32345938D01*
G37*
G36*
X67619473Y-31075938D02*
G01*
X67747049Y-31128782D01*
X67861859Y-31205495D01*
X67959505Y-31303141D01*
X68036218Y-31417951D01*
X68089062Y-31545527D01*
X68116000Y-31680956D01*
X68116000Y-31819044D01*
X68089062Y-31954473D01*
X68036218Y-32082049D01*
X67959505Y-32196859D01*
X67861859Y-32294505D01*
X67747049Y-32371218D01*
X67619473Y-32424062D01*
X67484044Y-32451000D01*
X67345956Y-32451000D01*
X67210527Y-32424062D01*
X67082951Y-32371218D01*
X67040444Y-32342816D01*
X67018833Y-32331265D01*
X66995384Y-32324152D01*
X66970998Y-32321750D01*
X66946612Y-32324152D01*
X66923163Y-32331265D01*
X66901553Y-32342817D01*
X66882611Y-32358362D01*
X66867066Y-32377304D01*
X66855515Y-32398915D01*
X66848402Y-32422364D01*
X66846000Y-32446749D01*
X66846000Y-33721000D01*
X65444000Y-33721000D01*
X65444000Y-32319000D01*
X66718251Y-32319000D01*
X66742637Y-32316598D01*
X66766086Y-32309485D01*
X66787697Y-32297934D01*
X66806639Y-32282389D01*
X66822184Y-32263447D01*
X66833735Y-32241836D01*
X66840848Y-32218387D01*
X66843250Y-32194001D01*
X66840848Y-32169615D01*
X66833735Y-32146166D01*
X66822184Y-32124556D01*
X66793782Y-32082049D01*
X66740938Y-31954473D01*
X66714000Y-31819044D01*
X66714000Y-31680956D01*
X66740938Y-31545527D01*
X66793782Y-31417951D01*
X66870495Y-31303141D01*
X66968141Y-31205495D01*
X67082951Y-31128782D01*
X67210527Y-31075938D01*
X67345956Y-31049000D01*
X67484044Y-31049000D01*
X67619473Y-31075938D01*
G37*
G36*
X30783765Y-29478620D02*
G01*
X30973288Y-29557123D01*
X31143854Y-29671092D01*
X31288908Y-29816146D01*
X31402877Y-29986712D01*
X31481380Y-30176235D01*
X31521400Y-30377431D01*
X31521400Y-30582569D01*
X31481380Y-30783765D01*
X31402877Y-30973288D01*
X31288908Y-31143854D01*
X31143854Y-31288908D01*
X30973288Y-31402877D01*
X30973287Y-31402878D01*
X30973286Y-31402878D01*
X30783765Y-31481380D01*
X30582570Y-31521400D01*
X30377430Y-31521400D01*
X30176235Y-31481380D01*
X29986714Y-31402878D01*
X29986713Y-31402878D01*
X29986712Y-31402877D01*
X29816146Y-31288908D01*
X29671092Y-31143854D01*
X29557123Y-30973288D01*
X29478620Y-30783765D01*
X29438600Y-30582569D01*
X29438600Y-30377431D01*
X29478620Y-30176235D01*
X29557123Y-29986712D01*
X29671092Y-29816146D01*
X29816146Y-29671092D01*
X29986712Y-29557123D01*
X30176235Y-29478620D01*
X30377430Y-29438600D01*
X30582570Y-29438600D01*
X30783765Y-29478620D01*
G37*
G36*
X113512Y-29583927D02*
G01*
X262812Y-29613624D01*
X426784Y-29681544D01*
X574354Y-29780147D01*
X699853Y-29905646D01*
X798456Y-30053216D01*
X866376Y-30217188D01*
X901000Y-30391259D01*
X901000Y-30568741D01*
X866376Y-30742812D01*
X798456Y-30906784D01*
X699853Y-31054354D01*
X574354Y-31179853D01*
X426784Y-31278456D01*
X262812Y-31346376D01*
X113512Y-31376073D01*
X88742Y-31381000D01*
X-88742Y-31381000D01*
X-113512Y-31376073D01*
X-262812Y-31346376D01*
X-426784Y-31278456D01*
X-574354Y-31179853D01*
X-699853Y-31054354D01*
X-798456Y-30906784D01*
X-866376Y-30742812D01*
X-901000Y-30568741D01*
X-901000Y-30391259D01*
X-866376Y-30217188D01*
X-798456Y-30053216D01*
X-699853Y-29905646D01*
X-574354Y-29780147D01*
X-426784Y-29681544D01*
X-262812Y-29613624D01*
X-113512Y-29583927D01*
X-88742Y-29579000D01*
X88742Y-29579000D01*
X113512Y-29583927D01*
G37*
G36*
X53588228Y-29661703D02*
G01*
X53743100Y-29725853D01*
X53882481Y-29818985D01*
X54001015Y-29937519D01*
X54094147Y-30076900D01*
X54158297Y-30231772D01*
X54191000Y-30396184D01*
X54191000Y-30563816D01*
X54158297Y-30728228D01*
X54094147Y-30883100D01*
X54001015Y-31022481D01*
X53882481Y-31141015D01*
X53743100Y-31234147D01*
X53588228Y-31298297D01*
X53423816Y-31331000D01*
X53256184Y-31331000D01*
X53091772Y-31298297D01*
X52936900Y-31234147D01*
X52797519Y-31141015D01*
X52678985Y-31022481D01*
X52585853Y-30883100D01*
X52521703Y-30728228D01*
X52489000Y-30563816D01*
X52489000Y-30396184D01*
X52521703Y-30231772D01*
X52585853Y-30076900D01*
X52678985Y-29937519D01*
X52797519Y-29818985D01*
X52936900Y-29725853D01*
X53091772Y-29661703D01*
X53256184Y-29629000D01*
X53423816Y-29629000D01*
X53588228Y-29661703D01*
G37*
G36*
X38348228Y-29661703D02*
G01*
X38503100Y-29725853D01*
X38642481Y-29818985D01*
X38761015Y-29937519D01*
X38854147Y-30076900D01*
X38918297Y-30231772D01*
X38951000Y-30396184D01*
X38951000Y-30563816D01*
X38918297Y-30728228D01*
X38854147Y-30883100D01*
X38761015Y-31022481D01*
X38642481Y-31141015D01*
X38503100Y-31234147D01*
X38348228Y-31298297D01*
X38183816Y-31331000D01*
X38016184Y-31331000D01*
X37851772Y-31298297D01*
X37696900Y-31234147D01*
X37557519Y-31141015D01*
X37438985Y-31022481D01*
X37345853Y-30883100D01*
X37281703Y-30728228D01*
X37249000Y-30563816D01*
X37249000Y-30396184D01*
X37281703Y-30231772D01*
X37345853Y-30076900D01*
X37438985Y-29937519D01*
X37557519Y-29818985D01*
X37696900Y-29725853D01*
X37851772Y-29661703D01*
X38016184Y-29629000D01*
X38183816Y-29629000D01*
X38348228Y-29661703D01*
G37*
G36*
X30783765Y-26938620D02*
G01*
X30973288Y-27017123D01*
X31143854Y-27131092D01*
X31288908Y-27276146D01*
X31402877Y-27446712D01*
X31481380Y-27636235D01*
X31521400Y-27837431D01*
X31521400Y-28042569D01*
X31481380Y-28243765D01*
X31402877Y-28433288D01*
X31288908Y-28603854D01*
X31143854Y-28748908D01*
X30973288Y-28862877D01*
X30973287Y-28862878D01*
X30973286Y-28862878D01*
X30783765Y-28941380D01*
X30582570Y-28981400D01*
X30377430Y-28981400D01*
X30176235Y-28941380D01*
X29986714Y-28862878D01*
X29986713Y-28862878D01*
X29986712Y-28862877D01*
X29816146Y-28748908D01*
X29671092Y-28603854D01*
X29557123Y-28433288D01*
X29478620Y-28243765D01*
X29438600Y-28042569D01*
X29438600Y-27837431D01*
X29478620Y-27636235D01*
X29557123Y-27446712D01*
X29671092Y-27276146D01*
X29816146Y-27131092D01*
X29986712Y-27017123D01*
X30176235Y-26938620D01*
X30377430Y-26898600D01*
X30582570Y-26898600D01*
X30783765Y-26938620D01*
G37*
G36*
X113512Y-27043927D02*
G01*
X262812Y-27073624D01*
X426784Y-27141544D01*
X574354Y-27240147D01*
X699853Y-27365646D01*
X798456Y-27513216D01*
X866376Y-27677188D01*
X901000Y-27851259D01*
X901000Y-28028741D01*
X866376Y-28202812D01*
X798456Y-28366784D01*
X699853Y-28514354D01*
X574354Y-28639853D01*
X426784Y-28738456D01*
X262812Y-28806376D01*
X113512Y-28836073D01*
X88742Y-28841000D01*
X-88742Y-28841000D01*
X-113512Y-28836073D01*
X-262812Y-28806376D01*
X-426784Y-28738456D01*
X-574354Y-28639853D01*
X-699853Y-28514354D01*
X-798456Y-28366784D01*
X-866376Y-28202812D01*
X-901000Y-28028741D01*
X-901000Y-27851259D01*
X-866376Y-27677188D01*
X-798456Y-27513216D01*
X-699853Y-27365646D01*
X-574354Y-27240147D01*
X-426784Y-27141544D01*
X-262812Y-27073624D01*
X-113512Y-27043927D01*
X-88742Y-27039000D01*
X88742Y-27039000D01*
X113512Y-27043927D01*
G37*
G36*
X53588228Y-27121703D02*
G01*
X53743100Y-27185853D01*
X53882481Y-27278985D01*
X54001015Y-27397519D01*
X54094147Y-27536900D01*
X54158297Y-27691772D01*
X54191000Y-27856184D01*
X54191000Y-28023816D01*
X54158297Y-28188228D01*
X54094147Y-28343100D01*
X54001015Y-28482481D01*
X53882481Y-28601015D01*
X53743100Y-28694147D01*
X53588228Y-28758297D01*
X53423816Y-28791000D01*
X53256184Y-28791000D01*
X53091772Y-28758297D01*
X52936900Y-28694147D01*
X52797519Y-28601015D01*
X52678985Y-28482481D01*
X52585853Y-28343100D01*
X52521703Y-28188228D01*
X52489000Y-28023816D01*
X52489000Y-27856184D01*
X52521703Y-27691772D01*
X52585853Y-27536900D01*
X52678985Y-27397519D01*
X52797519Y-27278985D01*
X52936900Y-27185853D01*
X53091772Y-27121703D01*
X53256184Y-27089000D01*
X53423816Y-27089000D01*
X53588228Y-27121703D01*
G37*
G36*
X38348228Y-27121703D02*
G01*
X38503100Y-27185853D01*
X38642481Y-27278985D01*
X38761015Y-27397519D01*
X38854147Y-27536900D01*
X38918297Y-27691772D01*
X38951000Y-27856184D01*
X38951000Y-28023816D01*
X38918297Y-28188228D01*
X38854147Y-28343100D01*
X38761015Y-28482481D01*
X38642481Y-28601015D01*
X38503100Y-28694147D01*
X38348228Y-28758297D01*
X38183816Y-28791000D01*
X38016184Y-28791000D01*
X37851772Y-28758297D01*
X37696900Y-28694147D01*
X37557519Y-28601015D01*
X37438985Y-28482481D01*
X37345853Y-28343100D01*
X37281703Y-28188228D01*
X37249000Y-28023816D01*
X37249000Y-27856184D01*
X37281703Y-27691772D01*
X37345853Y-27536900D01*
X37438985Y-27397519D01*
X37557519Y-27278985D01*
X37696900Y-27185853D01*
X37851772Y-27121703D01*
X38016184Y-27089000D01*
X38183816Y-27089000D01*
X38348228Y-27121703D01*
G37*
G36*
X23108228Y-27081703D02*
G01*
X23263100Y-27145853D01*
X23402481Y-27238985D01*
X23521015Y-27357519D01*
X23614147Y-27496900D01*
X23678297Y-27651772D01*
X23711000Y-27816184D01*
X23711000Y-27983816D01*
X23678297Y-28148228D01*
X23614147Y-28303100D01*
X23521015Y-28442481D01*
X23402481Y-28561015D01*
X23263100Y-28654147D01*
X23108228Y-28718297D01*
X22943816Y-28751000D01*
X22776184Y-28751000D01*
X22611772Y-28718297D01*
X22456900Y-28654147D01*
X22317519Y-28561015D01*
X22198985Y-28442481D01*
X22105853Y-28303100D01*
X22041703Y-28148228D01*
X22009000Y-27983816D01*
X22009000Y-27816184D01*
X22041703Y-27651772D01*
X22105853Y-27496900D01*
X22198985Y-27357519D01*
X22317519Y-27238985D01*
X22456900Y-27145853D01*
X22611772Y-27081703D01*
X22776184Y-27049000D01*
X22943816Y-27049000D01*
X23108228Y-27081703D01*
G37*
G36*
X67619473Y-25995938D02*
G01*
X67747049Y-26048782D01*
X67861859Y-26125495D01*
X67959505Y-26223141D01*
X68036218Y-26337951D01*
X68089062Y-26465527D01*
X68116000Y-26600956D01*
X68116000Y-26739044D01*
X68089062Y-26874473D01*
X68036218Y-27002049D01*
X67959505Y-27116859D01*
X67861859Y-27214505D01*
X67747049Y-27291218D01*
X67619473Y-27344062D01*
X67484044Y-27371000D01*
X67345956Y-27371000D01*
X67210527Y-27344062D01*
X67082951Y-27291218D01*
X67040444Y-27262816D01*
X67018833Y-27251265D01*
X66995384Y-27244152D01*
X66970998Y-27241750D01*
X66946612Y-27244152D01*
X66923163Y-27251265D01*
X66901553Y-27262817D01*
X66882611Y-27278362D01*
X66867066Y-27297304D01*
X66855515Y-27318915D01*
X66848402Y-27342364D01*
X66846000Y-27366749D01*
X66846000Y-28641000D01*
X65444000Y-28641000D01*
X65444000Y-27239000D01*
X66718251Y-27239000D01*
X66742637Y-27236598D01*
X66766086Y-27229485D01*
X66787697Y-27217934D01*
X66806639Y-27202389D01*
X66822184Y-27183447D01*
X66833735Y-27161836D01*
X66840848Y-27138387D01*
X66843250Y-27114001D01*
X66840848Y-27089615D01*
X66833735Y-27066166D01*
X66822184Y-27044556D01*
X66793782Y-27002049D01*
X66740938Y-26874473D01*
X66714000Y-26739044D01*
X66714000Y-26600956D01*
X66740938Y-26465527D01*
X66793782Y-26337951D01*
X66870495Y-26223141D01*
X66968141Y-26125495D01*
X67082951Y-26048782D01*
X67210527Y-25995938D01*
X67345956Y-25969000D01*
X67484044Y-25969000D01*
X67619473Y-25995938D01*
G37*
G36*
X68889473Y-27265938D02*
G01*
X69017049Y-27318782D01*
X69131859Y-27395495D01*
X69229505Y-27493141D01*
X69306218Y-27607951D01*
X69359062Y-27735527D01*
X69386000Y-27870956D01*
X69386000Y-28009044D01*
X69359062Y-28144473D01*
X69306218Y-28272049D01*
X69229505Y-28386859D01*
X69131859Y-28484505D01*
X69017049Y-28561218D01*
X68889473Y-28614062D01*
X68754044Y-28641000D01*
X68615956Y-28641000D01*
X68480527Y-28614062D01*
X68352951Y-28561218D01*
X68238141Y-28484505D01*
X68140495Y-28386859D01*
X68063782Y-28272049D01*
X68010938Y-28144473D01*
X67984000Y-28009044D01*
X67984000Y-27870956D01*
X68010938Y-27735527D01*
X68063782Y-27607951D01*
X68140495Y-27493141D01*
X68238141Y-27395495D01*
X68352951Y-27318782D01*
X68480527Y-27265938D01*
X68615956Y-27239000D01*
X68754044Y-27239000D01*
X68889473Y-27265938D01*
G37*
G36*
X30783765Y-24398620D02*
G01*
X30973288Y-24477123D01*
X31143854Y-24591092D01*
X31288908Y-24736146D01*
X31402877Y-24906712D01*
X31481380Y-25096235D01*
X31521400Y-25297431D01*
X31521400Y-25502569D01*
X31481380Y-25703765D01*
X31402877Y-25893288D01*
X31288908Y-26063854D01*
X31143854Y-26208908D01*
X30973288Y-26322877D01*
X30973287Y-26322878D01*
X30973286Y-26322878D01*
X30783765Y-26401380D01*
X30582570Y-26441400D01*
X30377430Y-26441400D01*
X30176235Y-26401380D01*
X29986714Y-26322878D01*
X29986713Y-26322878D01*
X29986712Y-26322877D01*
X29816146Y-26208908D01*
X29671092Y-26063854D01*
X29557123Y-25893288D01*
X29478620Y-25703765D01*
X29438600Y-25502569D01*
X29438600Y-25297431D01*
X29478620Y-25096235D01*
X29557123Y-24906712D01*
X29671092Y-24736146D01*
X29816146Y-24591092D01*
X29986712Y-24477123D01*
X30176235Y-24398620D01*
X30377430Y-24358600D01*
X30582570Y-24358600D01*
X30783765Y-24398620D01*
G37*
G36*
X113512Y-24503927D02*
G01*
X262812Y-24533624D01*
X426784Y-24601544D01*
X574354Y-24700147D01*
X699853Y-24825646D01*
X798456Y-24973216D01*
X866376Y-25137188D01*
X901000Y-25311259D01*
X901000Y-25488741D01*
X866376Y-25662812D01*
X798456Y-25826784D01*
X699853Y-25974354D01*
X574354Y-26099853D01*
X426784Y-26198456D01*
X262812Y-26266376D01*
X113512Y-26296073D01*
X88742Y-26301000D01*
X-88742Y-26301000D01*
X-113512Y-26296073D01*
X-262812Y-26266376D01*
X-426784Y-26198456D01*
X-574354Y-26099853D01*
X-699853Y-25974354D01*
X-798456Y-25826784D01*
X-866376Y-25662812D01*
X-901000Y-25488741D01*
X-901000Y-25311259D01*
X-866376Y-25137188D01*
X-798456Y-24973216D01*
X-699853Y-24825646D01*
X-574354Y-24700147D01*
X-426784Y-24601544D01*
X-262812Y-24533624D01*
X-113512Y-24503927D01*
X-88742Y-24499000D01*
X88742Y-24499000D01*
X113512Y-24503927D01*
G37*
G36*
X38348228Y-24581703D02*
G01*
X38503100Y-24645853D01*
X38642481Y-24738985D01*
X38761015Y-24857519D01*
X38854147Y-24996900D01*
X38918297Y-25151772D01*
X38951000Y-25316184D01*
X38951000Y-25483816D01*
X38918297Y-25648228D01*
X38854147Y-25803100D01*
X38761015Y-25942481D01*
X38642481Y-26061015D01*
X38503100Y-26154147D01*
X38348228Y-26218297D01*
X38183816Y-26251000D01*
X38016184Y-26251000D01*
X37851772Y-26218297D01*
X37696900Y-26154147D01*
X37557519Y-26061015D01*
X37438985Y-25942481D01*
X37345853Y-25803100D01*
X37281703Y-25648228D01*
X37249000Y-25483816D01*
X37249000Y-25316184D01*
X37281703Y-25151772D01*
X37345853Y-24996900D01*
X37438985Y-24857519D01*
X37557519Y-24738985D01*
X37696900Y-24645853D01*
X37851772Y-24581703D01*
X38016184Y-24549000D01*
X38183816Y-24549000D01*
X38348228Y-24581703D01*
G37*
G36*
X23711000Y-26251000D02*
G01*
X22009000Y-26251000D01*
X22009000Y-24549000D01*
X23711000Y-24549000D01*
X23711000Y-26251000D01*
G37*
G36*
X15488228Y-24581703D02*
G01*
X15643100Y-24645853D01*
X15782481Y-24738985D01*
X15901015Y-24857519D01*
X15994147Y-24996900D01*
X16058297Y-25151772D01*
X16091000Y-25316184D01*
X16091000Y-25483816D01*
X16058297Y-25648228D01*
X15994147Y-25803100D01*
X15901015Y-25942481D01*
X15782481Y-26061015D01*
X15643100Y-26154147D01*
X15488228Y-26218297D01*
X15323816Y-26251000D01*
X15156184Y-26251000D01*
X14991772Y-26218297D01*
X14836900Y-26154147D01*
X14697519Y-26061015D01*
X14578985Y-25942481D01*
X14485853Y-25803100D01*
X14421703Y-25648228D01*
X14389000Y-25483816D01*
X14389000Y-25316184D01*
X14421703Y-25151772D01*
X14485853Y-24996900D01*
X14578985Y-24857519D01*
X14697519Y-24738985D01*
X14836900Y-24645853D01*
X14991772Y-24581703D01*
X15156184Y-24549000D01*
X15323816Y-24549000D01*
X15488228Y-24581703D01*
G37*
G36*
X53588228Y-24581703D02*
G01*
X53743100Y-24645853D01*
X53882481Y-24738985D01*
X54001015Y-24857519D01*
X54094147Y-24996900D01*
X54158297Y-25151772D01*
X54191000Y-25316184D01*
X54191000Y-25483816D01*
X54158297Y-25648228D01*
X54094147Y-25803100D01*
X54001015Y-25942481D01*
X53882481Y-26061015D01*
X53743100Y-26154147D01*
X53588228Y-26218297D01*
X53423816Y-26251000D01*
X53256184Y-26251000D01*
X53091772Y-26218297D01*
X52936900Y-26154147D01*
X52797519Y-26061015D01*
X52678985Y-25942481D01*
X52585853Y-25803100D01*
X52521703Y-25648228D01*
X52489000Y-25483816D01*
X52489000Y-25316184D01*
X52521703Y-25151772D01*
X52585853Y-24996900D01*
X52678985Y-24857519D01*
X52797519Y-24738985D01*
X52936900Y-24645853D01*
X53091772Y-24581703D01*
X53256184Y-24549000D01*
X53423816Y-24549000D01*
X53588228Y-24581703D01*
G37*
G36*
X113512Y-21963927D02*
G01*
X262812Y-21993624D01*
X426784Y-22061544D01*
X574354Y-22160147D01*
X699853Y-22285646D01*
X798456Y-22433216D01*
X866376Y-22597188D01*
X901000Y-22771259D01*
X901000Y-22948741D01*
X866376Y-23122812D01*
X798456Y-23286784D01*
X699853Y-23434354D01*
X574354Y-23559853D01*
X426784Y-23658456D01*
X262812Y-23726376D01*
X113512Y-23756073D01*
X88742Y-23761000D01*
X-88742Y-23761000D01*
X-113512Y-23756073D01*
X-262812Y-23726376D01*
X-426784Y-23658456D01*
X-574354Y-23559853D01*
X-699853Y-23434354D01*
X-798456Y-23286784D01*
X-866376Y-23122812D01*
X-901000Y-22948741D01*
X-901000Y-22771259D01*
X-866376Y-22597188D01*
X-798456Y-22433216D01*
X-699853Y-22285646D01*
X-574354Y-22160147D01*
X-426784Y-22061544D01*
X-262812Y-21993624D01*
X-113512Y-21963927D01*
X-88742Y-21959000D01*
X88742Y-21959000D01*
X113512Y-21963927D01*
G37*
G36*
X23108228Y-22041703D02*
G01*
X23263100Y-22105853D01*
X23402481Y-22198985D01*
X23521015Y-22317519D01*
X23614147Y-22456900D01*
X23678297Y-22611772D01*
X23711000Y-22776184D01*
X23711000Y-22943816D01*
X23678297Y-23108228D01*
X23614147Y-23263100D01*
X23521015Y-23402481D01*
X23402481Y-23521015D01*
X23263100Y-23614147D01*
X23108228Y-23678297D01*
X22943816Y-23711000D01*
X22776184Y-23711000D01*
X22611772Y-23678297D01*
X22456900Y-23614147D01*
X22317519Y-23521015D01*
X22198985Y-23402481D01*
X22105853Y-23263100D01*
X22041703Y-23108228D01*
X22009000Y-22943816D01*
X22009000Y-22776184D01*
X22041703Y-22611772D01*
X22105853Y-22456900D01*
X22198985Y-22317519D01*
X22317519Y-22198985D01*
X22456900Y-22105853D01*
X22611772Y-22041703D01*
X22776184Y-22009000D01*
X22943816Y-22009000D01*
X23108228Y-22041703D01*
G37*
G36*
X38348228Y-22041703D02*
G01*
X38503100Y-22105853D01*
X38642481Y-22198985D01*
X38761015Y-22317519D01*
X38854147Y-22456900D01*
X38918297Y-22611772D01*
X38951000Y-22776184D01*
X38951000Y-22943816D01*
X38918297Y-23108228D01*
X38854147Y-23263100D01*
X38761015Y-23402481D01*
X38642481Y-23521015D01*
X38503100Y-23614147D01*
X38348228Y-23678297D01*
X38183816Y-23711000D01*
X38016184Y-23711000D01*
X37851772Y-23678297D01*
X37696900Y-23614147D01*
X37557519Y-23521015D01*
X37438985Y-23402481D01*
X37345853Y-23263100D01*
X37281703Y-23108228D01*
X37249000Y-22943816D01*
X37249000Y-22776184D01*
X37281703Y-22611772D01*
X37345853Y-22456900D01*
X37438985Y-22317519D01*
X37557519Y-22198985D01*
X37696900Y-22105853D01*
X37851772Y-22041703D01*
X38016184Y-22009000D01*
X38183816Y-22009000D01*
X38348228Y-22041703D01*
G37*
G36*
X53588228Y-22041703D02*
G01*
X53743100Y-22105853D01*
X53882481Y-22198985D01*
X54001015Y-22317519D01*
X54094147Y-22456900D01*
X54158297Y-22611772D01*
X54191000Y-22776184D01*
X54191000Y-22943816D01*
X54158297Y-23108228D01*
X54094147Y-23263100D01*
X54001015Y-23402481D01*
X53882481Y-23521015D01*
X53743100Y-23614147D01*
X53588228Y-23678297D01*
X53423816Y-23711000D01*
X53256184Y-23711000D01*
X53091772Y-23678297D01*
X52936900Y-23614147D01*
X52797519Y-23521015D01*
X52678985Y-23402481D01*
X52585853Y-23263100D01*
X52521703Y-23108228D01*
X52489000Y-22943816D01*
X52489000Y-22776184D01*
X52521703Y-22611772D01*
X52585853Y-22456900D01*
X52678985Y-22317519D01*
X52797519Y-22198985D01*
X52936900Y-22105853D01*
X53091772Y-22041703D01*
X53256184Y-22009000D01*
X53423816Y-22009000D01*
X53588228Y-22041703D01*
G37*
G36*
X68889473Y-22185938D02*
G01*
X69017049Y-22238782D01*
X69131859Y-22315495D01*
X69229505Y-22413141D01*
X69306218Y-22527951D01*
X69359062Y-22655527D01*
X69386000Y-22790956D01*
X69386000Y-22929044D01*
X69359062Y-23064473D01*
X69306218Y-23192049D01*
X69229505Y-23306859D01*
X69131859Y-23404505D01*
X69017049Y-23481218D01*
X68889473Y-23534062D01*
X68754044Y-23561000D01*
X68615956Y-23561000D01*
X68480527Y-23534062D01*
X68352951Y-23481218D01*
X68238141Y-23404505D01*
X68140495Y-23306859D01*
X68063782Y-23192049D01*
X68010938Y-23064473D01*
X67984000Y-22929044D01*
X67984000Y-22790956D01*
X68010938Y-22655527D01*
X68063782Y-22527951D01*
X68140495Y-22413141D01*
X68238141Y-22315495D01*
X68352951Y-22238782D01*
X68480527Y-22185938D01*
X68615956Y-22159000D01*
X68754044Y-22159000D01*
X68889473Y-22185938D01*
G37*
G36*
X67619473Y-20915938D02*
G01*
X67747049Y-20968782D01*
X67861859Y-21045495D01*
X67959505Y-21143141D01*
X68036218Y-21257951D01*
X68089062Y-21385527D01*
X68116000Y-21520956D01*
X68116000Y-21659044D01*
X68089062Y-21794473D01*
X68036218Y-21922049D01*
X67959505Y-22036859D01*
X67861859Y-22134505D01*
X67747049Y-22211218D01*
X67619473Y-22264062D01*
X67484044Y-22291000D01*
X67345956Y-22291000D01*
X67210527Y-22264062D01*
X67082951Y-22211218D01*
X67040444Y-22182816D01*
X67018833Y-22171265D01*
X66995384Y-22164152D01*
X66970998Y-22161750D01*
X66946612Y-22164152D01*
X66923163Y-22171265D01*
X66901553Y-22182817D01*
X66882611Y-22198362D01*
X66867066Y-22217304D01*
X66855515Y-22238915D01*
X66848402Y-22262364D01*
X66846000Y-22286749D01*
X66846000Y-23561000D01*
X65444000Y-23561000D01*
X65444000Y-22159000D01*
X66718251Y-22159000D01*
X66742637Y-22156598D01*
X66766086Y-22149485D01*
X66787697Y-22137934D01*
X66806639Y-22122389D01*
X66822184Y-22103447D01*
X66833735Y-22081836D01*
X66840848Y-22058387D01*
X66843250Y-22034001D01*
X66840848Y-22009615D01*
X66833735Y-21986166D01*
X66822184Y-21964556D01*
X66793782Y-21922049D01*
X66740938Y-21794473D01*
X66714000Y-21659044D01*
X66714000Y-21520956D01*
X66740938Y-21385527D01*
X66793782Y-21257951D01*
X66870495Y-21143141D01*
X66968141Y-21045495D01*
X67082951Y-20968782D01*
X67210527Y-20915938D01*
X67345956Y-20889000D01*
X67484044Y-20889000D01*
X67619473Y-20915938D01*
G37*
G36*
X92341000Y-21221000D02*
G01*
X90539000Y-21221000D01*
X90539000Y-19419000D01*
X92341000Y-19419000D01*
X92341000Y-21221000D01*
G37*
G36*
X84721000Y-21221000D02*
G01*
X82919000Y-21221000D01*
X82919000Y-19419000D01*
X84721000Y-19419000D01*
X84721000Y-21221000D01*
G37*
G36*
X113512Y-19423927D02*
G01*
X262812Y-19453624D01*
X426784Y-19521544D01*
X574354Y-19620147D01*
X699853Y-19745646D01*
X798456Y-19893216D01*
X866376Y-20057188D01*
X901000Y-20231259D01*
X901000Y-20408741D01*
X866376Y-20582812D01*
X798456Y-20746784D01*
X699853Y-20894354D01*
X574354Y-21019853D01*
X426784Y-21118456D01*
X262812Y-21186376D01*
X113512Y-21216073D01*
X88742Y-21221000D01*
X-88742Y-21221000D01*
X-113512Y-21216073D01*
X-262812Y-21186376D01*
X-426784Y-21118456D01*
X-574354Y-21019853D01*
X-699853Y-20894354D01*
X-798456Y-20746784D01*
X-866376Y-20582812D01*
X-901000Y-20408741D01*
X-901000Y-20231259D01*
X-866376Y-20057188D01*
X-798456Y-19893216D01*
X-699853Y-19745646D01*
X-574354Y-19620147D01*
X-426784Y-19521544D01*
X-262812Y-19453624D01*
X-113512Y-19423927D01*
X-88742Y-19419000D01*
X88742Y-19419000D01*
X113512Y-19423927D01*
G37*
G36*
X53588228Y-19501703D02*
G01*
X53743100Y-19565853D01*
X53882481Y-19658985D01*
X54001015Y-19777519D01*
X54094147Y-19916900D01*
X54158297Y-20071772D01*
X54191000Y-20236184D01*
X54191000Y-20403816D01*
X54158297Y-20568228D01*
X54094147Y-20723100D01*
X54001015Y-20862481D01*
X53882481Y-20981015D01*
X53743100Y-21074147D01*
X53588228Y-21138297D01*
X53423816Y-21171000D01*
X53256184Y-21171000D01*
X53091772Y-21138297D01*
X52936900Y-21074147D01*
X52797519Y-20981015D01*
X52678985Y-20862481D01*
X52585853Y-20723100D01*
X52521703Y-20568228D01*
X52489000Y-20403816D01*
X52489000Y-20236184D01*
X52521703Y-20071772D01*
X52585853Y-19916900D01*
X52678985Y-19777519D01*
X52797519Y-19658985D01*
X52936900Y-19565853D01*
X53091772Y-19501703D01*
X53256184Y-19469000D01*
X53423816Y-19469000D01*
X53588228Y-19501703D01*
G37*
G36*
X30728228Y-19501703D02*
G01*
X30883100Y-19565853D01*
X31022481Y-19658985D01*
X31141015Y-19777519D01*
X31234147Y-19916900D01*
X31298297Y-20071772D01*
X31331000Y-20236184D01*
X31331000Y-20403816D01*
X31298297Y-20568228D01*
X31234147Y-20723100D01*
X31141015Y-20862481D01*
X31022481Y-20981015D01*
X30883100Y-21074147D01*
X30728228Y-21138297D01*
X30563816Y-21171000D01*
X30396184Y-21171000D01*
X30231772Y-21138297D01*
X30076900Y-21074147D01*
X29937519Y-20981015D01*
X29818985Y-20862481D01*
X29725853Y-20723100D01*
X29661703Y-20568228D01*
X29629000Y-20403816D01*
X29629000Y-20236184D01*
X29661703Y-20071772D01*
X29725853Y-19916900D01*
X29818985Y-19777519D01*
X29937519Y-19658985D01*
X30076900Y-19565853D01*
X30231772Y-19501703D01*
X30396184Y-19469000D01*
X30563816Y-19469000D01*
X30728228Y-19501703D01*
G37*
G36*
X38348228Y-19501703D02*
G01*
X38503100Y-19565853D01*
X38642481Y-19658985D01*
X38761015Y-19777519D01*
X38854147Y-19916900D01*
X38918297Y-20071772D01*
X38951000Y-20236184D01*
X38951000Y-20403816D01*
X38918297Y-20568228D01*
X38854147Y-20723100D01*
X38761015Y-20862481D01*
X38642481Y-20981015D01*
X38503100Y-21074147D01*
X38348228Y-21138297D01*
X38183816Y-21171000D01*
X38016184Y-21171000D01*
X37851772Y-21138297D01*
X37696900Y-21074147D01*
X37557519Y-20981015D01*
X37438985Y-20862481D01*
X37345853Y-20723100D01*
X37281703Y-20568228D01*
X37249000Y-20403816D01*
X37249000Y-20236184D01*
X37281703Y-20071772D01*
X37345853Y-19916900D01*
X37438985Y-19777519D01*
X37557519Y-19658985D01*
X37696900Y-19565853D01*
X37851772Y-19501703D01*
X38016184Y-19469000D01*
X38183816Y-19469000D01*
X38348228Y-19501703D01*
G37*
G36*
X83933512Y-16883927D02*
G01*
X84082812Y-16913624D01*
X84246784Y-16981544D01*
X84394354Y-17080147D01*
X84519853Y-17205646D01*
X84618456Y-17353216D01*
X84686376Y-17517188D01*
X84721000Y-17691259D01*
X84721000Y-17868741D01*
X84686376Y-18042812D01*
X84618456Y-18206784D01*
X84519853Y-18354354D01*
X84394354Y-18479853D01*
X84246784Y-18578456D01*
X84082812Y-18646376D01*
X83933512Y-18676073D01*
X83908742Y-18681000D01*
X83731258Y-18681000D01*
X83706488Y-18676073D01*
X83557188Y-18646376D01*
X83393216Y-18578456D01*
X83245646Y-18479853D01*
X83120147Y-18354354D01*
X83021544Y-18206784D01*
X82953624Y-18042812D01*
X82919000Y-17868741D01*
X82919000Y-17691259D01*
X82953624Y-17517188D01*
X83021544Y-17353216D01*
X83120147Y-17205646D01*
X83245646Y-17080147D01*
X83393216Y-16981544D01*
X83557188Y-16913624D01*
X83706488Y-16883927D01*
X83731258Y-16879000D01*
X83908742Y-16879000D01*
X83933512Y-16883927D01*
G37*
G36*
X91553512Y-16883927D02*
G01*
X91702812Y-16913624D01*
X91866784Y-16981544D01*
X92014354Y-17080147D01*
X92139853Y-17205646D01*
X92238456Y-17353216D01*
X92306376Y-17517188D01*
X92341000Y-17691259D01*
X92341000Y-17868741D01*
X92306376Y-18042812D01*
X92238456Y-18206784D01*
X92139853Y-18354354D01*
X92014354Y-18479853D01*
X91866784Y-18578456D01*
X91702812Y-18646376D01*
X91553512Y-18676073D01*
X91528742Y-18681000D01*
X91351258Y-18681000D01*
X91326488Y-18676073D01*
X91177188Y-18646376D01*
X91013216Y-18578456D01*
X90865646Y-18479853D01*
X90740147Y-18354354D01*
X90641544Y-18206784D01*
X90573624Y-18042812D01*
X90539000Y-17868741D01*
X90539000Y-17691259D01*
X90573624Y-17517188D01*
X90641544Y-17353216D01*
X90740147Y-17205646D01*
X90865646Y-17080147D01*
X91013216Y-16981544D01*
X91177188Y-16913624D01*
X91326488Y-16883927D01*
X91351258Y-16879000D01*
X91528742Y-16879000D01*
X91553512Y-16883927D01*
G37*
G36*
X113512Y-16883927D02*
G01*
X262812Y-16913624D01*
X426784Y-16981544D01*
X574354Y-17080147D01*
X699853Y-17205646D01*
X798456Y-17353216D01*
X866376Y-17517188D01*
X901000Y-17691259D01*
X901000Y-17868741D01*
X866376Y-18042812D01*
X798456Y-18206784D01*
X699853Y-18354354D01*
X574354Y-18479853D01*
X426784Y-18578456D01*
X262812Y-18646376D01*
X113512Y-18676073D01*
X88742Y-18681000D01*
X-88742Y-18681000D01*
X-113512Y-18676073D01*
X-262812Y-18646376D01*
X-426784Y-18578456D01*
X-574354Y-18479853D01*
X-699853Y-18354354D01*
X-798456Y-18206784D01*
X-866376Y-18042812D01*
X-901000Y-17868741D01*
X-901000Y-17691259D01*
X-866376Y-17517188D01*
X-798456Y-17353216D01*
X-699853Y-17205646D01*
X-574354Y-17080147D01*
X-426784Y-16981544D01*
X-262812Y-16913624D01*
X-113512Y-16883927D01*
X-88742Y-16879000D01*
X88742Y-16879000D01*
X113512Y-16883927D01*
G37*
G36*
X53588228Y-16961703D02*
G01*
X53743100Y-17025853D01*
X53882481Y-17118985D01*
X54001015Y-17237519D01*
X54094147Y-17376900D01*
X54158297Y-17531772D01*
X54191000Y-17696184D01*
X54191000Y-17863816D01*
X54158297Y-18028228D01*
X54094147Y-18183100D01*
X54001015Y-18322481D01*
X53882481Y-18441015D01*
X53743100Y-18534147D01*
X53588228Y-18598297D01*
X53423816Y-18631000D01*
X53256184Y-18631000D01*
X53091772Y-18598297D01*
X52936900Y-18534147D01*
X52797519Y-18441015D01*
X52678985Y-18322481D01*
X52585853Y-18183100D01*
X52521703Y-18028228D01*
X52489000Y-17863816D01*
X52489000Y-17696184D01*
X52521703Y-17531772D01*
X52585853Y-17376900D01*
X52678985Y-17237519D01*
X52797519Y-17118985D01*
X52936900Y-17025853D01*
X53091772Y-16961703D01*
X53256184Y-16929000D01*
X53423816Y-16929000D01*
X53588228Y-16961703D01*
G37*
G36*
X38348228Y-16961703D02*
G01*
X38503100Y-17025853D01*
X38642481Y-17118985D01*
X38761015Y-17237519D01*
X38854147Y-17376900D01*
X38918297Y-17531772D01*
X38951000Y-17696184D01*
X38951000Y-17863816D01*
X38918297Y-18028228D01*
X38854147Y-18183100D01*
X38761015Y-18322481D01*
X38642481Y-18441015D01*
X38503100Y-18534147D01*
X38348228Y-18598297D01*
X38183816Y-18631000D01*
X38016184Y-18631000D01*
X37851772Y-18598297D01*
X37696900Y-18534147D01*
X37557519Y-18441015D01*
X37438985Y-18322481D01*
X37345853Y-18183100D01*
X37281703Y-18028228D01*
X37249000Y-17863816D01*
X37249000Y-17696184D01*
X37281703Y-17531772D01*
X37345853Y-17376900D01*
X37438985Y-17237519D01*
X37557519Y-17118985D01*
X37696900Y-17025853D01*
X37851772Y-16961703D01*
X38016184Y-16929000D01*
X38183816Y-16929000D01*
X38348228Y-16961703D01*
G37*
G36*
X68889473Y-17105938D02*
G01*
X69017049Y-17158782D01*
X69131859Y-17235495D01*
X69229505Y-17333141D01*
X69306218Y-17447951D01*
X69359062Y-17575527D01*
X69386000Y-17710956D01*
X69386000Y-17849044D01*
X69359062Y-17984473D01*
X69306218Y-18112049D01*
X69229505Y-18226859D01*
X69131859Y-18324505D01*
X69017049Y-18401218D01*
X68889473Y-18454062D01*
X68754044Y-18481000D01*
X68615956Y-18481000D01*
X68480527Y-18454062D01*
X68352951Y-18401218D01*
X68238141Y-18324505D01*
X68140495Y-18226859D01*
X68063782Y-18112049D01*
X68010938Y-17984473D01*
X67984000Y-17849044D01*
X67984000Y-17710956D01*
X68010938Y-17575527D01*
X68063782Y-17447951D01*
X68140495Y-17333141D01*
X68238141Y-17235495D01*
X68352951Y-17158782D01*
X68480527Y-17105938D01*
X68615956Y-17079000D01*
X68754044Y-17079000D01*
X68889473Y-17105938D01*
G37*
G36*
X67619473Y-15835938D02*
G01*
X67747049Y-15888782D01*
X67861859Y-15965495D01*
X67959505Y-16063141D01*
X68036218Y-16177951D01*
X68089062Y-16305527D01*
X68116000Y-16440956D01*
X68116000Y-16579044D01*
X68089062Y-16714473D01*
X68036218Y-16842049D01*
X67959505Y-16956859D01*
X67861859Y-17054505D01*
X67747049Y-17131218D01*
X67619473Y-17184062D01*
X67484044Y-17211000D01*
X67345956Y-17211000D01*
X67210527Y-17184062D01*
X67082951Y-17131218D01*
X67040444Y-17102816D01*
X67018833Y-17091265D01*
X66995384Y-17084152D01*
X66970998Y-17081750D01*
X66946612Y-17084152D01*
X66923163Y-17091265D01*
X66901553Y-17102817D01*
X66882611Y-17118362D01*
X66867066Y-17137304D01*
X66855515Y-17158915D01*
X66848402Y-17182364D01*
X66846000Y-17206749D01*
X66846000Y-18481000D01*
X65444000Y-18481000D01*
X65444000Y-17079000D01*
X66718251Y-17079000D01*
X66742637Y-17076598D01*
X66766086Y-17069485D01*
X66787697Y-17057934D01*
X66806639Y-17042389D01*
X66822184Y-17023447D01*
X66833735Y-17001836D01*
X66840848Y-16978387D01*
X66843250Y-16954001D01*
X66840848Y-16929615D01*
X66833735Y-16906166D01*
X66822184Y-16884556D01*
X66793782Y-16842049D01*
X66740938Y-16714473D01*
X66714000Y-16579044D01*
X66714000Y-16440956D01*
X66740938Y-16305527D01*
X66793782Y-16177951D01*
X66870495Y-16063141D01*
X66968141Y-15965495D01*
X67082951Y-15888782D01*
X67210527Y-15835938D01*
X67345956Y-15809000D01*
X67484044Y-15809000D01*
X67619473Y-15835938D01*
G37*
G36*
X901000Y-16141000D02*
G01*
X-901000Y-16141000D01*
X-901000Y-14339000D01*
X901000Y-14339000D01*
X901000Y-16141000D01*
G37*
G36*
X83933512Y-14343927D02*
G01*
X84082812Y-14373624D01*
X84246784Y-14441544D01*
X84394354Y-14540147D01*
X84519853Y-14665646D01*
X84618456Y-14813216D01*
X84686376Y-14977188D01*
X84721000Y-15151259D01*
X84721000Y-15328741D01*
X84686376Y-15502812D01*
X84618456Y-15666784D01*
X84519853Y-15814354D01*
X84394354Y-15939853D01*
X84246784Y-16038456D01*
X84082812Y-16106376D01*
X83933512Y-16136073D01*
X83908742Y-16141000D01*
X83731258Y-16141000D01*
X83706488Y-16136073D01*
X83557188Y-16106376D01*
X83393216Y-16038456D01*
X83245646Y-15939853D01*
X83120147Y-15814354D01*
X83021544Y-15666784D01*
X82953624Y-15502812D01*
X82919000Y-15328741D01*
X82919000Y-15151259D01*
X82953624Y-14977188D01*
X83021544Y-14813216D01*
X83120147Y-14665646D01*
X83245646Y-14540147D01*
X83393216Y-14441544D01*
X83557188Y-14373624D01*
X83706488Y-14343927D01*
X83731258Y-14339000D01*
X83908742Y-14339000D01*
X83933512Y-14343927D01*
G37*
G36*
X91553512Y-14343927D02*
G01*
X91702812Y-14373624D01*
X91866784Y-14441544D01*
X92014354Y-14540147D01*
X92139853Y-14665646D01*
X92238456Y-14813216D01*
X92306376Y-14977188D01*
X92341000Y-15151259D01*
X92341000Y-15328741D01*
X92306376Y-15502812D01*
X92238456Y-15666784D01*
X92139853Y-15814354D01*
X92014354Y-15939853D01*
X91866784Y-16038456D01*
X91702812Y-16106376D01*
X91553512Y-16136073D01*
X91528742Y-16141000D01*
X91351258Y-16141000D01*
X91326488Y-16136073D01*
X91177188Y-16106376D01*
X91013216Y-16038456D01*
X90865646Y-15939853D01*
X90740147Y-15814354D01*
X90641544Y-15666784D01*
X90573624Y-15502812D01*
X90539000Y-15328741D01*
X90539000Y-15151259D01*
X90573624Y-14977188D01*
X90641544Y-14813216D01*
X90740147Y-14665646D01*
X90865646Y-14540147D01*
X91013216Y-14441544D01*
X91177188Y-14373624D01*
X91326488Y-14343927D01*
X91351258Y-14339000D01*
X91528742Y-14339000D01*
X91553512Y-14343927D01*
G37*
G36*
X38951000Y-16091000D02*
G01*
X37249000Y-16091000D01*
X37249000Y-14389000D01*
X38951000Y-14389000D01*
X38951000Y-16091000D01*
G37*
G36*
X53588228Y-14421703D02*
G01*
X53743100Y-14485853D01*
X53882481Y-14578985D01*
X54001015Y-14697519D01*
X54094147Y-14836900D01*
X54158297Y-14991772D01*
X54191000Y-15156184D01*
X54191000Y-15323816D01*
X54158297Y-15488228D01*
X54094147Y-15643100D01*
X54001015Y-15782481D01*
X53882481Y-15901015D01*
X53743100Y-15994147D01*
X53588228Y-16058297D01*
X53423816Y-16091000D01*
X53256184Y-16091000D01*
X53091772Y-16058297D01*
X52936900Y-15994147D01*
X52797519Y-15901015D01*
X52678985Y-15782481D01*
X52585853Y-15643100D01*
X52521703Y-15488228D01*
X52489000Y-15323816D01*
X52489000Y-15156184D01*
X52521703Y-14991772D01*
X52585853Y-14836900D01*
X52678985Y-14697519D01*
X52797519Y-14578985D01*
X52936900Y-14485853D01*
X53091772Y-14421703D01*
X53256184Y-14389000D01*
X53423816Y-14389000D01*
X53588228Y-14421703D01*
G37*
G36*
X91553512Y-11803927D02*
G01*
X91702812Y-11833624D01*
X91866784Y-11901544D01*
X92014354Y-12000147D01*
X92139853Y-12125646D01*
X92238456Y-12273216D01*
X92306376Y-12437188D01*
X92341000Y-12611259D01*
X92341000Y-12788741D01*
X92306376Y-12962812D01*
X92238456Y-13126784D01*
X92139853Y-13274354D01*
X92014354Y-13399853D01*
X91866784Y-13498456D01*
X91702812Y-13566376D01*
X91553512Y-13596073D01*
X91528742Y-13601000D01*
X91351258Y-13601000D01*
X91326488Y-13596073D01*
X91177188Y-13566376D01*
X91013216Y-13498456D01*
X90865646Y-13399853D01*
X90740147Y-13274354D01*
X90641544Y-13126784D01*
X90573624Y-12962812D01*
X90539000Y-12788741D01*
X90539000Y-12611259D01*
X90573624Y-12437188D01*
X90641544Y-12273216D01*
X90740147Y-12125646D01*
X90865646Y-12000147D01*
X91013216Y-11901544D01*
X91177188Y-11833624D01*
X91326488Y-11803927D01*
X91351258Y-11799000D01*
X91528742Y-11799000D01*
X91553512Y-11803927D01*
G37*
G36*
X83933512Y-11803927D02*
G01*
X84082812Y-11833624D01*
X84246784Y-11901544D01*
X84394354Y-12000147D01*
X84519853Y-12125646D01*
X84618456Y-12273216D01*
X84686376Y-12437188D01*
X84721000Y-12611259D01*
X84721000Y-12788741D01*
X84686376Y-12962812D01*
X84618456Y-13126784D01*
X84519853Y-13274354D01*
X84394354Y-13399853D01*
X84246784Y-13498456D01*
X84082812Y-13566376D01*
X83933512Y-13596073D01*
X83908742Y-13601000D01*
X83731258Y-13601000D01*
X83706488Y-13596073D01*
X83557188Y-13566376D01*
X83393216Y-13498456D01*
X83245646Y-13399853D01*
X83120147Y-13274354D01*
X83021544Y-13126784D01*
X82953624Y-12962812D01*
X82919000Y-12788741D01*
X82919000Y-12611259D01*
X82953624Y-12437188D01*
X83021544Y-12273216D01*
X83120147Y-12125646D01*
X83245646Y-12000147D01*
X83393216Y-11901544D01*
X83557188Y-11833624D01*
X83706488Y-11803927D01*
X83731258Y-11799000D01*
X83908742Y-11799000D01*
X83933512Y-11803927D01*
G37*
G36*
X23108228Y-11881703D02*
G01*
X23263100Y-11945853D01*
X23402481Y-12038985D01*
X23521015Y-12157519D01*
X23614147Y-12296900D01*
X23678297Y-12451772D01*
X23711000Y-12616184D01*
X23711000Y-12783816D01*
X23678297Y-12948228D01*
X23614147Y-13103100D01*
X23521015Y-13242481D01*
X23402481Y-13361015D01*
X23263100Y-13454147D01*
X23108228Y-13518297D01*
X22943816Y-13551000D01*
X22776184Y-13551000D01*
X22611772Y-13518297D01*
X22456900Y-13454147D01*
X22317519Y-13361015D01*
X22198985Y-13242481D01*
X22105853Y-13103100D01*
X22041703Y-12948228D01*
X22009000Y-12783816D01*
X22009000Y-12616184D01*
X22041703Y-12451772D01*
X22105853Y-12296900D01*
X22198985Y-12157519D01*
X22317519Y-12038985D01*
X22456900Y-11945853D01*
X22611772Y-11881703D01*
X22776184Y-11849000D01*
X22943816Y-11849000D01*
X23108228Y-11881703D01*
G37*
G36*
X67619473Y-10755938D02*
G01*
X67747049Y-10808782D01*
X67861859Y-10885495D01*
X67959505Y-10983141D01*
X68036218Y-11097951D01*
X68089062Y-11225527D01*
X68116000Y-11360956D01*
X68116000Y-11499044D01*
X68089062Y-11634473D01*
X68036218Y-11762049D01*
X67959505Y-11876859D01*
X67861859Y-11974505D01*
X67747049Y-12051218D01*
X67619473Y-12104062D01*
X67484044Y-12131000D01*
X67345956Y-12131000D01*
X67210527Y-12104062D01*
X67082951Y-12051218D01*
X67040444Y-12022816D01*
X67018833Y-12011265D01*
X66995384Y-12004152D01*
X66970998Y-12001750D01*
X66946612Y-12004152D01*
X66923163Y-12011265D01*
X66901553Y-12022817D01*
X66882611Y-12038362D01*
X66867066Y-12057304D01*
X66855515Y-12078915D01*
X66848402Y-12102364D01*
X66846000Y-12126749D01*
X66846000Y-13401000D01*
X65444000Y-13401000D01*
X65444000Y-11999000D01*
X66718251Y-11999000D01*
X66742637Y-11996598D01*
X66766086Y-11989485D01*
X66787697Y-11977934D01*
X66806639Y-11962389D01*
X66822184Y-11943447D01*
X66833735Y-11921836D01*
X66840848Y-11898387D01*
X66843250Y-11874001D01*
X66840848Y-11849615D01*
X66833735Y-11826166D01*
X66822184Y-11804556D01*
X66793782Y-11762049D01*
X66740938Y-11634473D01*
X66714000Y-11499044D01*
X66714000Y-11360956D01*
X66740938Y-11225527D01*
X66793782Y-11097951D01*
X66870495Y-10983141D01*
X66968141Y-10885495D01*
X67082951Y-10808782D01*
X67210527Y-10755938D01*
X67345956Y-10729000D01*
X67484044Y-10729000D01*
X67619473Y-10755938D01*
G37*
G36*
X68889473Y-12025938D02*
G01*
X69017049Y-12078782D01*
X69131859Y-12155495D01*
X69229505Y-12253141D01*
X69306218Y-12367951D01*
X69359062Y-12495527D01*
X69386000Y-12630956D01*
X69386000Y-12769044D01*
X69359062Y-12904473D01*
X69306218Y-13032049D01*
X69229505Y-13146859D01*
X69131859Y-13244505D01*
X69017049Y-13321218D01*
X68889473Y-13374062D01*
X68754044Y-13401000D01*
X68615956Y-13401000D01*
X68480527Y-13374062D01*
X68352951Y-13321218D01*
X68238141Y-13244505D01*
X68140495Y-13146859D01*
X68063782Y-13032049D01*
X68010938Y-12904473D01*
X67984000Y-12769044D01*
X67984000Y-12630956D01*
X68010938Y-12495527D01*
X68063782Y-12367951D01*
X68140495Y-12253141D01*
X68238141Y-12155495D01*
X68352951Y-12078782D01*
X68480527Y-12025938D01*
X68615956Y-11999000D01*
X68754044Y-11999000D01*
X68889473Y-12025938D01*
G37*
G36*
X91553512Y-9263927D02*
G01*
X91702812Y-9293624D01*
X91866784Y-9361544D01*
X92014354Y-9460147D01*
X92139853Y-9585646D01*
X92238456Y-9733216D01*
X92306376Y-9897188D01*
X92341000Y-10071259D01*
X92341000Y-10248741D01*
X92306376Y-10422812D01*
X92238456Y-10586784D01*
X92139853Y-10734354D01*
X92014354Y-10859853D01*
X91866784Y-10958456D01*
X91702812Y-11026376D01*
X91553512Y-11056073D01*
X91528742Y-11061000D01*
X91351258Y-11061000D01*
X91326488Y-11056073D01*
X91177188Y-11026376D01*
X91013216Y-10958456D01*
X90865646Y-10859853D01*
X90740147Y-10734354D01*
X90641544Y-10586784D01*
X90573624Y-10422812D01*
X90539000Y-10248741D01*
X90539000Y-10071259D01*
X90573624Y-9897188D01*
X90641544Y-9733216D01*
X90740147Y-9585646D01*
X90865646Y-9460147D01*
X91013216Y-9361544D01*
X91177188Y-9293624D01*
X91326488Y-9263927D01*
X91351258Y-9259000D01*
X91528742Y-9259000D01*
X91553512Y-9263927D01*
G37*
G36*
X83933512Y-9263927D02*
G01*
X84082812Y-9293624D01*
X84246784Y-9361544D01*
X84394354Y-9460147D01*
X84519853Y-9585646D01*
X84618456Y-9733216D01*
X84686376Y-9897188D01*
X84721000Y-10071259D01*
X84721000Y-10248741D01*
X84686376Y-10422812D01*
X84618456Y-10586784D01*
X84519853Y-10734354D01*
X84394354Y-10859853D01*
X84246784Y-10958456D01*
X84082812Y-11026376D01*
X83933512Y-11056073D01*
X83908742Y-11061000D01*
X83731258Y-11061000D01*
X83706488Y-11056073D01*
X83557188Y-11026376D01*
X83393216Y-10958456D01*
X83245646Y-10859853D01*
X83120147Y-10734354D01*
X83021544Y-10586784D01*
X82953624Y-10422812D01*
X82919000Y-10248741D01*
X82919000Y-10071259D01*
X82953624Y-9897188D01*
X83021544Y-9733216D01*
X83120147Y-9585646D01*
X83245646Y-9460147D01*
X83393216Y-9361544D01*
X83557188Y-9293624D01*
X83706488Y-9263927D01*
X83731258Y-9259000D01*
X83908742Y-9259000D01*
X83933512Y-9263927D01*
G37*
G36*
X46008228Y-9341703D02*
G01*
X46163100Y-9405853D01*
X46302481Y-9498985D01*
X46421015Y-9617519D01*
X46514147Y-9756900D01*
X46578297Y-9911772D01*
X46611000Y-10076184D01*
X46611000Y-10243816D01*
X46578297Y-10408228D01*
X46514147Y-10563100D01*
X46421015Y-10702481D01*
X46302481Y-10821015D01*
X46163100Y-10914147D01*
X46008228Y-10978297D01*
X45843816Y-11011000D01*
X45676184Y-11011000D01*
X45511772Y-10978297D01*
X45356900Y-10914147D01*
X45217519Y-10821015D01*
X45098985Y-10702481D01*
X45005853Y-10563100D01*
X44941703Y-10408228D01*
X44909000Y-10243816D01*
X44909000Y-10076184D01*
X44941703Y-9911772D01*
X45005853Y-9756900D01*
X45098985Y-9617519D01*
X45217519Y-9498985D01*
X45356900Y-9405853D01*
X45511772Y-9341703D01*
X45676184Y-9309000D01*
X45843816Y-9309000D01*
X46008228Y-9341703D01*
G37*
G36*
X30728228Y-9341703D02*
G01*
X30883100Y-9405853D01*
X31022481Y-9498985D01*
X31141015Y-9617519D01*
X31234147Y-9756900D01*
X31298297Y-9911772D01*
X31331000Y-10076184D01*
X31331000Y-10243816D01*
X31298297Y-10408228D01*
X31234147Y-10563100D01*
X31141015Y-10702481D01*
X31022481Y-10821015D01*
X30883100Y-10914147D01*
X30728228Y-10978297D01*
X30563816Y-11011000D01*
X30396184Y-11011000D01*
X30231772Y-10978297D01*
X30076900Y-10914147D01*
X29937519Y-10821015D01*
X29818985Y-10702481D01*
X29725853Y-10563100D01*
X29661703Y-10408228D01*
X29629000Y-10243816D01*
X29629000Y-10076184D01*
X29661703Y-9911772D01*
X29725853Y-9756900D01*
X29818985Y-9617519D01*
X29937519Y-9498985D01*
X30076900Y-9405853D01*
X30231772Y-9341703D01*
X30396184Y-9309000D01*
X30563816Y-9309000D01*
X30728228Y-9341703D01*
G37*
G36*
X48508228Y-9341703D02*
G01*
X48663100Y-9405853D01*
X48802481Y-9498985D01*
X48921015Y-9617519D01*
X49014147Y-9756900D01*
X49078297Y-9911772D01*
X49111000Y-10076184D01*
X49111000Y-10243816D01*
X49078297Y-10408228D01*
X49014147Y-10563100D01*
X48921015Y-10702481D01*
X48802481Y-10821015D01*
X48663100Y-10914147D01*
X48508228Y-10978297D01*
X48343816Y-11011000D01*
X48176184Y-11011000D01*
X48011772Y-10978297D01*
X47856900Y-10914147D01*
X47717519Y-10821015D01*
X47598985Y-10702481D01*
X47505853Y-10563100D01*
X47441703Y-10408228D01*
X47409000Y-10243816D01*
X47409000Y-10076184D01*
X47441703Y-9911772D01*
X47505853Y-9756900D01*
X47598985Y-9617519D01*
X47717519Y-9498985D01*
X47856900Y-9405853D01*
X48011772Y-9341703D01*
X48176184Y-9309000D01*
X48343816Y-9309000D01*
X48508228Y-9341703D01*
G37*
G36*
X83933512Y-6723927D02*
G01*
X84082812Y-6753624D01*
X84246784Y-6821544D01*
X84394354Y-6920147D01*
X84519853Y-7045646D01*
X84618456Y-7193216D01*
X84686376Y-7357188D01*
X84721000Y-7531259D01*
X84721000Y-7708741D01*
X84686376Y-7882812D01*
X84618456Y-8046784D01*
X84519853Y-8194354D01*
X84394354Y-8319853D01*
X84246784Y-8418456D01*
X84082812Y-8486376D01*
X83933512Y-8516073D01*
X83908742Y-8521000D01*
X83731258Y-8521000D01*
X83706488Y-8516073D01*
X83557188Y-8486376D01*
X83393216Y-8418456D01*
X83245646Y-8319853D01*
X83120147Y-8194354D01*
X83021544Y-8046784D01*
X82953624Y-7882812D01*
X82919000Y-7708741D01*
X82919000Y-7531259D01*
X82953624Y-7357188D01*
X83021544Y-7193216D01*
X83120147Y-7045646D01*
X83245646Y-6920147D01*
X83393216Y-6821544D01*
X83557188Y-6753624D01*
X83706488Y-6723927D01*
X83731258Y-6719000D01*
X83908742Y-6719000D01*
X83933512Y-6723927D01*
G37*
G36*
X91553512Y-6723927D02*
G01*
X91702812Y-6753624D01*
X91866784Y-6821544D01*
X92014354Y-6920147D01*
X92139853Y-7045646D01*
X92238456Y-7193216D01*
X92306376Y-7357188D01*
X92341000Y-7531259D01*
X92341000Y-7708741D01*
X92306376Y-7882812D01*
X92238456Y-8046784D01*
X92139853Y-8194354D01*
X92014354Y-8319853D01*
X91866784Y-8418456D01*
X91702812Y-8486376D01*
X91553512Y-8516073D01*
X91528742Y-8521000D01*
X91351258Y-8521000D01*
X91326488Y-8516073D01*
X91177188Y-8486376D01*
X91013216Y-8418456D01*
X90865646Y-8319853D01*
X90740147Y-8194354D01*
X90641544Y-8046784D01*
X90573624Y-7882812D01*
X90539000Y-7708741D01*
X90539000Y-7531259D01*
X90573624Y-7357188D01*
X90641544Y-7193216D01*
X90740147Y-7045646D01*
X90865646Y-6920147D01*
X91013216Y-6821544D01*
X91177188Y-6753624D01*
X91326488Y-6723927D01*
X91351258Y-6719000D01*
X91528742Y-6719000D01*
X91553512Y-6723927D01*
G37*
G36*
X68889473Y-6945938D02*
G01*
X69017049Y-6998782D01*
X69131859Y-7075495D01*
X69229505Y-7173141D01*
X69306218Y-7287951D01*
X69359062Y-7415527D01*
X69386000Y-7550956D01*
X69386000Y-7689044D01*
X69359062Y-7824473D01*
X69306218Y-7952049D01*
X69229505Y-8066859D01*
X69131859Y-8164505D01*
X69017049Y-8241218D01*
X68889473Y-8294062D01*
X68754044Y-8321000D01*
X68615956Y-8321000D01*
X68480527Y-8294062D01*
X68352951Y-8241218D01*
X68238141Y-8164505D01*
X68140495Y-8066859D01*
X68063782Y-7952049D01*
X68010938Y-7824473D01*
X67984000Y-7689044D01*
X67984000Y-7550956D01*
X68010938Y-7415527D01*
X68063782Y-7287951D01*
X68140495Y-7173141D01*
X68238141Y-7075495D01*
X68352951Y-6998782D01*
X68480527Y-6945938D01*
X68615956Y-6919000D01*
X68754044Y-6919000D01*
X68889473Y-6945938D01*
G37*
G36*
X67619473Y-5675938D02*
G01*
X67747049Y-5728782D01*
X67861859Y-5805495D01*
X67959505Y-5903141D01*
X68036218Y-6017951D01*
X68089062Y-6145527D01*
X68116000Y-6280956D01*
X68116000Y-6419044D01*
X68089062Y-6554473D01*
X68036218Y-6682049D01*
X67959505Y-6796859D01*
X67861859Y-6894505D01*
X67747049Y-6971218D01*
X67619473Y-7024062D01*
X67484044Y-7051000D01*
X67345956Y-7051000D01*
X67210527Y-7024062D01*
X67082951Y-6971218D01*
X67040444Y-6942816D01*
X67018833Y-6931265D01*
X66995384Y-6924152D01*
X66970998Y-6921750D01*
X66946612Y-6924152D01*
X66923163Y-6931265D01*
X66901553Y-6942817D01*
X66882611Y-6958362D01*
X66867066Y-6977304D01*
X66855515Y-6998915D01*
X66848402Y-7022364D01*
X66846000Y-7046749D01*
X66846000Y-8321000D01*
X65444000Y-8321000D01*
X65444000Y-6919000D01*
X66718251Y-6919000D01*
X66742637Y-6916598D01*
X66766086Y-6909485D01*
X66787697Y-6897934D01*
X66806639Y-6882389D01*
X66822184Y-6863447D01*
X66833735Y-6841836D01*
X66840848Y-6818387D01*
X66843250Y-6794001D01*
X66840848Y-6769615D01*
X66833735Y-6746166D01*
X66822184Y-6724556D01*
X66793782Y-6682049D01*
X66740938Y-6554473D01*
X66714000Y-6419044D01*
X66714000Y-6280956D01*
X66740938Y-6145527D01*
X66793782Y-6017951D01*
X66870495Y-5903141D01*
X66968141Y-5805495D01*
X67082951Y-5728782D01*
X67210527Y-5675938D01*
X67345956Y-5649000D01*
X67484044Y-5649000D01*
X67619473Y-5675938D01*
G37*
G36*
X48508228Y-4261703D02*
G01*
X48663100Y-4325853D01*
X48802481Y-4418985D01*
X48921015Y-4537519D01*
X49014147Y-4676900D01*
X49078297Y-4831772D01*
X49111000Y-4996184D01*
X49111000Y-5163816D01*
X49078297Y-5328228D01*
X49014147Y-5483100D01*
X48921015Y-5622481D01*
X48802481Y-5741015D01*
X48663100Y-5834147D01*
X48508228Y-5898297D01*
X48343816Y-5931000D01*
X48176184Y-5931000D01*
X48011772Y-5898297D01*
X47856900Y-5834147D01*
X47717519Y-5741015D01*
X47598985Y-5622481D01*
X47505853Y-5483100D01*
X47441703Y-5328228D01*
X47409000Y-5163816D01*
X47409000Y-4996184D01*
X47441703Y-4831772D01*
X47505853Y-4676900D01*
X47598985Y-4537519D01*
X47717519Y-4418985D01*
X47856900Y-4325853D01*
X48011772Y-4261703D01*
X48176184Y-4229000D01*
X48343816Y-4229000D01*
X48508228Y-4261703D01*
G37*
G36*
X38348228Y-4261703D02*
G01*
X38503100Y-4325853D01*
X38642481Y-4418985D01*
X38761015Y-4537519D01*
X38854147Y-4676900D01*
X38918297Y-4831772D01*
X38951000Y-4996184D01*
X38951000Y-5163816D01*
X38918297Y-5328228D01*
X38854147Y-5483100D01*
X38761015Y-5622481D01*
X38642481Y-5741015D01*
X38503100Y-5834147D01*
X38348228Y-5898297D01*
X38183816Y-5931000D01*
X38016184Y-5931000D01*
X37851772Y-5898297D01*
X37696900Y-5834147D01*
X37557519Y-5741015D01*
X37438985Y-5622481D01*
X37345853Y-5483100D01*
X37281703Y-5328228D01*
X37249000Y-5163816D01*
X37249000Y-4996184D01*
X37281703Y-4831772D01*
X37345853Y-4676900D01*
X37438985Y-4537519D01*
X37557519Y-4418985D01*
X37696900Y-4325853D01*
X37851772Y-4261703D01*
X38016184Y-4229000D01*
X38183816Y-4229000D01*
X38348228Y-4261703D01*
G37*
G36*
X525331Y1731789D02*
G01*
X853092Y1596026D01*
X1148070Y1398928D01*
X1398928Y1148070D01*
X1596026Y853092D01*
X1731789Y525331D01*
X1801000Y177384D01*
X1801000Y-177384D01*
X1731789Y-525331D01*
X1596026Y-853092D01*
X1398928Y-1148070D01*
X1148070Y-1398928D01*
X853092Y-1596026D01*
X525331Y-1731789D01*
X177384Y-1801000D01*
X-177384Y-1801000D01*
X-525331Y-1731789D01*
X-853092Y-1596026D01*
X-1148070Y-1398928D01*
X-1398928Y-1148070D01*
X-1596026Y-853092D01*
X-1731789Y-525331D01*
X-1801000Y-177384D01*
X-1801000Y177384D01*
X-1731789Y525331D01*
X-1596026Y853092D01*
X-1398928Y1148070D01*
X-1148070Y1398928D01*
X-853092Y1596026D01*
X-525331Y1731789D01*
X-177384Y1801000D01*
X177384Y1801000D01*
X525331Y1731789D01*
G37*
G36*
X89425331Y1731789D02*
G01*
X89753092Y1596026D01*
X90048070Y1398928D01*
X90298928Y1148070D01*
X90496026Y853092D01*
X90631789Y525331D01*
X90701000Y177384D01*
X90701000Y-177384D01*
X90631789Y-525331D01*
X90496026Y-853092D01*
X90298928Y-1148070D01*
X90048070Y-1398928D01*
X89753092Y-1596026D01*
X89425331Y-1731789D01*
X89077384Y-1801000D01*
X88722616Y-1801000D01*
X88374669Y-1731789D01*
X88046908Y-1596026D01*
X87751930Y-1398928D01*
X87501072Y-1148070D01*
X87303974Y-853092D01*
X87168211Y-525331D01*
X87099000Y-177384D01*
X87099000Y177384D01*
X87168211Y525331D01*
X87303974Y853092D01*
X87501072Y1148070D01*
X87751930Y1398928D01*
X88046908Y1596026D01*
X88374669Y1731789D01*
X88722616Y1801000D01*
X89077384Y1801000D01*
X89425331Y1731789D01*
G37*
M02*
